STARTFONT 2.1
FONT -Adobe-Utopia-Bold-R-Normal--25-180-100-100-P-140-ISO10646-1
SIZE 18 100 100
FONTBOUNDINGBOX 35 41 -4 -11
COMMENT $Xorg: $
COMMENT ISO10646-1 extension by Markus Kuhn <mkuhn@acm.org>, 2001-03-20
STARTPROPERTIES 28
FOUNDRY "Adobe"
FAMILY_NAME "Utopia"
WEIGHT_NAME "Bold"
SLANT "R"
SETWIDTH_NAME "Normal"
ADD_STYLE_NAME ""
PIXEL_SIZE 25
POINT_SIZE 180
RESOLUTION_X 100
RESOLUTION_Y 100
SPACING "P"
AVERAGE_WIDTH 140
CHARSET_REGISTRY "ISO10646"
CHARSET_ENCODING "1"
CAP_HEIGHT 17
X_HEIGHT 12
RELATIVE_SETWIDTH 50
RELATIVE_WEIGHT 70
WEIGHT 218
FACE_NAME "Utopia Bold"
COPYRIGHT "Copyright (c) 1989, 1991 Adobe Systems Incorporated.  All Rights Reserved."
NOTICE "Utopia is a registered trademark of Adobe Systems Incorporated."
DESTINATION 0
FONT_ASCENT 23
FONT_DESCENT 6
DEFAULT_CHAR 0
_ADOBE_PSFONT "Utopia-Bold"
_DEC_DEVICE_FONTNAMES "PS=Utopia-Bold"
ENDPROPERTIES
CHARS 756
STARTCHAR char0
ENCODING 0
SWIDTH 807 0
DWIDTH 20 0
BBX 17 17 1 0
BITMAP
AAAA80
000000
800080
000000
800080
000000
800080
000000
800080
000000
800080
000000
800080
000000
800080
000000
AAAA80
ENDCHAR
STARTCHAR space
ENCODING 32
SWIDTH 210 0
DWIDTH 5 0
BBX 0 0 0 0
BITMAP
ENDCHAR
STARTCHAR exclam
ENCODING 33
SWIDTH 278 0
DWIDTH 7 0
BBX 5 18 1 0
BITMAP
70
F8
F8
F8
70
70
70
70
70
70
70
20
00
20
70
F8
F0
70
ENDCHAR
STARTCHAR quotedbl
ENCODING 34
SWIDTH 473 0
DWIDTH 12 0
BBX 8 7 2 11
BITMAP
E7
E7
E7
E7
66
66
42
ENDCHAR
STARTCHAR numbersign
ENCODING 35
SWIDTH 560 0
DWIDTH 14 0
BBX 13 18 1 -1
BITMAP
0230
0630
0620
0460
0C60
7FF8
7FF8
08C0
18C0
1880
FFF0
FFF0
3180
3300
2300
6300
6200
0400
ENDCHAR
STARTCHAR dollar
ENCODING 36
SWIDTH 560 0
DWIDTH 14 0
BBX 12 22 1 -3
BITMAP
0400
0400
1F80
75E0
64E0
E460
E400
FC00
FC00
7F80
3FC0
0FE0
07F0
04F0
4470
E470
F460
74C0
3F80
0400
0400
0400
ENDCHAR
STARTCHAR percent
ENCODING 37
SWIDTH 887 0
DWIDTH 22 0
BBX 20 18 1 0
BITMAP
000100
3C0300
77FE00
E38600
E38C00
E38800
E39800
E3B000
773000
3E67C0
004EE0
00DC70
019C70
019C70
031C70
021C70
060EE0
0C07C0
ENDCHAR
STARTCHAR ampersand
ENCODING 38
SWIDTH 748 0
DWIDTH 19 0
BBX 17 17 1 0
BITMAP
0F0000
18C000
38E000
38E000
38E000
3DC000
1F8700
1F0700
3F8700
77C600
F3E600
F1FC00
F0FC00
F87C00
7C3E00
3FEF00
0F8780
ENDCHAR
STARTCHAR quotesingle
ENCODING 39
SWIDTH 252 0
DWIDTH 6 0
BBX 4 7 1 11
BITMAP
F0
F0
F0
60
60
60
60
ENDCHAR
STARTCHAR parenleft
ENCODING 40
SWIDTH 365 0
DWIDTH 9 0
BBX 6 21 2 -3
BITMAP
0C
1C
38
70
70
60
60
E0
E0
E0
E0
E0
E0
E0
60
60
70
70
38
1C
0C
ENDCHAR
STARTCHAR parenright
ENCODING 41
SWIDTH 365 0
DWIDTH 9 0
BBX 6 21 1 -3
BITMAP
C0
E0
70
38
38
18
18
1C
1C
1C
1C
1C
1C
1C
18
18
38
30
70
E0
C0
ENDCHAR
STARTCHAR asterisk
ENCODING 42
SWIDTH 442 0
DWIDTH 11 0
BBX 9 10 1 8
BITMAP
0800
1C00
C980
EB80
1C00
3E00
EB80
C980
1C00
0800
ENDCHAR
STARTCHAR plus
ENCODING 43
SWIDTH 600 0
DWIDTH 15 0
BBX 12 13 1 0
BITMAP
0600
0600
0600
0600
0600
0600
FFF0
FFF0
0600
0600
0600
0600
0600
ENDCHAR
STARTCHAR comma
ENCODING 44
SWIDTH 280 0
DWIDTH 7 0
BBX 4 9 2 -4
BITMAP
60
E0
F0
70
70
60
60
C0
80
ENDCHAR
STARTCHAR hyphen
ENCODING 45
SWIDTH 392 0
DWIDTH 10 0
BBX 7 2 1 5
BITMAP
FE
FE
ENDCHAR
STARTCHAR period
ENCODING 46
SWIDTH 280 0
DWIDTH 7 0
BBX 5 5 1 0
BITMAP
20
70
F8
70
20
ENDCHAR
STARTCHAR slash
ENCODING 47
SWIDTH 378 0
DWIDTH 9 0
BBX 8 18 1 0
BITMAP
07
06
06
0E
0E
0C
1C
1C
18
18
38
38
30
70
70
60
60
E0
ENDCHAR
STARTCHAR zero
ENCODING 48
SWIDTH 560 0
DWIDTH 14 0
BBX 12 17 1 0
BITMAP
0F00
39C0
79E0
70E0
70E0
F0F0
F0F0
F0F0
F0F0
F0F0
F0F0
F0F0
70E0
70E0
79E0
39C0
0F00
ENDCHAR
STARTCHAR one
ENCODING 49
SWIDTH 560 0
DWIDTH 14 0
BBX 8 17 3 0
BITMAP
0C
FC
7C
3C
3C
3C
3C
3C
3C
3C
3C
3C
3C
3C
3C
3C
FF
ENDCHAR
STARTCHAR two
ENCODING 50
SWIDTH 560 0
DWIDTH 14 0
BBX 14 17 0 0
BITMAP
0FC0
3CF0
7878
7878
3078
0078
0078
00F0
01E0
0380
0700
0E00
3800
780C
7FF8
FFF8
FFF8
ENDCHAR
STARTCHAR three
ENCODING 51
SWIDTH 560 0
DWIDTH 14 0
BBX 12 17 1 0
BITMAP
1F00
73C0
F1C0
E1E0
E1E0
01E0
01C0
03C0
3F00
01E0
00E0
00F0
60F0
E0F0
F0E0
71E0
1F80
ENDCHAR
STARTCHAR four
ENCODING 52
SWIDTH 560 0
DWIDTH 14 0
BBX 13 17 0 0
BITMAP
01E0
01E0
03E0
03E0
07E0
0DE0
0DE0
19E0
11E0
31E0
61E0
7FF8
FFF8
01E0
01E0
01E0
07F8
ENDCHAR
STARTCHAR five
ENCODING 53
SWIDTH 560 0
DWIDTH 14 0
BBX 12 17 1 0
BITMAP
7FE0
7FE0
7FE0
6000
6000
6000
6700
5FC0
61E0
40F0
00F0
00F0
60F0
E0F0
F0E0
79C0
1F80
ENDCHAR
STARTCHAR six
ENCODING 54
SWIDTH 560 0
DWIDTH 14 0
BBX 12 17 1 0
BITMAP
07C0
18E0
3870
7070
7000
F000
F380
FFE0
F9E0
F0F0
F0F0
F0F0
70F0
70F0
70E0
39C0
0F80
ENDCHAR
STARTCHAR seven
ENCODING 55
SWIDTH 560 0
DWIDTH 14 0
BBX 12 17 1 0
BITMAP
7FF0
7FF0
7FF0
C060
8060
00C0
00C0
0180
0300
0300
0700
0E00
0E00
1E00
1E00
1E00
0C00
ENDCHAR
STARTCHAR eight
ENCODING 56
SWIDTH 560 0
DWIDTH 14 0
BBX 12 17 1 0
BITMAP
1F80
79E0
70E0
F0F0
F0F0
70E0
70E0
1980
3FC0
79E0
70E0
F0F0
F0F0
F0F0
70E0
79E0
1F80
ENDCHAR
STARTCHAR nine
ENCODING 57
SWIDTH 560 0
DWIDTH 14 0
BBX 12 17 1 0
BITMAP
1F00
39C0
70E0
F0E0
F0E0
F0F0
F0F0
F0F0
79F0
7FF0
1EF0
00F0
00E0
61E0
F1E0
71C0
1F00
ENDCHAR
STARTCHAR colon
ENCODING 58
SWIDTH 280 0
DWIDTH 7 0
BBX 5 13 1 0
BITMAP
20
70
F8
70
20
00
00
00
20
70
F8
70
20
ENDCHAR
STARTCHAR semicolon
ENCODING 59
SWIDTH 280 0
DWIDTH 7 0
BBX 5 17 1 -4
BITMAP
70
78
F8
70
20
00
00
00
30
78
78
38
38
30
20
40
80
ENDCHAR
STARTCHAR less
ENCODING 60
SWIDTH 600 0
DWIDTH 15 0
BBX 12 13 1 0
BITMAP
0010
0070
01F0
0FC0
3F00
F800
E000
F800
3E00
07C0
01F0
0070
0010
ENDCHAR
STARTCHAR equal
ENCODING 61
SWIDTH 600 0
DWIDTH 15 0
BBX 12 7 1 3
BITMAP
FFF0
FFF0
0000
0000
0000
FFF0
FFF0
ENDCHAR
STARTCHAR greater
ENCODING 62
SWIDTH 600 0
DWIDTH 15 0
BBX 12 13 1 0
BITMAP
8000
E000
F800
3F00
0FC0
01F0
0070
01F0
07C0
3E00
F800
E000
8000
ENDCHAR
STARTCHAR question
ENCODING 63
SWIDTH 456 0
DWIDTH 11 0
BBX 10 18 1 0
BITMAP
3E00
7380
F3C0
E3C0
23C0
0780
0F00
1E00
3C00
7800
7800
7F00
1C00
0800
1E00
1E00
1E00
0C00
ENDCHAR
STARTCHAR at
ENCODING 64
SWIDTH 833 0
DWIDTH 21 0
BBX 19 18 1 0
BITMAP
00FC00
038300
0E0180
1C00C0
387EC0
70EE60
71CE60
638E60
639E60
E39C60
E72C40
E73CC0
675D80
738E00
700000
380000
0E0600
03F800
ENDCHAR
STARTCHAR A
ENCODING 65
SWIDTH 644 0
DWIDTH 16 0
BBX 17 18 -1 0
BITMAP
01C000
01E000
03E000
03E000
02F000
06F000
06F000
04F000
047800
0C7800
0C7800
0FFC00
183C00
183C00
301E00
301E00
301E00
FC7F80
ENDCHAR
STARTCHAR B
ENCODING 66
SWIDTH 683 0
DWIDTH 17 0
BBX 15 18 1 0
BITMAP
FFE0
3C78
3C3C
3C3C
3C3C
3C38
3C38
3C70
3FE0
3C78
3C3C
3C1E
3C1E
3C1E
3C1E
3C1E
3C3C
FFF0
ENDCHAR
STARTCHAR C
ENCODING 67
SWIDTH 689 0
DWIDTH 17 0
BBX 15 18 1 0
BITMAP
03F8
1E1E
3C06
7806
7802
7000
F000
F000
F000
F000
F000
F000
F002
7802
7806
3C06
1F1E
03F8
ENDCHAR
STARTCHAR D
ENCODING 68
SWIDTH 777 0
DWIDTH 19 0
BBX 17 18 1 0
BITMAP
FFF000
3C3C00
3C1E00
3C0F00
3C0F00
3C0780
3C0780
3C0780
3C0780
3C0780
3C0780
3C0780
3C0700
3C0F00
3C0F00
3C1E00
3C3C00
FFE000
ENDCHAR
STARTCHAR E
ENCODING 69
SWIDTH 629 0
DWIDTH 16 0
BBX 14 18 1 0
BITMAP
FFF8
3C38
3C18
3C18
3C08
3C00
3C20
3C60
3FE0
3C60
3C20
3C00
3C00
3C0C
3C0C
3C0C
3C1C
FFF8
ENDCHAR
STARTCHAR F
ENCODING 70
SWIDTH 593 0
DWIDTH 15 0
BBX 13 18 1 0
BITMAP
FFF8
3C38
3C18
3C08
3C00
3C00
3C10
3C10
3C30
3FF0
3C30
3C10
3C00
3C00
3C00
3C00
3C00
FF00
ENDCHAR
STARTCHAR G
ENCODING 71
SWIDTH 726 0
DWIDTH 18 0
BBX 16 18 1 0
BITMAP
03F8
0E1E
3C06
3806
7802
7000
F000
F000
F000
F000
F07F
F01E
701E
781E
781E
3C1E
1E1E
07F0
ENDCHAR
STARTCHAR H
ENCODING 72
SWIDTH 807 0
DWIDTH 20 0
BBX 18 18 1 0
BITMAP
FF3FC0
3C0F00
3C0F00
3C0F00
3C0F00
3C0F00
3C0F00
3C0F00
3FFF00
3C0F00
3C0F00
3C0F00
3C0F00
3C0F00
3C0F00
3C0F00
3C0F00
FF3FC0
ENDCHAR
STARTCHAR I
ENCODING 73
SWIDTH 384 0
DWIDTH 10 0
BBX 8 18 1 0
BITMAP
FF
3C
3C
3C
3C
3C
3C
3C
3C
3C
3C
3C
3C
3C
3C
3C
3C
FF
ENDCHAR
STARTCHAR J
ENCODING 74
SWIDTH 386 0
DWIDTH 10 0
BBX 9 20 0 -2
BITMAP
7F80
1E00
1E00
1E00
1E00
1E00
1E00
1E00
1E00
1E00
1E00
1E00
1E00
1E00
1E00
1E00
1C00
3C00
3C00
E000
ENDCHAR
STARTCHAR K
ENCODING 75
SWIDTH 707 0
DWIDTH 18 0
BBX 17 18 1 0
BITMAP
FF1F80
3C0E00
3C1C00
3C3800
3C3000
3C6000
3CC000
3DC000
3FC000
3FE000
3DF000
3DF000
3CF800
3C7C00
3C7C00
3C3E00
3C1F00
FF0780
ENDCHAR
STARTCHAR L
ENCODING 76
SWIDTH 585 0
DWIDTH 15 0
BBX 14 18 1 0
BITMAP
FF00
3C00
3C00
3C00
3C00
3C00
3C00
3C00
3C00
3C00
3C00
3C00
3C00
3C04
3C0C
3C0C
3C1C
FFF8
ENDCHAR
STARTCHAR M
ENCODING 77
SWIDTH 918 0
DWIDTH 23 0
BBX 22 18 0 0
BITMAP
FE01FC
3E01F0
3F01F0
3F03F0
3782F0
3786F0
3786F0
33C4F0
33CCF0
33CCF0
31E8F0
31F8F0
31F8F0
30F0F0
30F0F0
3070F0
3060F0
FC63FC
ENDCHAR
STARTCHAR N
ENCODING 78
SWIDTH 739 0
DWIDTH 18 0
BBX 18 18 0 0
BITMAP
FE0FC0
3E0300
3F0300
3F0300
378300
37C300
33C300
33E300
31F300
30F300
30FB00
307B00
303F00
303F00
301F00
301F00
300F00
FC0700
ENDCHAR
STARTCHAR O
ENCODING 79
SWIDTH 768 0
DWIDTH 19 0
BBX 17 18 1 0
BITMAP
03E000
1E3C00
3C1E00
780F00
780F00
F00700
F00780
F00780
F00780
F00780
F00780
F00780
F00700
780F00
780F00
3C1E00
1E3C00
03E000
ENDCHAR
STARTCHAR P
ENCODING 80
SWIDTH 650 0
DWIDTH 16 0
BBX 14 18 1 0
BITMAP
FFE0
3C78
3C78
3C3C
3C3C
3C3C
3C3C
3C3C
3C78
3C70
3FE0
3C00
3C00
3C00
3C00
3C00
3C00
FF00
ENDCHAR
STARTCHAR Q
ENCODING 81
SWIDTH 768 0
DWIDTH 19 0
BBX 17 23 1 -5
BITMAP
03E000
1E3C00
3C1E00
780F00
780F00
F00700
F00780
F00780
F00780
F00780
F00780
F00780
F00780
780F00
780F00
3C1E00
1E3C00
07F800
01F000
00F800
00FC00
003E00
000F00
ENDCHAR
STARTCHAR R
ENCODING 82
SWIDTH 684 0
DWIDTH 17 0
BBX 16 18 1 0
BITMAP
FFE0
3C78
3C7C
3C3C
3C3C
3C3C
3C3C
3C78
3C70
3FC0
3CF0
3C78
3C78
3C78
3C3C
3C3C
3C3C
FF1F
ENDCHAR
STARTCHAR S
ENCODING 83
SWIDTH 561 0
DWIDTH 14 0
BBX 12 18 1 0
BITMAP
1FC0
38E0
7060
F020
F020
F800
FC00
7F00
3FC0
1FE0
07E0
01F0
80F0
80F0
C0F0
E0E0
F1C0
3F00
ENDCHAR
STARTCHAR T
ENCODING 84
SWIDTH 624 0
DWIDTH 16 0
BBX 14 18 0 0
BITMAP
FFFC
C78C
C78C
8784
8784
0780
0780
0780
0780
0780
0780
0780
0780
0780
0780
0780
0780
1FE0
ENDCHAR
STARTCHAR U
ENCODING 85
SWIDTH 786 0
DWIDTH 20 0
BBX 18 18 1 0
BITMAP
FF3FC0
3C0F00
3C0F00
3C0F00
3C0F00
3C0F00
3C0F00
3C0F00
3C0F00
3C0F00
3C0F00
3C0F00
3C0F00
3C0F00
3C0F00
1E1E00
0E1C00
03F000
ENDCHAR
STARTCHAR V
ENCODING 86
SWIDTH 645 0
DWIDTH 16 0
BBX 17 18 0 0
BITMAP
FE1F80
3C0600
3C0600
3C0600
1E0C00
1E0C00
1E0C00
0F0800
0F1800
0F1800
071000
07B000
07B000
07A000
03E000
03E000
03C000
01C000
ENDCHAR
STARTCHAR W
ENCODING 87
SWIDTH 933 0
DWIDTH 23 0
BBX 24 18 0 0
BITMAP
FE003F
3C1C0C
3C1C0C
3C1E0C
3C1E08
1E3E18
1E3E18
1E3F18
0E2710
0E6730
0E6730
0F67B0
0743A0
07C3A0
07C3E0
07C3E0
0381C0
0381C0
ENDCHAR
STARTCHAR X
ENCODING 88
SWIDTH 634 0
DWIDTH 16 0
BBX 18 18 -1 0
BITMAP
7F1F80
1E0600
1E0C00
0F0C00
0F9800
07F000
03F000
03E000
01E000
01F000
03F800
037800
077C00
063C00
0C3E00
1C1E00
3C1F00
FE3FC0
ENDCHAR
STARTCHAR Y
ENCODING 89
SWIDTH 617 0
DWIDTH 15 0
BBX 16 18 0 0
BITMAP
FF3F
3C0C
3C0C
1E18
1E18
0F10
0F30
0F20
07E0
07C0
03C0
03C0
03C0
03C0
03C0
03C0
03C0
0FF0
ENDCHAR
STARTCHAR Z
ENCODING 90
SWIDTH 614 0
DWIDTH 15 0
BBX 15 18 0 0
BITMAP
7FFE
707C
607C
40F8
41F0
01F0
03E0
03C0
07C0
0F80
0F80
1F00
3E00
3E06
7C06
780E
F81C
FFFC
ENDCHAR
STARTCHAR bracketleft
ENCODING 91
SWIDTH 335 0
DWIDTH 8 0
BBX 4 21 3 -3
BITMAP
F0
C0
C0
C0
C0
C0
C0
C0
C0
C0
C0
C0
C0
C0
C0
C0
C0
C0
C0
C0
F0
ENDCHAR
STARTCHAR backslash
ENCODING 92
SWIDTH 379 0
DWIDTH 9 0
BBX 8 18 1 0
BITMAP
E0
60
60
70
70
30
38
38
18
18
1C
1C
0C
0E
0E
06
06
07
ENDCHAR
STARTCHAR bracketright
ENCODING 93
SWIDTH 335 0
DWIDTH 8 0
BBX 4 21 1 -3
BITMAP
F0
30
30
30
30
30
30
30
30
30
30
30
30
30
30
30
30
30
30
30
F0
ENDCHAR
STARTCHAR asciicircum
ENCODING 94
SWIDTH 600 0
DWIDTH 15 0
BBX 12 11 1 6
BITMAP
0600
0F00
0F00
1F80
1980
1980
39C0
30C0
70E0
6060
E070
ENDCHAR
STARTCHAR underscore
ENCODING 95
SWIDTH 500 0
DWIDTH 12 0
BBX 12 1 0 -3
BITMAP
FFF0
ENDCHAR
STARTCHAR grave
ENCODING 96
SWIDTH 430 0
DWIDTH 11 0
BBX 7 6 1 13
BITMAP
40
E0
70
38
0C
02
ENDCHAR
STARTCHAR a
ENCODING 97
SWIDTH 544 0
DWIDTH 14 0
BBX 13 13 1 0
BITMAP
0F80
79C0
F1E0
71E0
21E0
0FE0
39E0
71E0
F1E0
F1E0
F1E0
7FF8
3CE0
ENDCHAR
STARTCHAR b
ENCODING 98
SWIDTH 605 0
DWIDTH 15 0
BBX 13 19 1 0
BITMAP
1800
F800
7800
7800
7800
7800
79C0
7FF0
7CF0
7878
7878
7878
7878
7878
7878
7870
7870
78E0
6FC0
ENDCHAR
STARTCHAR c
ENCODING 99
SWIDTH 494 0
DWIDTH 12 0
BBX 11 13 1 0
BITMAP
1F80
39E0
79E0
70E0
F000
F000
F000
F000
F000
7820
7C60
3FC0
1F00
ENDCHAR
STARTCHAR d
ENCODING 100
SWIDTH 605 0
DWIDTH 15 0
BBX 14 19 1 0
BITMAP
0030
01F0
00F0
00F0
00F0
00F0
0FF0
38F0
78F0
70F0
F0F0
F0F0
F0F0
F0F0
F0F0
78F0
78F0
3FF0
1CFC
ENDCHAR
STARTCHAR e
ENCODING 101
SWIDTH 519 0
DWIDTH 13 0
BBX 12 13 1 0
BITMAP
0F00
39C0
70E0
70E0
F0F0
F0F0
FFF0
F000
F000
F830
7C20
3FC0
0F80
ENDCHAR
STARTCHAR f
ENCODING 102
SWIDTH 342 0
DWIDTH 9 0
BBX 10 19 0 0
BITMAP
0780
19C0
19C0
3C80
3C00
3C00
7F00
3C00
3C00
3C00
3C00
3C00
3C00
3C00
3C00
3C00
3C00
3C00
FF00
ENDCHAR
STARTCHAR g
ENCODING 103
SWIDTH 533 0
DWIDTH 13 0
BBX 12 19 1 -6
BITMAP
1F30
7BF0
F1C0
F1E0
F1E0
F1E0
71C0
3BC0
7F00
E000
FFC0
7FE0
3FF0
60F0
E070
E070
E060
78C0
1F00
ENDCHAR
STARTCHAR h
ENCODING 104
SWIDTH 631 0
DWIDTH 16 0
BBX 16 19 0 0
BITMAP
0C00
7C00
3C00
3C00
3C00
3C00
3CF0
3FF8
3E3C
3C3C
3C3C
3C3C
3C3C
3C3C
3C3C
3C3C
3C3C
3C3C
FE7F
ENDCHAR
STARTCHAR i
ENCODING 105
SWIDTH 316 0
DWIDTH 8 0
BBX 8 18 0 0
BITMAP
18
3C
3E
1C
00
1C
7C
3C
3C
3C
3C
3C
3C
3C
3C
3C
3C
FF
ENDCHAR
STARTCHAR j
ENCODING 106
SWIDTH 316 0
DWIDTH 8 0
BBX 8 24 -1 -6
BITMAP
06
0F
1F
0E
00
0E
3E
1E
1E
1E
1E
1E
1E
1E
1E
1E
1E
1E
1E
1E
1C
3C
78
E0
ENDCHAR
STARTCHAR k
ENCODING 107
SWIDTH 582 0
DWIDTH 15 0
BBX 15 19 0 0
BITMAP
0C00
7C00
3C00
3C00
3C00
3C00
3C3C
3C78
3CE0
3CC0
3D80
3F80
3FC0
3FE0
3DE0
3CF0
3CF8
3C7C
FF3E
ENDCHAR
STARTCHAR l
ENCODING 108
SWIDTH 309 0
DWIDTH 8 0
BBX 8 19 0 0
BITMAP
0C
7C
3C
3C
3C
3C
3C
3C
3C
3C
3C
3C
3C
3C
3C
3C
3C
3C
FF
ENDCHAR
STARTCHAR m
ENCODING 109
SWIDTH 948 0
DWIDTH 24 0
BBX 24 13 0 0
BITMAP
1CF0F0
7FFBF8
3E7E7C
3C3C3C
3C3C3C
3C3C3C
3C3C3C
3C3C3C
3C3C3C
3C3C3C
3C3C3C
3C3C3C
FE7E7F
ENDCHAR
STARTCHAR n
ENCODING 110
SWIDTH 638 0
DWIDTH 16 0
BBX 16 13 0 0
BITMAP
1CF0
7FF8
3E3C
3C3C
3C3C
3C3C
3C3C
3C3C
3C3C
3C3C
3C3C
3C3C
FE7F
ENDCHAR
STARTCHAR o
ENCODING 111
SWIDTH 585 0
DWIDTH 15 0
BBX 13 13 1 0
BITMAP
0F80
38E0
78F0
7070
F078
F078
F078
F078
F078
7070
78F0
38E0
0F80
ENDCHAR
STARTCHAR p
ENCODING 112
SWIDTH 615 0
DWIDTH 15 0
BBX 15 19 0 -6
BITMAP
1C70
7DFC
3E3C
3C3E
3C1E
3C1E
3C1E
3C1E
3C1E
3C1C
3C3C
3E38
3FE0
3C00
3C00
3C00
3C00
3C00
FF00
ENDCHAR
STARTCHAR q
ENCODING 113
SWIDTH 597 0
DWIDTH 15 0
BBX 14 19 1 -6
BITMAP
0FB0
38F0
78F0
70F0
F0F0
F0F0
F0F0
F0F0
F0F0
78F0
78F0
3FF0
1EF0
00F0
00F0
00F0
00F0
00F0
03FC
ENDCHAR
STARTCHAR r
ENCODING 114
SWIDTH 440 0
DWIDTH 11 0
BBX 11 13 0 0
BITMAP
1CC0
7DE0
3FE0
3CC0
3C00
3C00
3C00
3C00
3C00
3C00
3C00
3C00
FF00
ENDCHAR
STARTCHAR s
ENCODING 115
SWIDTH 446 0
DWIDTH 11 0
BBX 9 13 1 0
BITMAP
3F00
6380
E180
F080
F800
7E00
3F00
1F00
8780
8380
C380
E300
7E00
ENDCHAR
STARTCHAR t
ENCODING 116
SWIDTH 370 0
DWIDTH 9 0
BBX 8 16 1 0
BITMAP
18
38
38
FE
78
78
78
78
78
78
78
78
78
78
3F
1C
ENDCHAR
STARTCHAR u
ENCODING 117
SWIDTH 629 0
DWIDTH 16 0
BBX 15 13 1 0
BITMAP
3838
F8F8
7878
7878
7878
7878
7878
7878
7878
7878
7CF8
3FF8
1E7E
ENDCHAR
STARTCHAR v
ENCODING 118
SWIDTH 520 0
DWIDTH 13 0
BBX 14 13 0 0
BITMAP
FE7C
7838
3C30
3C30
3C20
1E60
1E60
1E40
0EC0
0FC0
0780
0780
0700
ENDCHAR
STARTCHAR w
ENCODING 119
SWIDTH 774 0
DWIDTH 19 0
BBX 20 13 0 0
BITMAP
FC71F0
7870E0
3878C0
3C78C0
3CF880
1CFC80
1CBD80
1E9D80
0F9D00
0F1F00
0F0F00
0F0E00
070E00
ENDCHAR
STARTCHAR x
ENCODING 120
SWIDTH 522 0
DWIDTH 13 0
BBX 15 13 -1 0
BITMAP
7E7C
3C30
1E60
0F60
0FC0
0780
07C0
07C0
07E0
0CF0
18F8
3878
FCFE
ENDCHAR
STARTCHAR y
ENCODING 121
SWIDTH 524 0
DWIDTH 13 0
BBX 14 19 0 -6
BITMAP
FE7C
7C38
3C30
3C30
1E20
1E60
0E60
0F40
0FC0
0780
0780
0380
0300
0300
0300
3200
3C00
7C00
3800
ENDCHAR
STARTCHAR z
ENCODING 122
SWIDTH 483 0
DWIDTH 12 0
BBX 12 13 0 0
BITMAP
7FF0
61E0
63E0
47C0
0780
0F80
0F00
1F00
3E00
3C30
7C30
F870
FFF0
ENDCHAR
STARTCHAR braceleft
ENCODING 123
SWIDTH 365 0
DWIDTH 9 0
BBX 6 21 2 -3
BITMAP
1C
30
30
30
30
30
30
30
30
20
C0
30
30
30
30
30
30
30
30
30
1C
ENDCHAR
STARTCHAR bar
ENCODING 124
SWIDTH 284 0
DWIDTH 7 0
BBX 2 18 3 0
BITMAP
C0
C0
C0
C0
C0
C0
C0
C0
C0
C0
C0
C0
C0
C0
C0
C0
C0
C0
ENDCHAR
STARTCHAR braceright
ENCODING 125
SWIDTH 365 0
DWIDTH 9 0
BBX 6 21 1 -3
BITMAP
E0
30
30
30
30
30
30
30
30
30
0C
18
30
30
30
30
30
30
30
30
E0
ENDCHAR
STARTCHAR asciitilde
ENCODING 126
SWIDTH 600 0
DWIDTH 15 0
BBX 13 5 1 4
BITMAP
0010
3F18
7FF0
C3E0
4000
ENDCHAR
STARTCHAR space
ENCODING 160
SWIDTH 210 0
DWIDTH 5 0
BBX 0 0 0 0
BITMAP
ENDCHAR
STARTCHAR exclamdown
ENCODING 161
SWIDTH 278 0
DWIDTH 7 0
BBX 5 18 1 -5
BITMAP
70
F0
F8
70
20
00
20
70
70
70
70
70
70
70
F8
F8
F8
70
ENDCHAR
STARTCHAR cent
ENCODING 162
SWIDTH 560 0
DWIDTH 14 0
BBX 13 17 1 0
BITMAP
0100
0100
0FC0
3D70
7978
7130
F100
F100
F100
F100
F100
7910
7918
3D30
0FC0
0100
0100
ENDCHAR
STARTCHAR sterling
ENCODING 163
SWIDTH 560 0
DWIDTH 14 0
BBX 13 17 1 0
BITMAP
0F80
3DE0
38F0
7860
7840
7800
7C00
3C00
3E00
FFC0
0E00
0E00
0E00
1C18
7FF8
FFF0
FFF0
ENDCHAR
STARTCHAR currency
ENCODING 164
SWIDTH 560 0
DWIDTH 14 0
BBX 12 13 1 2
BITMAP
4020
CF30
FFF0
70E0
70E0
E070
E070
E070
70E0
70E0
FFF0
CF30
4020
ENDCHAR
STARTCHAR yen
ENCODING 165
SWIDTH 560 0
DWIDTH 14 0
BBX 14 17 0 0
BITMAP
FEFC
7C30
3C30
1E60
1E60
0E40
0FC0
7FF8
0780
0780
0780
7FF8
0780
0780
0780
0780
1FE0
ENDCHAR
STARTCHAR brokenbar
ENCODING 166
SWIDTH 284 0
DWIDTH 7 0
BBX 2 18 3 0
BITMAP
C0
C0
C0
C0
C0
C0
C0
00
00
00
C0
C0
C0
C0
C0
C0
C0
C0
ENDCHAR
STARTCHAR section
ENCODING 167
SWIDTH 566 0
DWIDTH 14 0
BBX 12 21 1 -3
BITMAP
0F00
13C0
31C0
3000
3C00
7E00
4F80
CFC0
C3E0
E1F0
F0F0
7870
3E30
1F20
0FA0
07E0
01C0
10C0
38C0
3880
0F00
ENDCHAR
STARTCHAR dieresis
ENCODING 168
SWIDTH 430 0
DWIDTH 11 0
BBX 10 4 0 14
BITMAP
6180
F3C0
F3C0
6180
ENDCHAR
STARTCHAR copyright
ENCODING 169
SWIDTH 800 0
DWIDTH 20 0
BBX 18 18 1 0
BITMAP
01E000
0FF800
1C0E00
380700
71E380
671980
460880
CE00C0
CE00C0
CE00C0
CE08C0
460880
671980
61E380
300700
1C0E00
0FF800
01E000
ENDCHAR
STARTCHAR ordfeminine
ENCODING 170
SWIDTH 405 0
DWIDTH 10 0
BBX 9 8 1 7
BITMAP
3E00
E700
4700
3F00
7700
E700
E700
7B80
ENDCHAR
STARTCHAR guillemotleft
ENCODING 171
SWIDTH 487 0
DWIDTH 12 0
BBX 10 11 1 1
BITMAP
0840
18C0
3180
3380
6300
E700
6300
3380
3180
18C0
0840
ENDCHAR
STARTCHAR logicalnot
ENCODING 172
SWIDTH 600 0
DWIDTH 15 0
BBX 12 7 1 3
BITMAP
FFF0
FFF0
0030
0030
0030
0030
0030
ENDCHAR
STARTCHAR hyphen
ENCODING 173
SWIDTH 392 0
DWIDTH 10 0
BBX 7 2 1 5
BITMAP
FE
FE
ENDCHAR
STARTCHAR registered
ENCODING 174
SWIDTH 800 0
DWIDTH 20 0
BBX 18 18 1 0
BITMAP
01E000
0FF800
1C0E00
380700
37E300
633180
633880
C338C0
C330C0
C3E0C0
C370C0
C330C0
633980
779F80
300700
1C0E00
0FFC00
01E000
ENDCHAR
STARTCHAR macron
ENCODING 175
SWIDTH 430 0
DWIDTH 11 0
BBX 8 2 1 15
BITMAP
FF
FF
ENDCHAR
STARTCHAR degree
ENCODING 176
SWIDTH 396 0
DWIDTH 10 0
BBX 8 8 1 9
BITMAP
3C
66
C3
C3
C3
C3
66
3C
ENDCHAR
STARTCHAR plusminus
ENCODING 177
SWIDTH 600 0
DWIDTH 15 0
BBX 12 13 2 0
BITMAP
0600
0600
0600
0600
FFF0
FFF0
0600
0600
0600
0600
0000
FFF0
FFF0
ENDCHAR
STARTCHAR twosuperior
ENCODING 178
SWIDTH 402 0
DWIDTH 10 0
BBX 9 10 1 7
BITMAP
3C00
6700
E700
6700
0E00
1C00
3800
6080
FF00
FF00
ENDCHAR
STARTCHAR threesuperior
ENCODING 179
SWIDTH 402 0
DWIDTH 10 0
BBX 8 10 1 7
BITMAP
3E
E7
67
06
3C
07
47
E7
E6
7C
ENDCHAR
STARTCHAR acute
ENCODING 180
SWIDTH 430 0
DWIDTH 11 0
BBX 7 6 3 13
BITMAP
04
0E
1C
38
60
80
ENDCHAR
STARTCHAR mu
ENCODING 181
SWIDTH 629 0
DWIDTH 16 0
BBX 15 19 1 -6
BITMAP
3838
F8F8
7878
7878
7878
7878
7878
7878
7878
7878
7CF8
7FF8
6E7E
6000
7000
7000
7800
7000
6000
ENDCHAR
STARTCHAR paragraph
ENCODING 182
SWIDTH 552 0
DWIDTH 14 0
BBX 12 20 1 -2
BITMAP
1CF0
3CC0
7CC0
FCC0
FCC0
FCC0
FCC0
FCC0
7CC0
7CC0
1CC0
04C0
00C0
00C0
00C0
00C0
00C0
00C0
00C0
03C0
ENDCHAR
STARTCHAR periodcentered
ENCODING 183
SWIDTH 280 0
DWIDTH 7 0
BBX 5 5 1 4
BITMAP
20
70
F8
70
20
ENDCHAR
STARTCHAR cedilla
ENCODING 184
SWIDTH 430 0
DWIDTH 11 0
BBX 5 6 4 -6
BITMAP
60
60
F8
38
38
E0
ENDCHAR
STARTCHAR onesuperior
ENCODING 185
SWIDTH 402 0
DWIDTH 10 0
BBX 7 10 1 7
BITMAP
38
F8
38
38
38
38
38
38
38
FE
ENDCHAR
STARTCHAR ordmasculine
ENCODING 186
SWIDTH 427 0
DWIDTH 11 0
BBX 9 8 1 7
BITMAP
3E00
7700
E380
E380
E380
E380
7700
3E00
ENDCHAR
STARTCHAR guillemotright
ENCODING 187
SWIDTH 487 0
DWIDTH 12 0
BBX 10 11 1 1
BITMAP
8400
C600
6300
7300
3180
39C0
3180
7300
6300
C600
8400
ENDCHAR
STARTCHAR onequarter
ENCODING 188
SWIDTH 900 0
DWIDTH 22 0
BBX 20 19 1 -1
BITMAP
000200
380300
F80600
380400
380C00
380800
381800
381000
3831C0
3823C0
FE63C0
0045C0
00CDC0
0089C0
0199C0
011FF0
0301C0
0603E0
020000
ENDCHAR
STARTCHAR onehalf
ENCODING 189
SWIDTH 900 0
DWIDTH 22 0
BBX 21 18 1 0
BITMAP
000200
380600
F80400
380C00
380800
381800
381000
383000
3823C0
386670
FE4E70
00C670
0080E0
0101C0
010380
020608
020FF0
040FF0
ENDCHAR
STARTCHAR threequarters
ENCODING 190
SWIDTH 900 0
DWIDTH 22 0
BBX 20 19 1 -1
BITMAP
000200
3E0600
E70600
670E00
060C00
3C1C00
071800
473800
E731C0
E663C0
7C63C0
00C5C0
00CDC0
0189C0
0199C0
031FF0
0301C0
0603E0
020000
ENDCHAR
STARTCHAR questiondown
ENCODING 191
SWIDTH 456 0
DWIDTH 11 0
BBX 10 18 1 -5
BITMAP
0C00
1E00
1E00
1E00
0800
0000
1C00
7F00
0F00
0F00
1E00
3C00
7800
F100
F1C0
F3C0
7380
1F00
ENDCHAR
STARTCHAR Agrave
ENCODING 192
SWIDTH 644 0
DWIDTH 16 0
BBX 17 23 -1 0
BITMAP
060000
0F0000
07C000
00E000
000000
01C000
01E000
03E000
03E000
02F000
06F000
06F000
04F000
047800
0C7800
0C7800
0FFC00
183C00
183C00
301E00
301E00
301E00
FC7F80
ENDCHAR
STARTCHAR Aacute
ENCODING 193
SWIDTH 644 0
DWIDTH 16 0
BBX 17 23 -1 0
BITMAP
003800
007800
00F000
038000
000000
01C000
01E000
03E000
03E000
02F000
06F000
06F000
04F000
047800
0C7800
0C7800
0FFC00
183C00
183C00
301E00
301E00
301E00
FC7F80
ENDCHAR
STARTCHAR Acircumflex
ENCODING 194
SWIDTH 644 0
DWIDTH 16 0
BBX 17 23 -1 0
BITMAP
008000
01E000
03F000
0E1800
000000
01C000
01E000
03E000
03E000
02F000
06F000
06F000
04F000
047800
0C7800
0C7800
0FFC00
183C00
183C00
301E00
301E00
301E00
FC7F80
ENDCHAR
STARTCHAR Atilde
ENCODING 195
SWIDTH 644 0
DWIDTH 16 0
BBX 17 22 -1 0
BITMAP
038000
07C400
087C00
003800
01C000
01E000
03E000
03E000
02F000
06F000
06F000
04F000
047800
0C7800
0C7800
0FFC00
183C00
183C00
301E00
301E00
301E00
FC7F80
ENDCHAR
STARTCHAR Adieresis
ENCODING 196
SWIDTH 644 0
DWIDTH 16 0
BBX 18 22 -1 0
BITMAP
061800
0F3C00
0F3C00
061800
01E000
01E000
01F000
03F000
03F000
02F800
067800
067800
047C00
0C3C00
0C3C00
0FFE00
181E00
181E00
101F00
300F00
300F00
FC3FC0
ENDCHAR
STARTCHAR Aring
ENCODING 197
SWIDTH 644 0
DWIDTH 16 0
BBX 18 22 -1 0
BITMAP
01E000
033000
033000
033000
01E000
01E000
01E000
01F000
03F000
03F000
027800
067800
067800
047C00
0C3C00
0FFC00
181E00
181E00
100F00
300F00
300F00
FC3FC0
ENDCHAR
STARTCHAR AE
ENCODING 198
SWIDTH 879 0
DWIDTH 22 0
BBX 24 18 -2 0
BITMAP
01FFFE
007E0E
00DE06
00DE06
019E02
019E00
031E08
031E18
03FFF8
061E18
041E08
0C1E00
081E00
181E03
181E03
301E03
301E07
FC7FFE
ENDCHAR
STARTCHAR Ccedilla
ENCODING 199
SWIDTH 689 0
DWIDTH 17 0
BBX 15 24 1 -6
BITMAP
03F8
1E0E
3C06
7806
7802
7000
F000
F000
F000
F000
F000
F000
F002
7802
7806
3C06
0F0E
03F8
00C0
01C0
01F0
0070
0070
03C0
ENDCHAR
STARTCHAR Egrave
ENCODING 200
SWIDTH 629 0
DWIDTH 16 0
BBX 14 23 1 0
BITMAP
1800
1E00
0F00
01C0
0000
FFF8
3C38
3C18
3C18
3C08
3C00
3C20
3C60
3FE0
3C60
3C20
3C00
3C00
3C0C
3C0C
3C0C
3C1C
FFF8
ENDCHAR
STARTCHAR Eacute
ENCODING 201
SWIDTH 629 0
DWIDTH 16 0
BBX 14 23 1 0
BITMAP
0070
00F0
01E0
0700
0000
FFF8
3C38
3C18
3C18
3C08
3C00
3C20
3C60
3FE0
3C60
3C20
3C00
3C00
3C0C
3C0C
3C0C
3C1C
FFF8
ENDCHAR
STARTCHAR Ecircumflex
ENCODING 202
SWIDTH 629 0
DWIDTH 16 0
BBX 14 23 1 0
BITMAP
0100
03C0
0FE0
1C30
0000
FFF8
3C38
3C18
3C18
3C08
3C00
3C20
3C60
3FE0
3C60
3C20
3C00
3C00
3C0C
3C0C
3C0C
3C1C
FFF8
ENDCHAR
STARTCHAR Edieresis
ENCODING 203
SWIDTH 629 0
DWIDTH 16 0
BBX 14 22 1 0
BITMAP
1860
3CF0
3CF0
1860
FFF8
3C38
3C18
3C18
3C08
3C00
3C20
3C60
3FE0
3C60
3C20
3C00
3C00
3C0C
3C0C
3C0C
3C1C
FFF8
ENDCHAR
STARTCHAR Igrave
ENCODING 204
SWIDTH 384 0
DWIDTH 10 0
BBX 9 23 0 0
BITMAP
6000
F800
3C00
0700
0000
7F80
1E00
1E00
1E00
1E00
1E00
1E00
1E00
1E00
1E00
1E00
1E00
1E00
1E00
1E00
1E00
1E00
7F80
ENDCHAR
STARTCHAR Iacute
ENCODING 205
SWIDTH 384 0
DWIDTH 10 0
BBX 8 23 1 0
BITMAP
03
0F
1E
70
00
FF
3C
3C
3C
3C
3C
3C
3C
3C
3C
3C
3C
3C
3C
3C
3C
3C
FF
ENDCHAR
STARTCHAR Icircumflex
ENCODING 206
SWIDTH 384 0
DWIDTH 10 0
BBX 10 23 0 0
BITMAP
0C00
1E00
3F00
E1C0
0000
7F80
1E00
1E00
1E00
1E00
1E00
1E00
1E00
1E00
1E00
1E00
1E00
1E00
1E00
1E00
1E00
1E00
7F80
ENDCHAR
STARTCHAR Idieresis
ENCODING 207
SWIDTH 384 0
DWIDTH 10 0
BBX 10 22 0 0
BITMAP
6180
F3C0
F3C0
6180
7F80
1E00
1E00
1E00
1E00
1E00
1E00
1E00
1E00
1E00
1E00
1E00
1E00
1E00
1E00
1E00
1E00
7F80
ENDCHAR
STARTCHAR Eth
ENCODING 208
SWIDTH 783 0
DWIDTH 20 0
BBX 17 18 1 0
BITMAP
FFF000
3C3C00
3C1E00
3C0F00
3C0F00
3C0780
3C0780
3C0780
FF8780
3C0780
3C0780
3C0780
3C0700
3C0F00
3C0F00
3C1E00
3C3C00
FFE000
ENDCHAR
STARTCHAR Ntilde
ENCODING 209
SWIDTH 739 0
DWIDTH 18 0
BBX 18 22 0 0
BITMAP
038000
07C600
087C00
003800
FE0FC0
3E0300
3F0300
3F0300
378300
37C300
33C300
33E300
31F300
30F300
30FB00
307B00
303F00
303F00
301F00
301F00
300F00
FC0700
ENDCHAR
STARTCHAR Ograve
ENCODING 210
SWIDTH 768 0
DWIDTH 19 0
BBX 17 23 1 0
BITMAP
0C0000
1F0000
0F8000
01E000
002000
03E000
1E3C00
3C1E00
780F00
780F00
F00700
F00780
F00780
F00780
F00780
F00780
F00780
F00700
780F00
780F00
3C1E00
1E3C00
03E000
ENDCHAR
STARTCHAR Oacute
ENCODING 211
SWIDTH 768 0
DWIDTH 19 0
BBX 17 23 1 0
BITMAP
001800
007800
00F800
03C000
020000
03E000
1E3C00
3C1E00
780F00
780F00
F00700
F00780
F00780
F00780
F00780
F00780
F00780
F00700
780F00
780F00
3C1E00
1E3C00
03E000
ENDCHAR
STARTCHAR Ocircumflex
ENCODING 212
SWIDTH 768 0
DWIDTH 19 0
BBX 17 23 1 0
BITMAP
008000
03E000
07F000
0E3800
100400
03E000
1E3C00
3C1E00
780F00
780F00
F00700
F00780
F00780
F00780
F00780
F00780
F00780
F00700
780F00
780F00
3C1E00
1E3C00
03E000
ENDCHAR
STARTCHAR Otilde
ENCODING 213
SWIDTH 768 0
DWIDTH 19 0
BBX 17 22 1 0
BITMAP
070000
0F8400
087800
003000
03E000
1E3C00
3C1E00
780F00
780F00
F00700
F00780
F00780
F00780
F00780
F00780
F00780
F00700
780F00
780F00
3C1E00
1E3C00
03E000
ENDCHAR
STARTCHAR Odieresis
ENCODING 214
SWIDTH 768 0
DWIDTH 19 0
BBX 17 22 1 0
BITMAP
0C1800
1E3C00
1E3C00
0C1800
03E000
1E3C00
3C1E00
780F00
780F00
F00700
F00780
F00780
F00780
F00780
F00780
F00780
F00700
780F00
780F00
3C1E00
1E3C00
03E000
ENDCHAR
STARTCHAR multiply
ENCODING 215
SWIDTH 600 0
DWIDTH 15 0
BBX 11 11 2 1
BITMAP
4040
E0E0
71C0
3B80
1F00
0E00
1F00
3B80
71C0
E0E0
4040
ENDCHAR
STARTCHAR Oslash
ENCODING 216
SWIDTH 768 0
DWIDTH 19 0
BBX 17 20 1 -1
BITMAP
000600
03F400
1E3C00
3C0E00
781F00
783F00
F02700
F06780
F0C780
F0C780
F18780
F10780
F30780
760700
7E0F00
7C0F00
381E00
1C3C00
17E000
300000
ENDCHAR
STARTCHAR Ugrave
ENCODING 217
SWIDTH 786 0
DWIDTH 20 0
BBX 18 23 1 0
BITMAP
060000
0F0000
07C000
00E000
000000
FF3FC0
3C0F00
3C0F00
3C0F00
3C0F00
3C0F00
3C0F00
3C0F00
3C0F00
3C0F00
3C0F00
3C0F00
3C0F00
3C0F00
3C0F00
1E1E00
0E1C00
03F000
ENDCHAR
STARTCHAR Uacute
ENCODING 218
SWIDTH 786 0
DWIDTH 20 0
BBX 18 23 1 0
BITMAP
001800
003C00
00F800
01C000
000000
FF3FC0
3C0F00
3C0F00
3C0F00
3C0F00
3C0F00
3C0F00
3C0F00
3C0F00
3C0F00
3C0F00
3C0F00
3C0F00
3C0F00
3C0F00
1E1E00
0E1C00
03F000
ENDCHAR
STARTCHAR Ucircumflex
ENCODING 219
SWIDTH 786 0
DWIDTH 20 0
BBX 18 23 1 0
BITMAP
00C000
01E000
03F000
0E1C00
000000
FF3FC0
3C0F00
3C0F00
3C0F00
3C0F00
3C0F00
3C0F00
3C0F00
3C0F00
3C0F00
3C0F00
3C0F00
3C0F00
3C0F00
3C0F00
1E1E00
0E1C00
03F000
ENDCHAR
STARTCHAR Udieresis
ENCODING 220
SWIDTH 786 0
DWIDTH 20 0
BBX 18 22 1 0
BITMAP
061800
0F3C00
0F3C00
061800
FF3FC0
3C0F00
3C0F00
3C0F00
3C0F00
3C0F00
3C0F00
3C0F00
3C0F00
3C0F00
3C0F00
3C0F00
3C0F00
3C0F00
3C0F00
1E1E00
0E1C00
03F000
ENDCHAR
STARTCHAR Yacute
ENCODING 221
SWIDTH 617 0
DWIDTH 15 0
BBX 16 23 0 0
BITMAP
0038
0078
00F0
0380
0000
FF3F
3C0C
3C0C
1E18
1E18
0F10
0F30
0F20
07E0
07C0
03C0
03C0
03C0
03C0
03C0
03C0
03C0
0FF0
ENDCHAR
STARTCHAR Thorn
ENCODING 222
SWIDTH 640 0
DWIDTH 16 0
BBX 14 18 1 0
BITMAP
FF00
3C00
3C00
3C00
3FE0
3C78
3C38
3C3C
3C3C
3C3C
3C3C
3C38
3C70
3FC0
3C00
3C00
3C00
FF00
ENDCHAR
STARTCHAR germandbls
ENCODING 223
SWIDTH 662 0
DWIDTH 17 0
BBX 15 19 1 0
BITMAP
0FE0
1C78
3C38
383C
783C
7838
7870
78C0
79C0
79C0
79E0
79F8
78FC
787C
783E
781E
788E
79CC
FEF8
ENDCHAR
STARTCHAR agrave
ENCODING 224
SWIDTH 544 0
DWIDTH 14 0
BBX 13 19 1 0
BITMAP
2000
3800
3C00
0E00
0700
0100
0F80
79C0
F1E0
71E0
21E0
0FE0
39E0
71E0
F1E0
F1E0
F1E0
7FF8
3CE0
ENDCHAR
STARTCHAR aacute
ENCODING 225
SWIDTH 544 0
DWIDTH 14 0
BBX 13 19 1 0
BITMAP
0040
01E0
03C0
0700
0E00
0800
0F80
79C0
F1E0
71E0
21E0
0FE0
39E0
71E0
F1E0
F1E0
F1E0
7FF8
3CE0
ENDCHAR
STARTCHAR acircumflex
ENCODING 226
SWIDTH 544 0
DWIDTH 14 0
BBX 13 19 1 0
BITMAP
0400
0F00
1F00
1980
20E0
4040
0F80
79C0
F1E0
71E0
21E0
0FE0
39E0
71E0
F1E0
F1E0
F1E0
7FF8
3CE0
ENDCHAR
STARTCHAR atilde
ENCODING 227
SWIDTH 544 0
DWIDTH 14 0
BBX 13 18 1 0
BITMAP
3820
7E20
43C0
0180
0000
0F80
79C0
F1E0
71E0
21E0
0FE0
39E0
71E0
F1E0
F1E0
F1E0
7FF8
3CE0
ENDCHAR
STARTCHAR adieresis
ENCODING 228
SWIDTH 544 0
DWIDTH 14 0
BBX 13 18 1 0
BITMAP
30C0
79E0
79E0
30C0
0000
0F80
79C0
F1E0
71E0
21E0
0FE0
39E0
71E0
F1E0
F1E0
F1E0
7FF8
3CE0
ENDCHAR
STARTCHAR aring
ENCODING 229
SWIDTH 544 0
DWIDTH 14 0
BBX 13 19 1 0
BITMAP
0F00
1980
1980
1980
0F00
0000
0F80
79C0
71E0
71E0
21E0
0FE0
3DE0
71E0
F1E0
F1E0
F1E0
7FF8
3CE0
ENDCHAR
STARTCHAR ae
ENCODING 230
SWIDTH 806 0
DWIDTH 20 0
BBX 19 13 1 0
BITMAP
1F1E00
79F380
71E1C0
F1E1C0
71E1E0
23E1E0
0FFFE0
79E000
F1E000
F1F060
F1F0C0
7E7F80
3C1F00
ENDCHAR
STARTCHAR ccedilla
ENCODING 231
SWIDTH 494 0
DWIDTH 12 0
BBX 11 19 1 -6
BITMAP
1F00
39C0
71E0
71C0
F000
F000
F000
F000
F000
7860
78C0
3F80
1E00
0400
0C00
0F00
0700
0700
1C00
ENDCHAR
STARTCHAR egrave
ENCODING 232
SWIDTH 519 0
DWIDTH 13 0
BBX 12 19 1 0
BITMAP
3000
3800
3C00
0E00
0300
0080
0F00
39C0
70E0
70E0
F0F0
F0F0
FFF0
F000
F000
F830
7C20
3FC0
0F80
ENDCHAR
STARTCHAR eacute
ENCODING 233
SWIDTH 519 0
DWIDTH 13 0
BBX 12 19 1 0
BITMAP
0040
00E0
01C0
0780
0E00
0800
0F00
39C0
70E0
70E0
F0F0
F0F0
FFF0
F000
F000
F830
7C20
3FC0
0F80
ENDCHAR
STARTCHAR ecircumflex
ENCODING 234
SWIDTH 519 0
DWIDTH 13 0
BBX 12 19 1 0
BITMAP
0200
0F00
0F80
19C0
7040
2020
0F00
39C0
70E0
70E0
F0F0
F0F0
FFF0
F000
F000
F830
7C20
3FC0
0F80
ENDCHAR
STARTCHAR edieresis
ENCODING 235
SWIDTH 519 0
DWIDTH 13 0
BBX 12 18 1 0
BITMAP
30C0
79E0
79E0
30C0
0000
0F00
39C0
70E0
70E0
F0F0
F0F0
FFF0
F000
F000
F830
7860
3FC0
0F80
ENDCHAR
STARTCHAR igrave
ENCODING 236
SWIDTH 316 0
DWIDTH 8 0
BBX 9 19 -1 0
BITMAP
6000
F000
7800
1C00
0600
0200
0E00
3E00
1E00
1E00
1E00
1E00
1E00
1E00
1E00
1E00
1E00
1E00
7F80
ENDCHAR
STARTCHAR iacute
ENCODING 237
SWIDTH 316 0
DWIDTH 8 0
BBX 8 19 0 0
BITMAP
03
07
0E
1C
30
40
1C
7C
3C
3C
3C
3C
3C
3C
3C
3C
3C
3C
FF
ENDCHAR
STARTCHAR icircumflex
ENCODING 238
SWIDTH 316 0
DWIDTH 8 0
BBX 9 19 -1 0
BITMAP
0800
1C00
3E00
7300
C180
8080
0E00
3E00
1E00
1E00
1E00
1E00
1E00
1E00
1E00
1E00
1E00
1E00
7F80
ENDCHAR
STARTCHAR idieresis
ENCODING 239
SWIDTH 316 0
DWIDTH 8 0
BBX 10 18 -1 0
BITMAP
6180
F3C0
F3C0
6180
0000
0E00
3E00
1E00
1E00
1E00
1E00
1E00
1E00
1E00
1E00
1E00
1E00
7F80
ENDCHAR
STARTCHAR eth
ENCODING 240
SWIDTH 585 0
DWIDTH 15 0
BBX 13 19 1 0
BITMAP
3000
3860
1FC0
0F00
7B80
21C0
0FE0
38F0
78F0
7070
F078
F078
F078
F078
F078
7070
78F0
38E0
0F80
ENDCHAR
STARTCHAR ntilde
ENCODING 241
SWIDTH 638 0
DWIDTH 16 0
BBX 16 18 0 0
BITMAP
0E08
1F88
10F0
0060
0000
1CF0
7FF8
3E3C
3C3C
3C3C
3C3C
3C3C
3C3C
3C3C
3C3C
3C3C
3C3C
FE7F
ENDCHAR
STARTCHAR ograve
ENCODING 242
SWIDTH 585 0
DWIDTH 15 0
BBX 13 19 1 0
BITMAP
1000
3800
3C00
0E00
0300
0080
0F80
38E0
78F0
7070
F078
F078
F078
F078
F078
7070
78F0
38E0
0F80
ENDCHAR
STARTCHAR oacute
ENCODING 243
SWIDTH 585 0
DWIDTH 15 0
BBX 13 19 1 0
BITMAP
0040
00E0
01E0
0380
0600
0800
0F80
38E0
78F0
7070
F078
F078
F078
F078
F078
7070
78F0
38E0
0F80
ENDCHAR
STARTCHAR ocircumflex
ENCODING 244
SWIDTH 585 0
DWIDTH 15 0
BBX 13 19 1 0
BITMAP
0200
0700
0F80
18C0
3060
2020
0F80
38E0
78F0
7070
F078
F078
F078
F078
F078
7070
78F0
38E0
0F80
ENDCHAR
STARTCHAR otilde
ENCODING 245
SWIDTH 585 0
DWIDTH 15 0
BBX 13 18 1 0
BITMAP
1C10
3E20
63E0
01C0
0000
0F80
38E0
78F0
7070
F078
F078
F078
F078
F078
7070
78F0
38E0
0F80
ENDCHAR
STARTCHAR odieresis
ENCODING 246
SWIDTH 585 0
DWIDTH 15 0
BBX 13 18 1 0
BITMAP
30C0
79E0
79E0
30C0
0000
0F80
38E0
78F0
7070
F078
F078
F078
F078
F078
7070
78F0
38E0
0F80
ENDCHAR
STARTCHAR divide
ENCODING 247
SWIDTH 600 0
DWIDTH 15 0
BBX 12 12 2 0
BITMAP
0600
0F00
0F00
0600
0000
FFF0
FFF0
0000
0600
0F00
0F00
0600
ENDCHAR
STARTCHAR oslash
ENCODING 248
SWIDTH 585 0
DWIDTH 15 0
BBX 13 15 1 -1
BITMAP
0020
0FA0
38E0
78F0
71F0
F178
F378
F278
F678
F478
7870
78F0
38E0
3F80
2000
ENDCHAR
STARTCHAR ugrave
ENCODING 249
SWIDTH 629 0
DWIDTH 16 0
BBX 15 19 1 0
BITMAP
3000
3800
3C00
0E00
0300
0100
3838
F8F8
7878
7878
7878
7878
7878
7878
7878
7878
7CF8
3FF8
1E7E
ENDCHAR
STARTCHAR uacute
ENCODING 250
SWIDTH 629 0
DWIDTH 16 0
BBX 15 19 1 0
BITMAP
0020
00F0
01E0
0380
0700
0400
3838
F8F8
7878
7878
7878
7878
7878
7878
7878
7878
7CF8
3FF8
1E7E
ENDCHAR
STARTCHAR ucircumflex
ENCODING 251
SWIDTH 629 0
DWIDTH 16 0
BBX 15 19 1 0
BITMAP
0300
0780
0F80
1CC0
1020
2010
3838
F8F8
7878
7878
7878
7878
7878
7878
7878
7878
7CF8
3FF8
1E7E
ENDCHAR
STARTCHAR udieresis
ENCODING 252
SWIDTH 629 0
DWIDTH 16 0
BBX 15 18 1 0
BITMAP
1860
3CF0
3CF0
1860
0000
3838
F8F8
7878
7878
7878
7878
7878
7878
7878
7878
7CF8
3FF8
1E7E
ENDCHAR
STARTCHAR yacute
ENCODING 253
SWIDTH 524 0
DWIDTH 13 0
BBX 14 25 0 -6
BITMAP
0030
0070
00E0
01C0
0300
0200
FE7C
7C38
3C30
3C30
1E20
1E60
0E60
0F40
0FC0
0780
0780
0380
0300
0300
0300
3200
3C00
7C00
3800
ENDCHAR
STARTCHAR thorn
ENCODING 254
SWIDTH 609 0
DWIDTH 15 0
BBX 14 25 0 -6
BITMAP
0400
7C00
3C00
3C00
3C00
3C00
3CE0
3FF8
3E78
3C3C
3C3C
3C3C
3C3C
3C3C
3C3C
3C38
3C38
3E70
3FC0
3C00
3C00
3C00
3C00
3C00
FF00
ENDCHAR
STARTCHAR ydieresis
ENCODING 255
SWIDTH 524 0
DWIDTH 13 0
BBX 14 24 0 -6
BITMAP
1860
3CF0
3CF0
1860
0000
FE7C
7C38
3C30
3C30
1E20
1E60
0E60
0F40
0FC0
07C0
0780
0380
0300
0300
0300
1200
3E00
3C00
1800
ENDCHAR
STARTCHAR Amacron
ENCODING 256
SWIDTH 644 0
DWIDTH 16 0
BBX 17 21 -1 0
BITMAP
07F800
07F800
000000
01C000
01E000
03E000
03E000
02F000
06F000
06F000
04F000
047800
0C7800
0C7800
0FFC00
183C00
183C00
301E00
301E00
301E00
FC7F80
ENDCHAR
STARTCHAR amacron
ENCODING 257
SWIDTH 544 0
DWIDTH 14 0
BBX 13 16 1 0
BITMAP
3FC0
3FC0
0000
0F80
79C0
F1E0
71E0
21E0
0FE0
39E0
71E0
F1E0
F1E0
F1E0
7FF8
3CE0
ENDCHAR
STARTCHAR Abreve
ENCODING 258
SWIDTH 644 0
DWIDTH 16 0
BBX 17 23 -1 0
BITMAP
040800
061800
03F000
01E000
000000
01C000
01E000
03E000
03E000
02F000
06F000
06F000
04F000
047800
0C7800
0C7800
0FFC00
183C00
183C00
301E00
301E00
301E00
FC7F80
ENDCHAR
STARTCHAR abreve
ENCODING 259
SWIDTH 544 0
DWIDTH 14 0
BBX 13 18 1 0
BITMAP
2040
30C0
1F80
0F00
0000
0F80
79C0
F1E0
71E0
21E0
0FE0
39E0
71E0
F1E0
F1E0
F1E0
7FF8
3CE0
ENDCHAR
STARTCHAR Aogonek
ENCODING 260
SWIDTH 644 0
DWIDTH 16 0
BBX 17 24 -1 -6
BITMAP
01C000
01E000
03E000
03E000
02F000
06F000
06F000
04F000
047800
0C7800
0C7800
0FFC00
183C00
183C00
301E00
301E00
301E00
FC7F80
006000
00C000
008000
018000
018000
00F000
ENDCHAR
STARTCHAR aogonek
ENCODING 261
SWIDTH 544 0
DWIDTH 14 0
BBX 13 19 1 -6
BITMAP
0F80
79C0
F1E0
71E0
21E0
0FE0
39E0
71E0
F1E0
F1E0
F1E0
7FF8
3CE0
0300
0600
0400
0C00
0C00
0780
ENDCHAR
STARTCHAR Cacute
ENCODING 262
SWIDTH 689 0
DWIDTH 17 0
BBX 15 25 1 0
BITMAP
0010
0038
0070
00E0
0180
0200
0000
03F8
1E1E
3C06
7806
7802
7000
F000
F000
F000
F000
F000
F000
F002
7802
7806
3C06
1F1E
03F8
ENDCHAR
STARTCHAR cacute
ENCODING 263
SWIDTH 494 0
DWIDTH 12 0
BBX 11 20 1 0
BITMAP
0040
00E0
01C0
0380
0600
0800
0000
1F80
39E0
79E0
70E0
F000
F000
F000
F000
F000
7820
7C60
3FC0
1F00
ENDCHAR
STARTCHAR Ccircumflex
ENCODING 264
SWIDTH 689 0
DWIDTH 17 0
BBX 15 25 1 0
BITMAP
0100
0380
07C0
0EE0
0820
1010
0000
03F8
1E1E
3C06
7806
7802
7000
F000
F000
F000
F000
F000
F000
F002
7802
7806
3C06
1F1E
03F8
ENDCHAR
STARTCHAR ccircumflex
ENCODING 265
SWIDTH 494 0
DWIDTH 12 0
BBX 11 20 1 0
BITMAP
0400
0E00
1F00
3B80
2080
4040
0000
1F80
39E0
79E0
70E0
F000
F000
F000
F000
F000
7820
7C60
3FC0
1F00
ENDCHAR
STARTCHAR Cdotaccent
ENCODING 266
SWIDTH 689 0
DWIDTH 17 0
BBX 15 23 1 0
BITMAP
0180
03C0
03C0
0180
0000
03F8
1E1E
3C06
7806
7802
7000
F000
F000
F000
F000
F000
F000
F002
7802
7806
3C06
1F1E
03F8
ENDCHAR
STARTCHAR cdotaccent
ENCODING 267
SWIDTH 494 0
DWIDTH 12 0
BBX 11 18 1 0
BITMAP
0600
0F00
0F00
0600
0000
1F80
39E0
79E0
70E0
F000
F000
F000
F000
F000
7820
7C60
3FC0
1F00
ENDCHAR
STARTCHAR Ccaron
ENCODING 268
SWIDTH 689 0
DWIDTH 17 0
BBX 15 25 1 0
BITMAP
1010
0820
0EE0
07C0
0380
0100
0000
03F8
1E1E
3C06
7806
7802
7000
F000
F000
F000
F000
F000
F000
F002
7802
7806
3C06
1F1E
03F8
ENDCHAR
STARTCHAR ccaron
ENCODING 269
SWIDTH 494 0
DWIDTH 12 0
BBX 11 20 1 0
BITMAP
4040
2080
3B80
1F00
0E00
0400
0000
1F80
39E0
79E0
70E0
F000
F000
F000
F000
F000
7820
7C60
3FC0
1F00
ENDCHAR
STARTCHAR Dcaron
ENCODING 270
SWIDTH 777 0
DWIDTH 19 0
BBX 17 25 1 0
BITMAP
080800
041000
077000
03E000
01C000
008000
000000
FFF000
3C3C00
3C1E00
3C0F00
3C0F00
3C0780
3C0780
3C0780
3C0780
3C0780
3C0780
3C0780
3C0700
3C0F00
3C0F00
3C1E00
3C3C00
FFE000
ENDCHAR
STARTCHAR dcaron
ENCODING 271
SWIDTH 827 0
DWIDTH 20 0
BBX 18 19 1 0
BITMAP
003000
01F180
00F3C0
00F1C0
00F1C0
00F180
0FF180
38F100
78F200
70F000
F0F000
F0F000
F0F000
F0F000
F0F000
78F000
78F000
3FF000
1CFC00
ENDCHAR
STARTCHAR Dcroat
ENCODING 272
SWIDTH 783 0
DWIDTH 20 0
BBX 17 18 1 0
BITMAP
FFF000
3C3C00
3C1E00
3C0F00
3C0F00
3C0780
3C0780
3C0780
FF8780
3C0780
3C0780
3C0780
3C0700
3C0F00
3C0F00
3C1E00
3C3C00
FFE000
ENDCHAR
STARTCHAR dcroat
ENCODING 273
SWIDTH 605 0
DWIDTH 15 0
BBX 14 19 1 0
BITMAP
0030
01F0
00F0
00F0
00F0
03FC
0FF0
38F0
78F0
70F0
F0F0
F0F0
F0F0
F0F0
F0F0
78F0
78F0
3FF0
1CFC
ENDCHAR
STARTCHAR Emacron
ENCODING 274
SWIDTH 629 0
DWIDTH 16 0
BBX 14 21 1 0
BITMAP
1FE0
1FE0
0000
FFF8
3C38
3C18
3C18
3C08
3C00
3C20
3C60
3FE0
3C60
3C20
3C00
3C00
3C0C
3C0C
3C0C
3C1C
FFF8
ENDCHAR
STARTCHAR emacron
ENCODING 275
SWIDTH 519 0
DWIDTH 13 0
BBX 12 16 1 0
BITMAP
3FC0
3FC0
0000
0F00
39C0
70E0
70E0
F0F0
F0F0
FFF0
F000
F000
F830
7C20
3FC0
0F80
ENDCHAR
STARTCHAR Ebreve
ENCODING 276
SWIDTH 629 0
DWIDTH 16 0
BBX 14 23 1 0
BITMAP
1020
1860
0FC0
0780
0000
FFF8
3C38
3C18
3C18
3C08
3C00
3C20
3C60
3FE0
3C60
3C20
3C00
3C00
3C0C
3C0C
3C0C
3C1C
FFF8
ENDCHAR
STARTCHAR ebreve
ENCODING 277
SWIDTH 519 0
DWIDTH 13 0
BBX 12 18 1 0
BITMAP
2040
30C0
1F80
0F00
0000
0F00
39C0
70E0
70E0
F0F0
F0F0
FFF0
F000
F000
F830
7C20
3FC0
0F80
ENDCHAR
STARTCHAR Edotaccent
ENCODING 278
SWIDTH 629 0
DWIDTH 16 0
BBX 14 23 1 0
BITMAP
0300
0780
0780
0300
0000
FFF8
3C38
3C18
3C18
3C08
3C00
3C20
3C60
3FE0
3C60
3C20
3C00
3C00
3C0C
3C0C
3C0C
3C1C
FFF8
ENDCHAR
STARTCHAR edotaccent
ENCODING 279
SWIDTH 519 0
DWIDTH 13 0
BBX 12 18 1 0
BITMAP
0600
0F00
0F00
0600
0000
0F00
39C0
70E0
70E0
F0F0
F0F0
FFF0
F000
F000
F830
7C20
3FC0
0F80
ENDCHAR
STARTCHAR Eogonek
ENCODING 280
SWIDTH 629 0
DWIDTH 16 0
BBX 14 24 1 -6
BITMAP
FFF8
3C38
3C18
3C18
3C08
3C00
3C20
3C60
3FE0
3C60
3C20
3C00
3C00
3C0C
3C0C
3C0C
3C1C
FFF8
0300
0600
0400
0C00
0C00
0780
ENDCHAR
STARTCHAR eogonek
ENCODING 281
SWIDTH 519 0
DWIDTH 13 0
BBX 12 19 1 -6
BITMAP
0F00
39C0
70E0
70E0
F0F0
F0F0
FFF0
F000
F000
F830
7C20
3FC0
0F80
0600
0C00
0800
1800
1800
0F00
ENDCHAR
STARTCHAR Ecaron
ENCODING 282
SWIDTH 629 0
DWIDTH 16 0
BBX 14 25 1 0
BITMAP
2020
1040
1DC0
0F80
0700
0200
0000
FFF8
3C38
3C18
3C18
3C08
3C00
3C20
3C60
3FE0
3C60
3C20
3C00
3C00
3C0C
3C0C
3C0C
3C1C
FFF8
ENDCHAR
STARTCHAR ecaron
ENCODING 283
SWIDTH 519 0
DWIDTH 13 0
BBX 12 20 1 0
BITMAP
2020
1040
1DC0
0F80
0700
0200
0000
0F00
39C0
70E0
70E0
F0F0
F0F0
FFF0
F000
F000
F830
7C20
3FC0
0F80
ENDCHAR
STARTCHAR Gcircumflex
ENCODING 284
SWIDTH 726 0
DWIDTH 18 0
BBX 16 25 1 0
BITMAP
0080
01C0
03E0
0770
0410
0808
0000
03F8
0E1E
3C06
3806
7802
7000
F000
F000
F000
F000
F07F
F01E
701E
781E
781E
3C1E
1E1E
07F0
ENDCHAR
STARTCHAR gcircumflex
ENCODING 285
SWIDTH 533 0
DWIDTH 13 0
BBX 12 26 1 -6
BITMAP
0400
0E00
1F00
3B80
2080
4040
0000
1F30
7BF0
F1C0
F1E0
F1E0
F1E0
71C0
3BC0
7F00
E000
FFC0
7FE0
3FF0
60F0
E070
E070
E060
78C0
1F00
ENDCHAR
STARTCHAR Gbreve
ENCODING 286
SWIDTH 726 0
DWIDTH 18 0
BBX 16 23 1 0
BITMAP
0810
0C30
07E0
03C0
0000
03F8
0E1E
3C06
3806
7802
7000
F000
F000
F000
F000
F07F
F01E
701E
781E
781E
3C1E
1E1E
07F0
ENDCHAR
STARTCHAR gbreve
ENCODING 287
SWIDTH 533 0
DWIDTH 13 0
BBX 12 24 1 -6
BITMAP
2040
30C0
1F80
0F00
0000
1F30
7BF0
F1C0
F1E0
F1E0
F1E0
71C0
3BC0
7F00
E000
FFC0
7FE0
3FF0
60F0
E070
E070
E060
78C0
1F00
ENDCHAR
STARTCHAR Gdotaccent
ENCODING 288
SWIDTH 726 0
DWIDTH 18 0
BBX 16 23 1 0
BITMAP
0180
03C0
03C0
0180
0000
03F8
0E1E
3C06
3806
7802
7000
F000
F000
F000
F000
F07F
F01E
701E
781E
781E
3C1E
1E1E
07F0
ENDCHAR
STARTCHAR gdotaccent
ENCODING 289
SWIDTH 533 0
DWIDTH 13 0
BBX 12 24 1 -6
BITMAP
0600
0F00
0F00
0600
0000
1F30
7BF0
F1C0
F1E0
F1E0
F1E0
71C0
3BC0
7F00
E000
FFC0
7FE0
3FF0
60F0
E070
E070
E060
78C0
1F00
ENDCHAR
STARTCHAR Gcommaaccent
ENCODING 290
SWIDTH 726 0
DWIDTH 18 0
BBX 16 28 1 -10
BITMAP
03F8
0E1E
3C06
3806
7802
7000
F000
F000
F000
F000
F07F
F01E
701E
781E
781E
3C1E
1E1E
07F0
0000
0180
0380
03C0
01C0
01C0
0180
0180
0300
0200
ENDCHAR
STARTCHAR gcommaaccent
ENCODING 291
SWIDTH 533 0
DWIDTH 13 0
BBX 12 28 1 -6
BITMAP
0100
0200
0600
0600
0E00
0E00
0F00
0600
0000
1F30
7BF0
F1C0
F1E0
F1E0
F1E0
71C0
3BC0
7F00
E000
FFC0
7FE0
3FF0
60F0
E070
E070
E060
78C0
1F00
ENDCHAR
STARTCHAR Hcircumflex
ENCODING 292
SWIDTH 807 0
DWIDTH 20 0
BBX 18 25 1 0
BITMAP
004000
00E000
01F000
03B800
020800
040400
000000
FF3FC0
3C0F00
3C0F00
3C0F00
3C0F00
3C0F00
3C0F00
3C0F00
3FFF00
3C0F00
3C0F00
3C0F00
3C0F00
3C0F00
3C0F00
3C0F00
3C0F00
FF3FC0
ENDCHAR
STARTCHAR hcircumflex
ENCODING 293
SWIDTH 631 0
DWIDTH 16 0
BBX 16 26 0 0
BITMAP
0400
0E00
1F00
3B80
2080
4040
0000
0C00
7C00
3C00
3C00
3C00
3C00
3CF0
3FF8
3E3C
3C3C
3C3C
3C3C
3C3C
3C3C
3C3C
3C3C
3C3C
3C3C
FE7F
ENDCHAR
STARTCHAR Hbar
ENCODING 294
SWIDTH 807 0
DWIDTH 20 0
BBX 18 18 1 0
BITMAP
FF3FC0
3C0F00
3C0F00
3C0F00
3C0F00
FFFFC0
3C0F00
3C0F00
3FFF00
3C0F00
3C0F00
3C0F00
3C0F00
3C0F00
3C0F00
3C0F00
3C0F00
FF3FC0
ENDCHAR
STARTCHAR hbar
ENCODING 295
SWIDTH 631 0
DWIDTH 16 0
BBX 16 19 0 0
BITMAP
0C00
7C00
3C00
3C00
3C00
FF00
3CF0
3FF8
3E3C
3C3C
3C3C
3C3C
3C3C
3C3C
3C3C
3C3C
3C3C
3C3C
FE7F
ENDCHAR
STARTCHAR Itilde
ENCODING 296
SWIDTH 384 0
DWIDTH 10 0
BBX 11 23 0 0
BITMAP
1020
7FC0
7FC0
8100
0000
7F80
1E00
1E00
1E00
1E00
1E00
1E00
1E00
1E00
1E00
1E00
1E00
1E00
1E00
1E00
1E00
1E00
7F80
ENDCHAR
STARTCHAR itilde
ENCODING 297
SWIDTH 316 0
DWIDTH 8 0
BBX 11 18 -1 0
BITMAP
1020
7FC0
7FC0
8100
0000
0E00
3E00
1E00
1E00
1E00
1E00
1E00
1E00
1E00
1E00
1E00
1E00
7F80
ENDCHAR
STARTCHAR Imacron
ENCODING 298
SWIDTH 384 0
DWIDTH 10 0
BBX 8 21 1 0
BITMAP
FF
FF
00
FF
3C
3C
3C
3C
3C
3C
3C
3C
3C
3C
3C
3C
3C
3C
3C
3C
FF
ENDCHAR
STARTCHAR imacron
ENCODING 299
SWIDTH 316 0
DWIDTH 8 0
BBX 8 16 0 0
BITMAP
FF
FF
00
1C
7C
3C
3C
3C
3C
3C
3C
3C
3C
3C
3C
FF
ENDCHAR
STARTCHAR Ibreve
ENCODING 300
SWIDTH 384 0
DWIDTH 10 0
BBX 8 23 1 0
BITMAP
81
C3
7E
3C
00
FF
3C
3C
3C
3C
3C
3C
3C
3C
3C
3C
3C
3C
3C
3C
3C
3C
FF
ENDCHAR
STARTCHAR ibreve
ENCODING 301
SWIDTH 316 0
DWIDTH 8 0
BBX 8 18 0 0
BITMAP
81
C3
7E
3C
00
1C
7C
3C
3C
3C
3C
3C
3C
3C
3C
3C
3C
FF
ENDCHAR
STARTCHAR Iogonek
ENCODING 302
SWIDTH 384 0
DWIDTH 10 0
BBX 8 24 1 -6
BITMAP
FF
3C
3C
3C
3C
3C
3C
3C
3C
3C
3C
3C
3C
3C
3C
3C
3C
FF
0C
18
10
30
30
1E
ENDCHAR
STARTCHAR iogonek
ENCODING 303
SWIDTH 316 0
DWIDTH 8 0
BBX 8 24 0 -6
BITMAP
18
3C
3E
1C
00
1C
7C
3C
3C
3C
3C
3C
3C
3C
3C
3C
3C
FF
0C
18
10
30
30
1E
ENDCHAR
STARTCHAR Idotaccent
ENCODING 304
SWIDTH 384 0
DWIDTH 10 0
BBX 8 23 1 0
BITMAP
18
3C
3C
18
00
FF
3C
3C
3C
3C
3C
3C
3C
3C
3C
3C
3C
3C
3C
3C
3C
3C
FF
ENDCHAR
STARTCHAR dotlessi
ENCODING 305
SWIDTH 316 0
DWIDTH 8 0
BBX 8 13 0 0
BITMAP
1C
7C
3C
3C
3C
3C
3C
3C
3C
3C
3C
3C
FF
ENDCHAR
STARTCHAR IJ
ENCODING 306
SWIDTH 751 0
DWIDTH 20 0
BBX 18 20 1 -2
BITMAP
FF3FC0
3C0F00
3C0F00
3C0F00
3C0F00
3C0F00
3C0F00
3C0F00
3C0F00
3C0F00
3C0F00
3C0F00
3C0F00
3C0F00
3C0F00
3C0F00
3C0E00
FF1E00
001E00
007000
ENDCHAR
STARTCHAR ij
ENCODING 307
SWIDTH 616 0
DWIDTH 16 0
BBX 15 24 0 -6
BITMAP
180C
3C1E
3E3E
1C1C
0000
1C1C
7C7C
3C3C
3C3C
3C3C
3C3C
3C3C
3C3C
3C3C
3C3C
3C3C
3C3C
FF3C
003C
003C
0038
0078
00F0
01C0
ENDCHAR
STARTCHAR Jcircumflex
ENCODING 308
SWIDTH 386 0
DWIDTH 10 0
BBX 9 27 0 -2
BITMAP
0800
1C00
3E00
7700
4100
8080
0000
7F80
1E00
1E00
1E00
1E00
1E00
1E00
1E00
1E00
1E00
1E00
1E00
1E00
1E00
1E00
1E00
1C00
3C00
3C00
E000
ENDCHAR
STARTCHAR jcircumflex
ENCODING 309
SWIDTH 316 0
DWIDTH 8 0
BBX 9 26 -1 -6
BITMAP
0800
1C00
3E00
7700
4100
8080
0000
0E00
3E00
1E00
1E00
1E00
1E00
1E00
1E00
1E00
1E00
1E00
1E00
1E00
1E00
1E00
1C00
3C00
7800
E000
ENDCHAR
STARTCHAR Kcommaaccent
ENCODING 310
SWIDTH 707 0
DWIDTH 18 0
BBX 17 28 1 -10
BITMAP
FF1F80
3C0E00
3C1C00
3C3800
3C3000
3C6000
3CC000
3DC000
3FC000
3FE000
3DF000
3DF000
3CF800
3C7C00
3C7C00
3C3E00
3C1F00
FF0780
000000
00C000
01C000
01E000
00E000
00E000
00C000
00C000
018000
010000
ENDCHAR
STARTCHAR kcommaaccent
ENCODING 311
SWIDTH 582 0
DWIDTH 15 0
BBX 15 29 0 -10
BITMAP
0C00
7C00
3C00
3C00
3C00
3C00
3C3C
3C78
3CE0
3CC0
3D80
3F80
3FC0
3FE0
3DE0
3CF0
3CF8
3C7C
FF3E
0000
0300
0700
0780
0380
0380
0300
0300
0600
0400
ENDCHAR
STARTCHAR kgreenlandic
ENCODING 312
SWIDTH 582 0
DWIDTH 15 0
BBX 15 12 0 0
BITMAP
3C78
3CE0
3CC0
3D80
3F80
3FC0
3FE0
3DE0
3CF0
3CF8
3C7C
FF3E
ENDCHAR
STARTCHAR Lacute
ENCODING 313
SWIDTH 585 0
DWIDTH 15 0
BBX 14 25 1 0
BITMAP
0080
01C0
0380
0700
0C00
1000
0000
FF00
3C00
3C00
3C00
3C00
3C00
3C00
3C00
3C00
3C00
3C00
3C00
3C00
3C04
3C0C
3C0C
3C1C
FFF8
ENDCHAR
STARTCHAR lacute
ENCODING 314
SWIDTH 309 0
DWIDTH 8 0
BBX 9 26 0 0
BITMAP
0100
0380
0700
0E00
1800
2000
0000
0C00
7C00
3C00
3C00
3C00
3C00
3C00
3C00
3C00
3C00
3C00
3C00
3C00
3C00
3C00
3C00
3C00
3C00
FF00
ENDCHAR
STARTCHAR Lcommaaccent
ENCODING 315
SWIDTH 585 0
DWIDTH 15 0
BBX 14 28 1 -10
BITMAP
FF00
3C00
3C00
3C00
3C00
3C00
3C00
3C00
3C00
3C00
3C00
3C00
3C00
3C04
3C0C
3C0C
3C1C
FFF8
0000
0300
0700
0780
0380
0380
0300
0300
0600
0400
ENDCHAR
STARTCHAR lcommaaccent
ENCODING 316
SWIDTH 309 0
DWIDTH 8 0
BBX 8 29 0 -10
BITMAP
0C
7C
3C
3C
3C
3C
3C
3C
3C
3C
3C
3C
3C
3C
3C
3C
3C
3C
FF
00
18
38
3C
1C
1C
18
18
30
20
ENDCHAR
STARTCHAR Lcaron
ENCODING 317
SWIDTH 808 0
DWIDTH 20 0
BBX 18 18 1 0
BITMAP
FF0180
3C03C0
3C01C0
3C01C0
3C0180
3C0180
3C0100
3C0200
3C0000
3C0000
3C0000
3C0000
3C0000
3C0400
3C0C00
3C0C00
3C1C00
FFF800
ENDCHAR
STARTCHAR lcaron
ENCODING 318
SWIDTH 546 0
DWIDTH 14 0
BBX 13 19 0 0
BITMAP
0C00
7C30
3C78
3C38
3C38
3C30
3C30
3C20
3C40
3C00
3C00
3C00
3C00
3C00
3C00
3C00
3C00
3C00
FF00
ENDCHAR
STARTCHAR Ldot
ENCODING 319
SWIDTH 836 0
DWIDTH 21 0
BBX 19 18 1 0
BITMAP
FF0000
3C0000
3C0000
3C0000
3C0000
3C0000
3C0000
3C0000
3C0000
3C0080
3C01C0
3C03E0
3C01C0
3C0480
3C0C00
3C0C00
3C1C00
FFF800
ENDCHAR
STARTCHAR ldot
ENCODING 320
SWIDTH 574 0
DWIDTH 15 0
BBX 14 19 0 0
BITMAP
0C00
7C00
3C00
3C00
3C00
3C00
3C00
3C00
3C00
3C00
3C10
3C38
3C7C
3C38
3C10
3C00
3C00
3C00
FF00
ENDCHAR
STARTCHAR Lslash
ENCODING 321
SWIDTH 591 0
DWIDTH 15 0
BBX 15 18 0 0
BITMAP
7F80
1E00
1E00
1E00
1E00
1E60
1EC0
1F80
1F00
1E00
1E00
7E00
5E00
9E02
1E06
1E06
1E0E
7FFC
ENDCHAR
STARTCHAR lslash
ENCODING 322
SWIDTH 321 0
DWIDTH 8 0
BBX 8 19 0 0
BITMAP
0C
7C
3C
3C
3C
3C
3D
3F
3E
3C
3C
7C
FC
BC
3C
3C
3C
3C
FF
ENDCHAR
STARTCHAR Nacute
ENCODING 323
SWIDTH 739 0
DWIDTH 18 0
BBX 18 25 0 0
BITMAP
001000
003800
007000
00E000
018000
020000
000000
FE0FC0
3E0300
3F0300
3F0300
378300
37C300
33C300
33E300
31F300
30F300
30FB00
307B00
303F00
303F00
301F00
301F00
300F00
FC0700
ENDCHAR
STARTCHAR nacute
ENCODING 324
SWIDTH 638 0
DWIDTH 16 0
BBX 16 20 0 0
BITMAP
0010
0038
0070
00E0
0180
0200
0000
1CF0
7FF8
3E3C
3C3C
3C3C
3C3C
3C3C
3C3C
3C3C
3C3C
3C3C
3C3C
FE7F
ENDCHAR
STARTCHAR Ncommaaccent
ENCODING 325
SWIDTH 739 0
DWIDTH 18 0
BBX 18 28 0 -10
BITMAP
FE0FC0
3E0300
3F0300
3F0300
378300
37C300
33C300
33E300
31F300
30F300
30FB00
307B00
303F00
303F00
301F00
301F00
300F00
FC0700
000000
00C000
01C000
01E000
00E000
00E000
00C000
00C000
018000
010000
ENDCHAR
STARTCHAR ncommaaccent
ENCODING 326
SWIDTH 638 0
DWIDTH 16 0
BBX 16 23 0 -10
BITMAP
1CF0
7FF8
3E3C
3C3C
3C3C
3C3C
3C3C
3C3C
3C3C
3C3C
3C3C
3C3C
FE7F
0000
0180
0380
03C0
01C0
01C0
0180
0180
0300
0200
ENDCHAR
STARTCHAR Ncaron
ENCODING 327
SWIDTH 739 0
DWIDTH 18 0
BBX 18 25 0 0
BITMAP
080800
041000
077000
03E000
01C000
008000
000000
FE0FC0
3E0300
3F0300
3F0300
378300
37C300
33C300
33E300
31F300
30F300
30FB00
307B00
303F00
303F00
301F00
301F00
300F00
FC0700
ENDCHAR
STARTCHAR ncaron
ENCODING 328
SWIDTH 638 0
DWIDTH 16 0
BBX 16 20 0 0
BITMAP
1010
0820
0EE0
07C0
0380
0100
0000
1CF0
7FF8
3E3C
3C3C
3C3C
3C3C
3C3C
3C3C
3C3C
3C3C
3C3C
3C3C
FE7F
ENDCHAR
STARTCHAR napostrophe
ENCODING 329
SWIDTH 877 0
DWIDTH 22 0
BBX 21 18 1 0
BITMAP
600000
F00000
700000
700000
600000
60E780
43FFC0
81F1E0
01E1E0
01E1E0
01E1E0
01E1E0
01E1E0
01E1E0
01E1E0
01E1E0
01E1E0
07F3F8
ENDCHAR
STARTCHAR Eng
ENCODING 330
SWIDTH 739 0
DWIDTH 18 0
BBX 18 24 0 -6
BITMAP
FE0FC0
3E0300
3F0300
3F0300
378300
37C300
33C300
33E300
31F300
30F300
30FB00
307B00
303F00
303F00
301F00
301F00
300F00
FC0F00
000F00
000F00
000E00
001E00
003C00
007000
ENDCHAR
STARTCHAR eng
ENCODING 331
SWIDTH 638 0
DWIDTH 16 0
BBX 14 19 0 -6
BITMAP
1CF0
7FF8
3E3C
3C3C
3C3C
3C3C
3C3C
3C3C
3C3C
3C3C
3C3C
3C3C
FE3C
003C
003C
0038
0078
00F0
01C0
ENDCHAR
STARTCHAR Omacron
ENCODING 332
SWIDTH 768 0
DWIDTH 19 0
BBX 17 21 1 0
BITMAP
07F800
07F800
000000
03E000
1E3C00
3C1E00
780F00
780F00
F00700
F00780
F00780
F00780
F00780
F00780
F00780
F00700
780F00
780F00
3C1E00
1E3C00
03E000
ENDCHAR
STARTCHAR omacron
ENCODING 333
SWIDTH 585 0
DWIDTH 15 0
BBX 13 16 1 0
BITMAP
1FE0
1FE0
0000
0F80
38E0
78F0
7070
F078
F078
F078
F078
F078
7070
78F0
38E0
0F80
ENDCHAR
STARTCHAR Obreve
ENCODING 334
SWIDTH 768 0
DWIDTH 19 0
BBX 17 23 1 0
BITMAP
040800
061800
03F000
01E000
000000
03E000
1E3C00
3C1E00
780F00
780F00
F00700
F00780
F00780
F00780
F00780
F00780
F00780
F00700
780F00
780F00
3C1E00
1E3C00
03E000
ENDCHAR
STARTCHAR obreve
ENCODING 335
SWIDTH 585 0
DWIDTH 15 0
BBX 13 18 1 0
BITMAP
1020
1860
0FC0
0780
0000
0F80
38E0
78F0
7070
F078
F078
F078
F078
F078
7070
78F0
38E0
0F80
ENDCHAR
STARTCHAR Ohungarumlaut
ENCODING 336
SWIDTH 768 0
DWIDTH 19 0
BBX 17 25 1 0
BITMAP
031800
039C00
071800
063000
042000
086000
000000
03E000
1E3C00
3C1E00
780F00
780F00
F00700
F00780
F00780
F00780
F00780
F00780
F00780
F00700
780F00
780F00
3C1E00
1E3C00
03E000
ENDCHAR
STARTCHAR ohungarumlaut
ENCODING 337
SWIDTH 585 0
DWIDTH 15 0
BBX 13 20 1 0
BITMAP
0C60
0E70
1C60
18C0
1080
2180
0000
0F80
38E0
78F0
7070
F078
F078
F078
F078
F078
7070
78F0
38E0
0F80
ENDCHAR
STARTCHAR OE
ENCODING 338
SWIDTH 1049 0
DWIDTH 26 0
BBX 25 18 1 0
BITMAP
03FFFF00
1F0F0700
3C0F0300
380F0300
780F0100
700F0000
F00F0400
F00F0C00
F00FFC00
F00F0C00
F00F0400
F00F0000
780F0000
780F0180
780F0180
3C0F0180
1F0F0380
03FFFF00
ENDCHAR
STARTCHAR oe
ENCODING 339
SWIDTH 866 0
DWIDTH 22 0
BBX 20 13 1 0
BITMAP
0F8700
38FDC0
78F8E0
7078F0
F078F0
F078F0
F07FF0
F07800
F07800
F07830
787C20
38FFC0
0F8F00
ENDCHAR
STARTCHAR Racute
ENCODING 340
SWIDTH 684 0
DWIDTH 17 0
BBX 16 25 1 0
BITMAP
0020
0070
00E0
01C0
0300
0400
0000
FFE0
3C78
3C7C
3C3C
3C3C
3C3C
3C3C
3C78
3C70
3FC0
3CF0
3C78
3C78
3C78
3C3C
3C3C
3C3C
FF1F
ENDCHAR
STARTCHAR racute
ENCODING 341
SWIDTH 440 0
DWIDTH 11 0
BBX 11 20 0 0
BITMAP
0040
00E0
01C0
0380
0600
0800
0000
1CC0
7DE0
3FE0
3CC0
3C00
3C00
3C00
3C00
3C00
3C00
3C00
3C00
FF00
ENDCHAR
STARTCHAR Rcommaaccent
ENCODING 342
SWIDTH 684 0
DWIDTH 17 0
BBX 16 28 1 -10
BITMAP
FFE0
3C78
3C7C
3C3C
3C3C
3C3C
3C3C
3C78
3C70
3FC0
3CF0
3C78
3C78
3C78
3C3C
3C3C
3C3C
FF1F
0000
0180
0380
03C0
01C0
01C0
0180
0180
0300
0200
ENDCHAR
STARTCHAR rcommaaccent
ENCODING 343
SWIDTH 440 0
DWIDTH 11 0
BBX 11 23 0 -10
BITMAP
1CC0
7DE0
3FE0
3CC0
3C00
3C00
3C00
3C00
3C00
3C00
3C00
3C00
FF00
0000
0C00
1C00
1E00
0E00
0E00
0C00
0C00
1800
1000
ENDCHAR
STARTCHAR Rcaron
ENCODING 344
SWIDTH 684 0
DWIDTH 17 0
BBX 16 25 1 0
BITMAP
1010
0820
0EE0
07C0
0380
0100
0000
FFE0
3C78
3C7C
3C3C
3C3C
3C3C
3C3C
3C78
3C70
3FC0
3CF0
3C78
3C78
3C78
3C3C
3C3C
3C3C
FF1F
ENDCHAR
STARTCHAR rcaron
ENCODING 345
SWIDTH 440 0
DWIDTH 11 0
BBX 11 20 0 0
BITMAP
4040
2080
3B80
1F00
0E00
0400
0000
1CC0
7DE0
3FE0
3CC0
3C00
3C00
3C00
3C00
3C00
3C00
3C00
3C00
FF00
ENDCHAR
STARTCHAR Sacute
ENCODING 346
SWIDTH 561 0
DWIDTH 14 0
BBX 12 25 1 0
BITMAP
0080
01C0
0380
0700
0C00
1000
0000
1FC0
38E0
7060
F020
F020
F800
FC00
7F00
3FC0
1FE0
07E0
01F0
80F0
80F0
C0F0
E0E0
F1C0
3F00
ENDCHAR
STARTCHAR sacute
ENCODING 347
SWIDTH 446 0
DWIDTH 11 0
BBX 9 20 1 0
BITMAP
0100
0380
0700
0E00
1800
2000
0000
3F00
6380
E180
F080
F800
7E00
3F00
1F00
8780
8380
C380
E300
7E00
ENDCHAR
STARTCHAR Scircumflex
ENCODING 348
SWIDTH 561 0
DWIDTH 14 0
BBX 12 25 1 0
BITMAP
0400
0E00
1F00
3B80
2080
4040
0000
1FC0
38E0
7060
F020
F020
F800
FC00
7F00
3FC0
1FE0
07E0
01F0
80F0
80F0
C0F0
E0E0
F1C0
3F00
ENDCHAR
STARTCHAR scircumflex
ENCODING 349
SWIDTH 446 0
DWIDTH 11 0
BBX 9 20 1 0
BITMAP
0800
1C00
3E00
7700
4100
8080
0000
3F00
6380
E180
F080
F800
7E00
3F00
1F00
8780
8380
C380
E300
7E00
ENDCHAR
STARTCHAR Scedilla
ENCODING 350
SWIDTH 561 0
DWIDTH 14 0
BBX 12 24 1 -6
BITMAP
1FC0
38E0
7060
F020
F020
F800
FC00
7F00
3FC0
1FE0
07E0
01F0
80F0
80F0
C0F0
E0E0
F1C0
3F00
0600
0600
0F80
0380
0380
0E00
ENDCHAR
STARTCHAR scedilla
ENCODING 351
SWIDTH 446 0
DWIDTH 11 0
BBX 9 19 1 -6
BITMAP
3F00
6380
E180
F080
F800
7E00
3F00
1F00
8780
8380
C380
E300
7E00
1800
1800
3E00
0E00
0E00
3800
ENDCHAR
STARTCHAR Scaron
ENCODING 352
SWIDTH 561 0
DWIDTH 14 0
BBX 12 23 1 0
BITMAP
4040
31C0
1F80
0F00
0400
1FC0
38E0
7060
F020
F020
F800
FC00
7F00
3FC0
1FE0
07E0
01F0
80F0
80F0
C0F0
E0E0
F1C0
3F00
ENDCHAR
STARTCHAR scaron
ENCODING 353
SWIDTH 446 0
DWIDTH 11 0
BBX 9 19 1 0
BITMAP
8080
C100
7300
3E00
1C00
0800
3F00
6380
E180
F080
F800
7E00
3F00
1F00
8780
8380
C380
E300
7E00
ENDCHAR
STARTCHAR Tcommaaccent
ENCODING 354
SWIDTH 624 0
DWIDTH 16 0
BBX 14 24 0 -6
BITMAP
FFFC
C78C
C78C
8784
8784
0780
0780
0780
0780
0780
0780
0780
0780
0780
0780
0780
0780
1FE0
0300
0300
07C0
01C0
01C0
0700
ENDCHAR
STARTCHAR tcommaaccent
ENCODING 355
SWIDTH 370 0
DWIDTH 9 0
BBX 8 22 1 -6
BITMAP
18
38
38
FE
78
78
78
78
78
78
78
78
78
78
3F
1C
18
18
3E
0E
0E
38
ENDCHAR
STARTCHAR Tcaron
ENCODING 356
SWIDTH 624 0
DWIDTH 16 0
BBX 14 25 0 0
BITMAP
1010
0820
0EE0
07C0
0380
0100
0000
FFFC
C78C
C78C
8784
8784
0780
0780
0780
0780
0780
0780
0780
0780
0780
0780
0780
0780
1FE0
ENDCHAR
STARTCHAR tcaron
ENCODING 357
SWIDTH 604 0
DWIDTH 15 0
BBX 13 18 1 0
BITMAP
0030
0078
1838
3838
3830
FE30
7820
7840
7800
7800
7800
7800
7800
7800
7800
7800
3F00
1C00
ENDCHAR
STARTCHAR Tbar
ENCODING 358
SWIDTH 624 0
DWIDTH 16 0
BBX 14 18 0 0
BITMAP
FFFC
C78C
C78C
8784
8784
0780
0780
0780
1FE0
0780
0780
0780
0780
0780
0780
0780
0780
1FE0
ENDCHAR
STARTCHAR tbar
ENCODING 359
SWIDTH 370 0
DWIDTH 9 0
BBX 8 16 1 0
BITMAP
18
38
38
FE
78
78
78
78
78
FF
78
78
78
78
3F
1C
ENDCHAR
STARTCHAR Utilde
ENCODING 360
SWIDTH 786 0
DWIDTH 20 0
BBX 18 23 1 0
BITMAP
010200
07FC00
07FC00
081000
000000
FF3FC0
3C0F00
3C0F00
3C0F00
3C0F00
3C0F00
3C0F00
3C0F00
3C0F00
3C0F00
3C0F00
3C0F00
3C0F00
3C0F00
3C0F00
1E1E00
0E1C00
03F000
ENDCHAR
STARTCHAR utilde
ENCODING 361
SWIDTH 629 0
DWIDTH 16 0
BBX 15 18 1 0
BITMAP
0408
1FF0
1FF0
2040
0000
3838
F8F8
7878
7878
7878
7878
7878
7878
7878
7878
7CF8
3FF8
1E7E
ENDCHAR
STARTCHAR Umacron
ENCODING 362
SWIDTH 786 0
DWIDTH 20 0
BBX 18 21 1 0
BITMAP
07F800
07F800
000000
FF3FC0
3C0F00
3C0F00
3C0F00
3C0F00
3C0F00
3C0F00
3C0F00
3C0F00
3C0F00
3C0F00
3C0F00
3C0F00
3C0F00
3C0F00
1E1E00
0E1C00
03F000
ENDCHAR
STARTCHAR umacron
ENCODING 363
SWIDTH 629 0
DWIDTH 16 0
BBX 15 16 1 0
BITMAP
1FE0
1FE0
0000
3838
F8F8
7878
7878
7878
7878
7878
7878
7878
7878
7CF8
3FF8
1E7E
ENDCHAR
STARTCHAR Ubreve
ENCODING 364
SWIDTH 786 0
DWIDTH 20 0
BBX 18 23 1 0
BITMAP
040800
061800
03F000
01E000
000000
FF3FC0
3C0F00
3C0F00
3C0F00
3C0F00
3C0F00
3C0F00
3C0F00
3C0F00
3C0F00
3C0F00
3C0F00
3C0F00
3C0F00
3C0F00
1E1E00
0E1C00
03F000
ENDCHAR
STARTCHAR ubreve
ENCODING 365
SWIDTH 629 0
DWIDTH 16 0
BBX 15 18 1 0
BITMAP
1020
1860
0FC0
0780
0000
3838
F8F8
7878
7878
7878
7878
7878
7878
7878
7878
7CF8
3FF8
1E7E
ENDCHAR
STARTCHAR Uring
ENCODING 366
SWIDTH 786 0
DWIDTH 20 0
BBX 18 24 1 0
BITMAP
00E000
031800
031800
031800
00E000
000000
FF3FC0
3C0F00
3C0F00
3C0F00
3C0F00
3C0F00
3C0F00
3C0F00
3C0F00
3C0F00
3C0F00
3C0F00
3C0F00
3C0F00
3C0F00
1E1E00
0E1C00
03F000
ENDCHAR
STARTCHAR uring
ENCODING 367
SWIDTH 629 0
DWIDTH 16 0
BBX 15 19 1 0
BITMAP
0380
0C60
0C60
0C60
0380
0000
3838
F8F8
7878
7878
7878
7878
7878
7878
7878
7878
7CF8
3FF8
1E7E
ENDCHAR
STARTCHAR Uhungarumlaut
ENCODING 368
SWIDTH 786 0
DWIDTH 20 0
BBX 18 25 1 0
BITMAP
018C00
01CE00
038C00
031800
021000
043000
000000
FF3FC0
3C0F00
3C0F00
3C0F00
3C0F00
3C0F00
3C0F00
3C0F00
3C0F00
3C0F00
3C0F00
3C0F00
3C0F00
3C0F00
3C0F00
1E1E00
0E1C00
03F000
ENDCHAR
STARTCHAR uhungarumlaut
ENCODING 369
SWIDTH 629 0
DWIDTH 16 0
BBX 15 20 1 0
BITMAP
0630
0738
0E30
0C60
0840
10C0
0000
3838
F8F8
7878
7878
7878
7878
7878
7878
7878
7878
7CF8
3FF8
1E7E
ENDCHAR
STARTCHAR Uogonek
ENCODING 370
SWIDTH 786 0
DWIDTH 20 0
BBX 18 24 1 -6
BITMAP
FF3FC0
3C0F00
3C0F00
3C0F00
3C0F00
3C0F00
3C0F00
3C0F00
3C0F00
3C0F00
3C0F00
3C0F00
3C0F00
3C0F00
3C0F00
1E1E00
0E1C00
03F000
006000
00C000
008000
018000
018000
00F000
ENDCHAR
STARTCHAR uogonek
ENCODING 371
SWIDTH 629 0
DWIDTH 16 0
BBX 15 19 1 -6
BITMAP
3838
F8F8
7878
7878
7878
7878
7878
7878
7878
7878
7CF8
3FF8
1E7E
0180
0300
0200
0600
0600
03C0
ENDCHAR
STARTCHAR Wcircumflex
ENCODING 372
SWIDTH 933 0
DWIDTH 23 0
BBX 24 25 0 0
BITMAP
001000
003800
007C00
00EE00
008200
010100
000000
FE003F
3C1C0C
3C1C0C
3C1E0C
3C1E08
1E3E18
1E3E18
1E3F18
0E2710
0E6730
0E6730
0F67B0
0743A0
07C3A0
07C3E0
07C3E0
0381C0
0381C0
ENDCHAR
STARTCHAR wcircumflex
ENCODING 373
SWIDTH 774 0
DWIDTH 19 0
BBX 20 20 0 0
BITMAP
004000
00E000
01F000
03B800
020800
040400
000000
FC71F0
7870E0
3878C0
3C78C0
3CF880
1CFC80
1CBD80
1E9D80
0F9D00
0F1F00
0F0F00
0F0E00
070E00
ENDCHAR
STARTCHAR Ycircumflex
ENCODING 374
SWIDTH 617 0
DWIDTH 15 0
BBX 16 25 0 0
BITMAP
0100
0380
07C0
0EE0
0820
1010
0000
FF3F
3C0C
3C0C
1E18
1E18
0F10
0F30
0F20
07E0
07C0
03C0
03C0
03C0
03C0
03C0
03C0
03C0
0FF0
ENDCHAR
STARTCHAR ycircumflex
ENCODING 375
SWIDTH 524 0
DWIDTH 13 0
BBX 14 26 0 -6
BITMAP
0200
0700
0F80
1DC0
1040
2020
0000
FE7C
7C38
3C30
3C30
1E20
1E60
0E60
0F40
0FC0
0780
0780
0380
0300
0300
0300
3200
3C00
7C00
3800
ENDCHAR
STARTCHAR Ydieresis
ENCODING 376
SWIDTH 617 0
DWIDTH 15 0
BBX 16 22 0 0
BITMAP
0C30
1E78
1E78
0C30
FF3F
3C0C
3C0C
1E18
1E18
0F30
0F30
0F20
07E0
07C0
03C0
03C0
03C0
03C0
03C0
03C0
03C0
0FF0
ENDCHAR
STARTCHAR Zacute
ENCODING 377
SWIDTH 614 0
DWIDTH 15 0
BBX 15 25 0 0
BITMAP
0010
0038
0070
00E0
0180
0200
0000
7FFE
707C
607C
40F8
41F0
01F0
03E0
03C0
07C0
0F80
0F80
1F00
3E00
3E06
7C06
780E
F81C
FFFC
ENDCHAR
STARTCHAR zacute
ENCODING 378
SWIDTH 483 0
DWIDTH 12 0
BBX 12 20 0 0
BITMAP
0040
00E0
01C0
0380
0600
0800
0000
7FF0
61E0
63E0
47C0
0780
0F80
0F00
1F00
3E00
3C30
7C30
F870
FFF0
ENDCHAR
STARTCHAR Zdotaccent
ENCODING 379
SWIDTH 614 0
DWIDTH 15 0
BBX 15 23 0 0
BITMAP
0180
03C0
03C0
0180
0000
7FFE
707C
607C
40F8
41F0
01F0
03E0
03C0
07C0
0F80
0F80
1F00
3E00
3E06
7C06
780E
F81C
FFFC
ENDCHAR
STARTCHAR zdotaccent
ENCODING 380
SWIDTH 483 0
DWIDTH 12 0
BBX 12 18 0 0
BITMAP
0600
0F00
0F00
0600
0000
7FF0
61E0
63E0
47C0
0780
0F80
0F00
1F00
3E00
3C30
7C30
F870
FFF0
ENDCHAR
STARTCHAR Zcaron
ENCODING 381
SWIDTH 614 0
DWIDTH 15 0
BBX 15 23 0 0
BITMAP
1010
0C70
07E0
03C0
0100
7FFE
707C
607C
40F8
41F0
01F0
03E0
03C0
07C0
0F80
0F80
1F00
3E00
3E06
7C06
780E
F81C
FFFC
ENDCHAR
STARTCHAR zcaron
ENCODING 382
SWIDTH 483 0
DWIDTH 12 0
BBX 12 19 0 0
BITMAP
2060
30C0
19C0
0F80
0700
0200
7FF0
61E0
63E0
47C0
0780
0F80
0F00
1F00
3E00
3C30
7C30
F870
FFF0
ENDCHAR
STARTCHAR uni0186
ENCODING 390
SWIDTH 689 0
DWIDTH 17 0
BBX 15 18 1 0
BITMAP
3F80
F1F0
C078
C03C
803C
801E
001E
001E
001E
001E
001E
001E
001C
803C
C03C
C078
F0F0
3F80
ENDCHAR
STARTCHAR uni0189
ENCODING 393
SWIDTH 783 0
DWIDTH 20 0
BBX 17 18 1 0
BITMAP
FFF000
3C3C00
3C1E00
3C0F00
3C0F00
3C0780
3C0780
3C0780
FF8780
3C0780
3C0780
3C0780
3C0700
3C0F00
3C0F00
3C1E00
3C3C00
FFE000
ENDCHAR
STARTCHAR uni018E
ENCODING 398
SWIDTH 629 0
DWIDTH 16 0
BBX 14 18 1 0
BITMAP
7FFC
E0F0
C0F0
C0F0
C0F0
00F0
00F0
10F0
18F0
1FF0
18F0
10F0
00F0
40F0
60F0
60F0
70F0
7FFC
ENDCHAR
STARTCHAR florin
ENCODING 402
SWIDTH 560 0
DWIDTH 14 0
BBX 15 21 -1 -3
BITMAP
0078
00DC
01CE
03CC
03C0
03C0
03C0
0380
1FF8
0780
0780
0780
0780
0780
0700
0700
0F00
0F00
EE00
EC00
7800
ENDCHAR
STARTCHAR uni0197
ENCODING 407
SWIDTH 384 0
DWIDTH 10 0
BBX 8 18 1 0
BITMAP
FF
3C
3C
3C
3C
3C
3C
3C
FF
3C
3C
3C
3C
3C
3C
3C
3C
FF
ENDCHAR
STARTCHAR uni019A
ENCODING 410
SWIDTH 309 0
DWIDTH 8 0
BBX 8 19 0 0
BITMAP
0C
7C
3C
3C
3C
3C
3C
3C
3C
FF
3C
3C
3C
3C
3C
3C
3C
3C
FF
ENDCHAR
STARTCHAR uni019D
ENCODING 413
SWIDTH 739 0
DWIDTH 18 0
BBX 19 24 -1 -6
BITMAP
7F07E0
1F0180
1F8180
1F8180
1BC180
1BE180
19E180
19F180
18F980
187980
187D80
183D80
181F80
1E1F80
1E0F80
1E0F80
1E0780
1E0380
1E0000
1E0000
1C0000
3C0000
780000
E00000
ENDCHAR
STARTCHAR uni019F
ENCODING 415
SWIDTH 768 0
DWIDTH 19 0
BBX 17 18 1 0
BITMAP
03E000
1E3C00
3C1E00
780F00
780F00
F00700
F00780
F00780
FFFF80
F00780
F00780
F00780
F00700
780F00
780F00
3C1E00
1E3C00
03E000
ENDCHAR
STARTCHAR Ohorn
ENCODING 416
SWIDTH 768 0
DWIDTH 19 0
BBX 19 18 1 0
BITMAP
03E0C0
1E3DE0
3C1EE0
780FE0
780FC0
F007C0
F00780
F00780
F00780
F00780
F00780
F00780
F00700
780F00
780F00
3C1E00
1E3C00
03E000
ENDCHAR
STARTCHAR ohorn
ENCODING 417
SWIDTH 585 0
DWIDTH 15 0
BBX 16 13 1 0
BITMAP
0F86
38EF
78F7
7077
F07E
F07E
F07C
F078
F078
7070
78F0
38E0
0F80
ENDCHAR
STARTCHAR uni01A7
ENCODING 423
SWIDTH 561 0
DWIDTH 14 0
BBX 12 18 1 0
BITMAP
3F80
71C0
60E0
40F0
40F0
01F0
03F0
0FE0
3FC0
7F80
7E00
F800
F010
F010
F030
7070
38F0
0FC0
ENDCHAR
STARTCHAR uni01A8
ENCODING 424
SWIDTH 446 0
DWIDTH 11 0
BBX 9 13 1 0
BITMAP
7E00
E300
C380
8780
0F80
3F00
7E00
7C00
F080
E080
E180
6380
3F00
ENDCHAR
STARTCHAR uni01AE
ENCODING 430
SWIDTH 624 0
DWIDTH 16 0
BBX 14 24 0 -6
BITMAP
FFFC
C78C
C78C
8784
8784
0780
0780
0780
0780
0780
0780
0780
0780
0780
0780
0780
0780
0780
0780
0780
0380
03C0
01E0
0070
ENDCHAR
STARTCHAR Uhorn
ENCODING 431
SWIDTH 786 0
DWIDTH 20 0
BBX 20 18 1 0
BITMAP
FF3FE0
3C0FF0
3C0F70
3C0F70
3C0F60
3C0F60
3C0F40
3C0F80
3C0F00
3C0F00
3C0F00
3C0F00
3C0F00
3C0F00
3C0F00
1E1E00
0E1C00
03F000
ENDCHAR
STARTCHAR uhorn
ENCODING 432
SWIDTH 629 0
DWIDTH 16 0
BBX 18 13 1 0
BITMAP
383980
F8FBC0
7879C0
7879C0
787980
787980
787900
787A00
787800
787800
7CF800
3FF800
1E7E00
ENDCHAR
STARTCHAR uni01B5
ENCODING 437
SWIDTH 614 0
DWIDTH 15 0
BBX 15 18 0 0
BITMAP
7FFE
707C
607C
40F8
41F0
01F0
03E0
03C0
0FF0
0F80
0F80
1F00
3E00
3E06
7C06
780E
F81C
FFFC
ENDCHAR
STARTCHAR uni01B6
ENCODING 438
SWIDTH 483 0
DWIDTH 12 0
BBX 12 13 0 0
BITMAP
7FF0
61E0
63E0
47C0
0780
0F80
3FC0
1F00
3E00
3C30
7C30
F870
FFF0
ENDCHAR
STARTCHAR uni01BB
ENCODING 443
SWIDTH 560 0
DWIDTH 14 0
BBX 14 17 0 0
BITMAP
0FC0
3CF0
7878
7878
3078
0078
0078
00F0
FFFC
0380
0700
0E00
3800
780C
7FF8
FFF8
FFF8
ENDCHAR
STARTCHAR uni01BC
ENCODING 444
SWIDTH 560 0
DWIDTH 14 0
BBX 12 17 1 0
BITMAP
7FE0
7FE0
7FE0
6000
6000
6000
6700
5FC0
61E0
40F0
00F0
00F0
60F0
E0F0
F0E0
79C0
1F80
ENDCHAR
STARTCHAR uni01C0
ENCODING 448
SWIDTH 284 0
DWIDTH 7 0
BBX 2 18 3 0
BITMAP
C0
C0
C0
C0
C0
C0
C0
C0
C0
C0
C0
C0
C0
C0
C0
C0
C0
C0
ENDCHAR
STARTCHAR uni01C2
ENCODING 450
SWIDTH 600 0
DWIDTH 15 0
BBX 12 18 1 -2
BITMAP
0600
0600
0600
0600
0600
0600
FFF0
FFF0
0600
0600
0600
FFF0
FFF0
0600
0600
0600
0600
0600
ENDCHAR
STARTCHAR uni01C3
ENCODING 451
SWIDTH 278 0
DWIDTH 7 0
BBX 5 18 1 0
BITMAP
70
F8
F8
F8
70
70
70
70
70
70
70
20
00
20
70
F8
F0
70
ENDCHAR
STARTCHAR uni01CD
ENCODING 461
SWIDTH 644 0
DWIDTH 16 0
BBX 17 25 -1 0
BITMAP
080800
041000
077000
03E000
01C000
008000
000000
01C000
01E000
03E000
03E000
02F000
06F000
06F000
04F000
047800
0C7800
0C7800
0FFC00
183C00
183C00
301E00
301E00
301E00
FC7F80
ENDCHAR
STARTCHAR uni01CE
ENCODING 462
SWIDTH 544 0
DWIDTH 14 0
BBX 13 20 1 0
BITMAP
2020
1040
1DC0
0F80
0700
0200
0000
0F80
79C0
F1E0
71E0
21E0
0FE0
39E0
71E0
F1E0
F1E0
F1E0
7FF8
3CE0
ENDCHAR
STARTCHAR uni01CF
ENCODING 463
SWIDTH 384 0
DWIDTH 10 0
BBX 9 25 1 0
BITMAP
8080
4100
7700
3E00
1C00
0800
0000
FF00
3C00
3C00
3C00
3C00
3C00
3C00
3C00
3C00
3C00
3C00
3C00
3C00
3C00
3C00
3C00
3C00
FF00
ENDCHAR
STARTCHAR uni01D0
ENCODING 464
SWIDTH 316 0
DWIDTH 8 0
BBX 9 20 -1 0
BITMAP
8080
4100
7700
3E00
1C00
0800
0000
0E00
3E00
1E00
1E00
1E00
1E00
1E00
1E00
1E00
1E00
1E00
1E00
7F80
ENDCHAR
STARTCHAR uni01D1
ENCODING 465
SWIDTH 768 0
DWIDTH 19 0
BBX 17 25 1 0
BITMAP
080800
041000
077000
03E000
01C000
008000
000000
03E000
1E3C00
3C1E00
780F00
780F00
F00700
F00780
F00780
F00780
F00780
F00780
F00780
F00700
780F00
780F00
3C1E00
1E3C00
03E000
ENDCHAR
STARTCHAR uni01D2
ENCODING 466
SWIDTH 585 0
DWIDTH 15 0
BBX 13 20 1 0
BITMAP
2020
1040
1DC0
0F80
0700
0200
0000
0F80
38E0
78F0
7070
F078
F078
F078
F078
F078
7070
78F0
38E0
0F80
ENDCHAR
STARTCHAR uni01D3
ENCODING 467
SWIDTH 786 0
DWIDTH 20 0
BBX 18 25 1 0
BITMAP
040400
020800
03B800
01F000
00E000
004000
000000
FF3FC0
3C0F00
3C0F00
3C0F00
3C0F00
3C0F00
3C0F00
3C0F00
3C0F00
3C0F00
3C0F00
3C0F00
3C0F00
3C0F00
3C0F00
1E1E00
0E1C00
03F000
ENDCHAR
STARTCHAR uni01D4
ENCODING 468
SWIDTH 629 0
DWIDTH 16 0
BBX 15 20 1 0
BITMAP
1010
0820
0EE0
07C0
0380
0100
0000
3838
F8F8
7878
7878
7878
7878
7878
7878
7878
7878
7CF8
3FF8
1E7E
ENDCHAR
STARTCHAR uni01D5
ENCODING 469
SWIDTH 786 0
DWIDTH 20 0
BBX 18 25 1 0
BITMAP
07F800
07F800
000000
061800
0F3C00
0F3C00
061800
FF3FC0
3C0F00
3C0F00
3C0F00
3C0F00
3C0F00
3C0F00
3C0F00
3C0F00
3C0F00
3C0F00
3C0F00
3C0F00
3C0F00
3C0F00
1E1E00
0E1C00
03F000
ENDCHAR
STARTCHAR uni01D6
ENCODING 470
SWIDTH 629 0
DWIDTH 16 0
BBX 15 21 1 0
BITMAP
1FE0
1FE0
0000
1860
3CF0
3CF0
1860
0000
3838
F8F8
7878
7878
7878
7878
7878
7878
7878
7878
7CF8
3FF8
1E7E
ENDCHAR
STARTCHAR uni01D7
ENCODING 471
SWIDTH 786 0
DWIDTH 20 0
BBX 18 29 1 0
BITMAP
000800
001C00
003800
007000
00C000
010000
000000
061800
0F3C00
0F3C00
061800
FF3FC0
3C0F00
3C0F00
3C0F00
3C0F00
3C0F00
3C0F00
3C0F00
3C0F00
3C0F00
3C0F00
3C0F00
3C0F00
3C0F00
3C0F00
1E1E00
0E1C00
03F000
ENDCHAR
STARTCHAR uni01D8
ENCODING 472
SWIDTH 629 0
DWIDTH 16 0
BBX 15 25 1 0
BITMAP
0020
0070
00E0
01C0
0300
0400
0000
1860
3CF0
3CF0
1860
0000
3838
F8F8
7878
7878
7878
7878
7878
7878
7878
7878
7CF8
3FF8
1E7E
ENDCHAR
STARTCHAR uni01D9
ENCODING 473
SWIDTH 786 0
DWIDTH 20 0
BBX 18 29 1 0
BITMAP
040400
020800
03B800
01F000
00E000
004000
000000
061800
0F3C00
0F3C00
061800
FF3FC0
3C0F00
3C0F00
3C0F00
3C0F00
3C0F00
3C0F00
3C0F00
3C0F00
3C0F00
3C0F00
3C0F00
3C0F00
3C0F00
3C0F00
1E1E00
0E1C00
03F000
ENDCHAR
STARTCHAR uni01DA
ENCODING 474
SWIDTH 629 0
DWIDTH 16 0
BBX 15 25 1 0
BITMAP
1010
0820
0EE0
07C0
0380
0100
0000
1860
3CF0
3CF0
1860
0000
3838
F8F8
7878
7878
7878
7878
7878
7878
7878
7878
7CF8
3FF8
1E7E
ENDCHAR
STARTCHAR uni01DB
ENCODING 475
SWIDTH 786 0
DWIDTH 20 0
BBX 18 29 1 0
BITMAP
040000
0E0000
070000
038000
00C000
002000
000000
061800
0F3C00
0F3C00
061800
FF3FC0
3C0F00
3C0F00
3C0F00
3C0F00
3C0F00
3C0F00
3C0F00
3C0F00
3C0F00
3C0F00
3C0F00
3C0F00
3C0F00
3C0F00
1E1E00
0E1C00
03F000
ENDCHAR
STARTCHAR uni01DC
ENCODING 476
SWIDTH 629 0
DWIDTH 16 0
BBX 15 25 1 0
BITMAP
1000
3800
1C00
0E00
0300
0080
0000
1860
3CF0
3CF0
1860
0000
3838
F8F8
7878
7878
7878
7878
7878
7878
7878
7878
7CF8
3FF8
1E7E
ENDCHAR
STARTCHAR uni01DD
ENCODING 477
SWIDTH 519 0
DWIDTH 13 0
BBX 12 13 1 0
BITMAP
1F00
3FC0
43E0
C1F0
00F0
00F0
FFF0
F0F0
F0F0
70E0
70E0
39C0
0F00
ENDCHAR
STARTCHAR uni01DE
ENCODING 478
SWIDTH 644 0
DWIDTH 16 0
BBX 18 25 -1 0
BITMAP
07F800
07F800
000000
061800
0F3C00
0F3C00
061800
01E000
01E000
01F000
03F000
03F000
02F800
067800
067800
047C00
0C3C00
0C3C00
0FFE00
181E00
181E00
101F00
300F00
300F00
FC3FC0
ENDCHAR
STARTCHAR uni01DF
ENCODING 479
SWIDTH 544 0
DWIDTH 14 0
BBX 13 21 1 0
BITMAP
3FC0
3FC0
0000
30C0
79E0
79E0
30C0
0000
0F80
79C0
F1E0
71E0
21E0
0FE0
39E0
71E0
F1E0
F1E0
F1E0
7FF8
3CE0
ENDCHAR
STARTCHAR uni01E0
ENCODING 480
SWIDTH 644 0
DWIDTH 16 0
BBX 17 26 -1 0
BITMAP
07F800
07F800
000000
00C000
01E000
01E000
00C000
000000
01C000
01E000
03E000
03E000
02F000
06F000
06F000
04F000
047800
0C7800
0C7800
0FFC00
183C00
183C00
301E00
301E00
301E00
FC7F80
ENDCHAR
STARTCHAR uni01E1
ENCODING 481
SWIDTH 544 0
DWIDTH 14 0
BBX 13 21 1 0
BITMAP
3FC0
3FC0
0000
0600
0F00
0F00
0600
0000
0F80
79C0
F1E0
71E0
21E0
0FE0
39E0
71E0
F1E0
F1E0
F1E0
7FF8
3CE0
ENDCHAR
STARTCHAR uni01E2
ENCODING 482
SWIDTH 879 0
DWIDTH 22 0
BBX 24 21 -2 0
BITMAP
003FC0
003FC0
000000
01FFFE
007E0E
00DE06
00DE06
019E02
019E00
031E08
031E18
03FFF8
061E18
041E08
0C1E00
081E00
181E03
181E03
301E03
301E07
FC7FFE
ENDCHAR
STARTCHAR uni01E3
ENCODING 483
SWIDTH 806 0
DWIDTH 20 0
BBX 19 16 1 0
BITMAP
07F800
07F800
000000
1F1E00
79F380
71E1C0
F1E1C0
71E1E0
23E1E0
0FFFE0
79E000
F1E000
F1F060
F1F0C0
7E7F80
3C1F00
ENDCHAR
STARTCHAR uni01E4
ENCODING 484
SWIDTH 726 0
DWIDTH 18 0
BBX 17 18 1 0
BITMAP
03F800
0E1E00
3C0600
380600
780200
700000
F00000
F00000
F00000
F00000
F07F00
F01E00
701E00
781E00
787F80
3C1E00
1E1E00
07F000
ENDCHAR
STARTCHAR uni01E5
ENCODING 485
SWIDTH 533 0
DWIDTH 13 0
BBX 12 19 1 -6
BITMAP
1F30
7BF0
F1C0
F1E0
F1E0
F1E0
71C0
3BC0
7F00
E000
FFC0
7FE0
3FF0
60F0
FFF0
E070
E060
78C0
1F00
ENDCHAR
STARTCHAR Gcaron
ENCODING 486
SWIDTH 726 0
DWIDTH 18 0
BBX 16 25 1 0
BITMAP
0808
0410
0770
03E0
01C0
0080
0000
03F8
0E1E
3C06
3806
7802
7000
F000
F000
F000
F000
F07F
F01E
701E
781E
781E
3C1E
1E1E
07F0
ENDCHAR
STARTCHAR gcaron
ENCODING 487
SWIDTH 533 0
DWIDTH 13 0
BBX 12 26 1 -6
BITMAP
4040
2080
3B80
1F00
0E00
0400
0000
1F30
7BF0
F1C0
F1E0
F1E0
F1E0
71C0
3BC0
7F00
E000
FFC0
7FE0
3FF0
60F0
E070
E070
E060
78C0
1F00
ENDCHAR
STARTCHAR uni01E8
ENCODING 488
SWIDTH 707 0
DWIDTH 18 0
BBX 17 25 1 0
BITMAP
101000
082000
0EE000
07C000
038000
010000
000000
FF1F80
3C0E00
3C1C00
3C3800
3C3000
3C6000
3CC000
3DC000
3FC000
3FE000
3DF000
3DF000
3CF800
3C7C00
3C7C00
3C3E00
3C1F00
FF0780
ENDCHAR
STARTCHAR uni01E9
ENCODING 489
SWIDTH 582 0
DWIDTH 15 0
BBX 15 26 0 0
BITMAP
4040
2080
3B80
1F00
0E00
0400
0000
0C00
7C00
3C00
3C00
3C00
3C00
3C3C
3C78
3CE0
3CC0
3D80
3F80
3FC0
3FE0
3DE0
3CF0
3CF8
3C7C
FF3E
ENDCHAR
STARTCHAR uni01EA
ENCODING 490
SWIDTH 768 0
DWIDTH 19 0
BBX 17 24 1 -6
BITMAP
03E000
1E3C00
3C1E00
780F00
780F00
F00700
F00780
F00780
F00780
F00780
F00780
F00780
F00700
780F00
780F00
3C1E00
1E3C00
03E000
00C000
018000
010000
030000
030000
01E000
ENDCHAR
STARTCHAR uni01EB
ENCODING 491
SWIDTH 585 0
DWIDTH 15 0
BBX 13 19 1 -6
BITMAP
0F80
38E0
78F0
7070
F078
F078
F078
F078
F078
7070
78F0
38E0
0F80
0300
0600
0400
0C00
0C00
0780
ENDCHAR
STARTCHAR uni01EC
ENCODING 492
SWIDTH 768 0
DWIDTH 19 0
BBX 17 27 1 -6
BITMAP
0FF000
0FF000
000000
03E000
1E3C00
3C1E00
780F00
780F00
F00700
F00780
F00780
F00780
F00780
F00780
F00780
F00700
780F00
780F00
3C1E00
1E3C00
03E000
00C000
018000
010000
030000
030000
01E000
ENDCHAR
STARTCHAR uni01ED
ENCODING 493
SWIDTH 585 0
DWIDTH 15 0
BBX 13 22 1 -6
BITMAP
1FE0
1FE0
0000
0F80
38E0
78F0
7070
F078
F078
F078
F078
F078
7070
78F0
38E0
0F80
0300
0600
0400
0C00
0C00
0780
ENDCHAR
STARTCHAR uni01F0
ENCODING 496
SWIDTH 316 0
DWIDTH 8 0
BBX 9 26 -1 -6
BITMAP
8080
4100
7700
3E00
1C00
0800
0000
0E00
3E00
1E00
1E00
1E00
1E00
1E00
1E00
1E00
1E00
1E00
1E00
1E00
1E00
1E00
1C00
3C00
7800
E000
ENDCHAR
STARTCHAR uni01F4
ENCODING 500
SWIDTH 726 0
DWIDTH 18 0
BBX 16 25 1 0
BITMAP
0010
0038
0070
00E0
0180
0200
0000
03F8
0E1E
3C06
3806
7802
7000
F000
F000
F000
F000
F07F
F01E
701E
781E
781E
3C1E
1E1E
07F0
ENDCHAR
STARTCHAR uni01F5
ENCODING 501
SWIDTH 533 0
DWIDTH 13 0
BBX 12 26 1 -6
BITMAP
0040
00E0
01C0
0380
0600
0800
0000
1F30
7BF0
F1C0
F1E0
F1E0
F1E0
71C0
3BC0
7F00
E000
FFC0
7FE0
3FF0
60F0
E070
E070
E060
78C0
1F00
ENDCHAR
STARTCHAR uni01F8
ENCODING 504
SWIDTH 739 0
DWIDTH 18 0
BBX 18 25 0 0
BITMAP
080000
1C0000
0E0000
070000
018000
004000
000000
FE0FC0
3E0300
3F0300
3F0300
378300
37C300
33C300
33E300
31F300
30F300
30FB00
307B00
303F00
303F00
301F00
301F00
300F00
FC0700
ENDCHAR
STARTCHAR uni01F9
ENCODING 505
SWIDTH 638 0
DWIDTH 16 0
BBX 16 20 0 0
BITMAP
0800
1C00
0E00
0700
0180
0040
0000
1CF0
7FF8
3E3C
3C3C
3C3C
3C3C
3C3C
3C3C
3C3C
3C3C
3C3C
3C3C
FE7F
ENDCHAR
STARTCHAR Aringacute
ENCODING 506
SWIDTH 644 0
DWIDTH 16 0
BBX 18 29 -1 0
BITMAP
000800
001C00
003800
007000
00C000
010000
000000
01E000
033000
033000
033000
01E000
01E000
01E000
01F000
03F000
03F000
027800
067800
067800
047C00
0C3C00
0FFC00
181E00
181E00
100F00
300F00
300F00
FC3FC0
ENDCHAR
STARTCHAR aringacute
ENCODING 507
SWIDTH 544 0
DWIDTH 14 0
BBX 13 26 1 0
BITMAP
0040
00E0
01C0
0380
0600
0800
0000
0F00
1980
1980
1980
0F00
0000
0F80
79C0
71E0
71E0
21E0
0FE0
3DE0
71E0
F1E0
F1E0
F1E0
7FF8
3CE0
ENDCHAR
STARTCHAR AEacute
ENCODING 508
SWIDTH 879 0
DWIDTH 22 0
BBX 24 25 -2 0
BITMAP
000080
0001C0
000380
000700
000C00
001000
000000
01FFFE
007E0E
00DE06
00DE06
019E02
019E00
031E08
031E18
03FFF8
061E18
041E08
0C1E00
081E00
181E03
181E03
301E03
301E07
FC7FFE
ENDCHAR
STARTCHAR aeacute
ENCODING 509
SWIDTH 806 0
DWIDTH 20 0
BBX 19 20 1 0
BITMAP
000800
001C00
003800
007000
00C000
010000
000000
1F1E00
79F380
71E1C0
F1E1C0
71E1E0
23E1E0
0FFFE0
79E000
F1E000
F1F060
F1F0C0
7E7F80
3C1F00
ENDCHAR
STARTCHAR Oslashacute
ENCODING 510
SWIDTH 768 0
DWIDTH 19 0
BBX 17 27 1 -1
BITMAP
000800
001C00
003800
007000
00C000
010000
000000
000600
03F400
1E3C00
3C0E00
781F00
783F00
F02700
F06780
F0C780
F0C780
F18780
F10780
F30780
760700
7E0F00
7C0F00
381E00
1C3C00
17E000
300000
ENDCHAR
STARTCHAR oslashacute
ENCODING 511
SWIDTH 585 0
DWIDTH 15 0
BBX 13 22 1 -1
BITMAP
0020
0070
00E0
01C0
0300
0400
0000
0020
0FA0
38E0
78F0
71F0
F178
F378
F278
F678
F478
7870
78F0
38E0
3F80
2000
ENDCHAR
STARTCHAR uni0200
ENCODING 512
SWIDTH 644 0
DWIDTH 16 0
BBX 17 25 -1 0
BITMAP
0C6000
1CE000
0C7000
063000
021000
030800
000000
01C000
01E000
03E000
03E000
02F000
06F000
06F000
04F000
047800
0C7800
0C7800
0FFC00
183C00
183C00
301E00
301E00
301E00
FC7F80
ENDCHAR
STARTCHAR uni0201
ENCODING 513
SWIDTH 544 0
DWIDTH 14 0
BBX 13 20 1 0
BITMAP
6300
E700
6380
3180
1080
1840
0000
0F80
79C0
F1E0
71E0
21E0
0FE0
39E0
71E0
F1E0
F1E0
F1E0
7FF8
3CE0
ENDCHAR
STARTCHAR uni0202
ENCODING 514
SWIDTH 644 0
DWIDTH 16 0
BBX 17 23 -1 0
BITMAP
01E000
03F000
061800
040800
000000
01C000
01E000
03E000
03E000
02F000
06F000
06F000
04F000
047800
0C7800
0C7800
0FFC00
183C00
183C00
301E00
301E00
301E00
FC7F80
ENDCHAR
STARTCHAR uni0203
ENCODING 515
SWIDTH 544 0
DWIDTH 14 0
BBX 13 18 1 0
BITMAP
0F00
1F80
30C0
2040
0000
0F80
79C0
F1E0
71E0
21E0
0FE0
39E0
71E0
F1E0
F1E0
F1E0
7FF8
3CE0
ENDCHAR
STARTCHAR uni0204
ENCODING 516
SWIDTH 629 0
DWIDTH 16 0
BBX 14 25 1 0
BITMAP
3180
7380
31C0
18C0
0840
0C20
0000
FFF8
3C38
3C18
3C18
3C08
3C00
3C20
3C60
3FE0
3C60
3C20
3C00
3C00
3C0C
3C0C
3C0C
3C1C
FFF8
ENDCHAR
STARTCHAR uni0205
ENCODING 517
SWIDTH 519 0
DWIDTH 13 0
BBX 12 20 1 0
BITMAP
6300
E700
6380
3180
1080
1840
0000
0F00
39C0
70E0
70E0
F0F0
F0F0
FFF0
F000
F000
F830
7C20
3FC0
0F80
ENDCHAR
STARTCHAR uni0206
ENCODING 518
SWIDTH 629 0
DWIDTH 16 0
BBX 14 23 1 0
BITMAP
0780
0FC0
1860
1020
0000
FFF8
3C38
3C18
3C18
3C08
3C00
3C20
3C60
3FE0
3C60
3C20
3C00
3C00
3C0C
3C0C
3C0C
3C1C
FFF8
ENDCHAR
STARTCHAR uni0207
ENCODING 519
SWIDTH 519 0
DWIDTH 13 0
BBX 12 18 1 0
BITMAP
0F00
1F80
30C0
2040
0000
0F00
39C0
70E0
70E0
F0F0
F0F0
FFF0
F000
F000
F830
7C20
3FC0
0F80
ENDCHAR
STARTCHAR uni0208
ENCODING 520
SWIDTH 384 0
DWIDTH 10 0
BBX 10 25 -1 0
BITMAP
6300
E700
6380
3180
1080
1840
0000
3FC0
0F00
0F00
0F00
0F00
0F00
0F00
0F00
0F00
0F00
0F00
0F00
0F00
0F00
0F00
0F00
0F00
3FC0
ENDCHAR
STARTCHAR uni0209
ENCODING 521
SWIDTH 316 0
DWIDTH 8 0
BBX 10 20 -2 0
BITMAP
6300
E700
6380
3180
1080
1840
0000
0700
1F00
0F00
0F00
0F00
0F00
0F00
0F00
0F00
0F00
0F00
0F00
3FC0
ENDCHAR
STARTCHAR uni020A
ENCODING 522
SWIDTH 384 0
DWIDTH 10 0
BBX 8 23 1 0
BITMAP
3C
7E
C3
81
00
FF
3C
3C
3C
3C
3C
3C
3C
3C
3C
3C
3C
3C
3C
3C
3C
3C
FF
ENDCHAR
STARTCHAR uni020B
ENCODING 523
SWIDTH 316 0
DWIDTH 8 0
BBX 8 18 0 0
BITMAP
3C
7E
C3
81
00
1C
7C
3C
3C
3C
3C
3C
3C
3C
3C
3C
3C
FF
ENDCHAR
STARTCHAR uni020C
ENCODING 524
SWIDTH 768 0
DWIDTH 19 0
BBX 17 25 1 0
BITMAP
0C6000
1CE000
0C7000
063000
021000
030800
000000
03E000
1E3C00
3C1E00
780F00
780F00
F00700
F00780
F00780
F00780
F00780
F00780
F00780
F00700
780F00
780F00
3C1E00
1E3C00
03E000
ENDCHAR
STARTCHAR uni020D
ENCODING 525
SWIDTH 585 0
DWIDTH 15 0
BBX 13 20 1 0
BITMAP
3180
7380
31C0
18C0
0840
0C20
0000
0F80
38E0
78F0
7070
F078
F078
F078
F078
F078
7070
78F0
38E0
0F80
ENDCHAR
STARTCHAR uni020E
ENCODING 526
SWIDTH 768 0
DWIDTH 19 0
BBX 17 23 1 0
BITMAP
01E000
03F000
061800
040800
000000
03E000
1E3C00
3C1E00
780F00
780F00
F00700
F00780
F00780
F00780
F00780
F00780
F00780
F00700
780F00
780F00
3C1E00
1E3C00
03E000
ENDCHAR
STARTCHAR uni020F
ENCODING 527
SWIDTH 585 0
DWIDTH 15 0
BBX 13 18 1 0
BITMAP
0780
0FC0
1860
1020
0000
0F80
38E0
78F0
7070
F078
F078
F078
F078
F078
7070
78F0
38E0
0F80
ENDCHAR
STARTCHAR uni0210
ENCODING 528
SWIDTH 684 0
DWIDTH 17 0
BBX 16 25 1 0
BITMAP
18C0
39C0
18E0
0C60
0420
0610
0000
FFE0
3C78
3C7C
3C3C
3C3C
3C3C
3C3C
3C78
3C70
3FC0
3CF0
3C78
3C78
3C78
3C3C
3C3C
3C3C
FF1F
ENDCHAR
STARTCHAR uni0211
ENCODING 529
SWIDTH 440 0
DWIDTH 11 0
BBX 11 20 0 0
BITMAP
6300
E700
6380
3180
1080
1840
0000
1CC0
7DE0
3FE0
3CC0
3C00
3C00
3C00
3C00
3C00
3C00
3C00
3C00
FF00
ENDCHAR
STARTCHAR uni0212
ENCODING 530
SWIDTH 684 0
DWIDTH 17 0
BBX 16 23 1 0
BITMAP
03C0
07E0
0C30
0810
0000
FFE0
3C78
3C7C
3C3C
3C3C
3C3C
3C3C
3C78
3C70
3FC0
3CF0
3C78
3C78
3C78
3C3C
3C3C
3C3C
FF1F
ENDCHAR
STARTCHAR uni0213
ENCODING 531
SWIDTH 440 0
DWIDTH 11 0
BBX 11 18 0 0
BITMAP
0F00
1F80
30C0
2040
0000
1CC0
7DE0
3FE0
3CC0
3C00
3C00
3C00
3C00
3C00
3C00
3C00
3C00
FF00
ENDCHAR
STARTCHAR uni0214
ENCODING 532
SWIDTH 786 0
DWIDTH 20 0
BBX 18 25 1 0
BITMAP
0C6000
1CE000
0C7000
063000
021000
030800
000000
FF3FC0
3C0F00
3C0F00
3C0F00
3C0F00
3C0F00
3C0F00
3C0F00
3C0F00
3C0F00
3C0F00
3C0F00
3C0F00
3C0F00
3C0F00
1E1E00
0E1C00
03F000
ENDCHAR
STARTCHAR uni0215
ENCODING 533
SWIDTH 629 0
DWIDTH 16 0
BBX 15 20 1 0
BITMAP
18C0
39C0
18E0
0C60
0420
0610
0000
3838
F8F8
7878
7878
7878
7878
7878
7878
7878
7878
7CF8
3FF8
1E7E
ENDCHAR
STARTCHAR uni0216
ENCODING 534
SWIDTH 786 0
DWIDTH 20 0
BBX 18 23 1 0
BITMAP
01E000
03F000
061800
040800
000000
FF3FC0
3C0F00
3C0F00
3C0F00
3C0F00
3C0F00
3C0F00
3C0F00
3C0F00
3C0F00
3C0F00
3C0F00
3C0F00
3C0F00
3C0F00
1E1E00
0E1C00
03F000
ENDCHAR
STARTCHAR uni0217
ENCODING 535
SWIDTH 629 0
DWIDTH 16 0
BBX 15 18 1 0
BITMAP
0780
0FC0
1860
1020
0000
3838
F8F8
7878
7878
7878
7878
7878
7878
7878
7878
7CF8
3FF8
1E7E
ENDCHAR
STARTCHAR Scommaaccent
ENCODING 536
SWIDTH 561 0
DWIDTH 14 0
BBX 12 28 1 -10
BITMAP
1FC0
38E0
7060
F020
F020
F800
FC00
7F00
3FC0
1FE0
07E0
01F0
80F0
80F0
C0F0
E0E0
F1C0
3F00
0000
0600
0E00
0F00
0700
0700
0600
0600
0C00
0800
ENDCHAR
STARTCHAR scommaaccent
ENCODING 537
SWIDTH 446 0
DWIDTH 11 0
BBX 9 23 1 -10
BITMAP
3F00
6380
E180
F080
F800
7E00
3F00
1F00
8780
8380
C380
E300
7E00
0000
0C00
1C00
1E00
0E00
0E00
0C00
0C00
1800
1000
ENDCHAR
STARTCHAR Tcommaaccent
ENCODING 538
SWIDTH 624 0
DWIDTH 16 0
BBX 14 28 0 -10
BITMAP
FFFC
C78C
C78C
8784
8784
0780
0780
0780
0780
0780
0780
0780
0780
0780
0780
0780
0780
1FE0
0000
0300
0700
0780
0380
0380
0300
0300
0600
0400
ENDCHAR
STARTCHAR tcommaaccent
ENCODING 539
SWIDTH 370 0
DWIDTH 9 0
BBX 8 26 1 -10
BITMAP
18
38
38
FE
78
78
78
78
78
78
78
78
78
78
3F
1C
00
18
38
3C
1C
1C
18
18
30
20
ENDCHAR
STARTCHAR uni021E
ENCODING 542
SWIDTH 807 0
DWIDTH 20 0
BBX 18 25 1 0
BITMAP
040400
020800
03B800
01F000
00E000
004000
000000
FF3FC0
3C0F00
3C0F00
3C0F00
3C0F00
3C0F00
3C0F00
3C0F00
3FFF00
3C0F00
3C0F00
3C0F00
3C0F00
3C0F00
3C0F00
3C0F00
3C0F00
FF3FC0
ENDCHAR
STARTCHAR uni021F
ENCODING 543
SWIDTH 631 0
DWIDTH 16 0
BBX 16 26 0 0
BITMAP
4040
2080
3B80
1F00
0E00
0400
0000
0C00
7C00
3C00
3C00
3C00
3C00
3CF0
3FF8
3E3C
3C3C
3C3C
3C3C
3C3C
3C3C
3C3C
3C3C
3C3C
3C3C
FE7F
ENDCHAR
STARTCHAR uni0226
ENCODING 550
SWIDTH 644 0
DWIDTH 16 0
BBX 17 23 -1 0
BITMAP
00C000
01E000
01E000
00C000
000000
01C000
01E000
03E000
03E000
02F000
06F000
06F000
04F000
047800
0C7800
0C7800
0FFC00
183C00
183C00
301E00
301E00
301E00
FC7F80
ENDCHAR
STARTCHAR uni0227
ENCODING 551
SWIDTH 544 0
DWIDTH 14 0
BBX 13 18 1 0
BITMAP
0600
0F00
0F00
0600
0000
0F80
79C0
F1E0
71E0
21E0
0FE0
39E0
71E0
F1E0
F1E0
F1E0
7FF8
3CE0
ENDCHAR
STARTCHAR uni0228
ENCODING 552
SWIDTH 629 0
DWIDTH 16 0
BBX 14 24 1 -6
BITMAP
FFF8
3C38
3C18
3C18
3C08
3C00
3C20
3C60
3FE0
3C60
3C20
3C00
3C00
3C0C
3C0C
3C0C
3C1C
FFF8
0300
0300
07C0
01C0
01C0
0700
ENDCHAR
STARTCHAR uni0229
ENCODING 553
SWIDTH 519 0
DWIDTH 13 0
BBX 12 19 1 -6
BITMAP
0F00
39C0
70E0
70E0
F0F0
F0F0
FFF0
F000
F000
F830
7C20
3FC0
0F80
0600
0600
0F80
0380
0380
0E00
ENDCHAR
STARTCHAR uni022A
ENCODING 554
SWIDTH 768 0
DWIDTH 19 0
BBX 17 25 1 0
BITMAP
07F800
07F800
000000
0C1800
1E3C00
1E3C00
0C1800
03E000
1E3C00
3C1E00
780F00
780F00
F00700
F00780
F00780
F00780
F00780
F00780
F00780
F00700
780F00
780F00
3C1E00
1E3C00
03E000
ENDCHAR
STARTCHAR uni022B
ENCODING 555
SWIDTH 585 0
DWIDTH 15 0
BBX 13 21 1 0
BITMAP
3FC0
3FC0
0000
30C0
79E0
79E0
30C0
0000
0F80
38E0
78F0
7070
F078
F078
F078
F078
F078
7070
78F0
38E0
0F80
ENDCHAR
STARTCHAR uni022C
ENCODING 556
SWIDTH 768 0
DWIDTH 19 0
BBX 17 25 1 0
BITMAP
07F800
07F800
000000
070000
0F8400
087800
003000
03E000
1E3C00
3C1E00
780F00
780F00
F00700
F00780
F00780
F00780
F00780
F00780
F00780
F00700
780F00
780F00
3C1E00
1E3C00
03E000
ENDCHAR
STARTCHAR uni022D
ENCODING 557
SWIDTH 585 0
DWIDTH 15 0
BBX 13 21 1 0
BITMAP
1FE0
1FE0
0000
1C10
3E20
63E0
01C0
0000
0F80
38E0
78F0
7070
F078
F078
F078
F078
F078
7070
78F0
38E0
0F80
ENDCHAR
STARTCHAR uni022E
ENCODING 558
SWIDTH 768 0
DWIDTH 19 0
BBX 17 23 1 0
BITMAP
00C000
01E000
01E000
00C000
000000
03E000
1E3C00
3C1E00
780F00
780F00
F00700
F00780
F00780
F00780
F00780
F00780
F00780
F00700
780F00
780F00
3C1E00
1E3C00
03E000
ENDCHAR
STARTCHAR uni022F
ENCODING 559
SWIDTH 585 0
DWIDTH 15 0
BBX 13 18 1 0
BITMAP
0300
0780
0780
0300
0000
0F80
38E0
78F0
7070
F078
F078
F078
F078
F078
7070
78F0
38E0
0F80
ENDCHAR
STARTCHAR uni0230
ENCODING 560
SWIDTH 768 0
DWIDTH 19 0
BBX 17 26 1 0
BITMAP
07F800
07F800
000000
00C000
01E000
01E000
00C000
000000
03E000
1E3C00
3C1E00
780F00
780F00
F00700
F00780
F00780
F00780
F00780
F00780
F00780
F00700
780F00
780F00
3C1E00
1E3C00
03E000
ENDCHAR
STARTCHAR uni0231
ENCODING 561
SWIDTH 585 0
DWIDTH 15 0
BBX 13 21 1 0
BITMAP
1FE0
1FE0
0000
0300
0780
0780
0300
0000
0F80
38E0
78F0
7070
F078
F078
F078
F078
F078
7070
78F0
38E0
0F80
ENDCHAR
STARTCHAR uni0232
ENCODING 562
SWIDTH 617 0
DWIDTH 15 0
BBX 16 21 0 0
BITMAP
0FF0
0FF0
0000
FF3F
3C0C
3C0C
1E18
1E18
0F10
0F30
0F20
07E0
07C0
03C0
03C0
03C0
03C0
03C0
03C0
03C0
0FF0
ENDCHAR
STARTCHAR uni0233
ENCODING 563
SWIDTH 524 0
DWIDTH 13 0
BBX 14 22 0 -6
BITMAP
1FE0
1FE0
0000
FE7C
7C38
3C30
3C30
1E20
1E60
0E60
0F40
0FC0
0780
0780
0380
0300
0300
0300
3200
3C00
7C00
3800
ENDCHAR
STARTCHAR uni0250
ENCODING 592
SWIDTH 544 0
DWIDTH 14 0
BBX 13 13 1 0
BITMAP
39E0
FFF0
3C78
3C78
3C78
3C70
3CE0
3F80
3C20
3C70
3C78
1CF0
0F80
ENDCHAR
STARTCHAR uni0254
ENCODING 596
SWIDTH 494 0
DWIDTH 12 0
BBX 11 13 1 0
BITMAP
3F00
F380
F3C0
E1C0
01E0
01E0
01E0
01E0
01E0
83C0
C7C0
7F80
1F00
ENDCHAR
STARTCHAR uni0258
ENCODING 600
SWIDTH 519 0
DWIDTH 13 0
BBX 12 13 1 0
BITMAP
0F00
39C0
70E0
70E0
F0F0
F0F0
FFF0
00F0
00F0
C1F0
43E0
3FC0
1F00
ENDCHAR
STARTCHAR uni0259
ENCODING 601
SWIDTH 519 0
DWIDTH 13 0
BBX 12 13 1 0
BITMAP
1F00
3FC0
43E0
C1F0
00F0
00F0
FFF0
F0F0
F0F0
70E0
70E0
39C0
0F00
ENDCHAR
STARTCHAR uni025F
ENCODING 607
SWIDTH 342 0
DWIDTH 9 0
BBX 10 19 0 -7
BITMAP
3FC0
0F00
0F00
0F00
0F00
0F00
0F00
0F00
0F00
0F00
0F00
0F00
3F80
0F00
0F00
4F00
E600
E600
7800
ENDCHAR
STARTCHAR uni0265
ENCODING 613
SWIDTH 631 0
DWIDTH 16 0
BBX 16 19 0 -7
BITMAP
FE7F
3C3C
3C3C
3C3C
3C3C
3C3C
3C3C
3C3C
3C3C
3C3C
3C7C
1FFC
0F3C
003C
003C
003C
003C
003E
0030
ENDCHAR
STARTCHAR uni0275
ENCODING 629
SWIDTH 585 0
DWIDTH 15 0
BBX 13 13 1 0
BITMAP
0F80
38E0
78F0
7070
F078
F078
FFF8
F078
F078
7070
78F0
38E0
0F80
ENDCHAR
STARTCHAR uni0279
ENCODING 633
SWIDTH 440 0
DWIDTH 11 0
BBX 11 13 0 0
BITMAP
1FE0
0780
0780
0780
0780
0780
0780
0780
0780
6780
FF80
F7C0
6700
ENDCHAR
STARTCHAR uni0287
ENCODING 647
SWIDTH 370 0
DWIDTH 9 0
BBX 8 16 1 0
BITMAP
38
FC
1E
1E
1E
1E
1E
1E
1E
1E
1E
1E
7F
1C
1C
18
ENDCHAR
STARTCHAR uni0288
ENCODING 648
SWIDTH 370 0
DWIDTH 9 0
BBX 8 22 1 -6
BITMAP
18
38
38
FE
78
78
78
78
78
78
78
78
78
78
78
78
78
78
38
3C
1E
07
ENDCHAR
STARTCHAR uni0289
ENCODING 649
SWIDTH 629 0
DWIDTH 16 0
BBX 15 13 1 0
BITMAP
3838
F8F8
7878
7878
7878
7878
FFFE
7878
7878
7878
7CF8
3FF8
1E7E
ENDCHAR
STARTCHAR uni028C
ENCODING 652
SWIDTH 520 0
DWIDTH 13 0
BBX 14 13 0 0
BITMAP
0380
0780
0780
0FC0
0DC0
09E0
19E0
19E0
10F0
30F0
30F0
7078
F9FC
ENDCHAR
STARTCHAR uni028D
ENCODING 653
SWIDTH 774 0
DWIDTH 19 0
BBX 20 13 0 0
BITMAP
070E00
070F00
0F0F00
0F8F00
0B9F00
1B9780
1BD380
13F380
11F3C0
31E3C0
31E1C0
70E1E0
F8E3F0
ENDCHAR
STARTCHAR uni028E
ENCODING 654
SWIDTH 524 0
DWIDTH 13 0
BBX 14 19 0 0
BITMAP
0070
00F8
00F0
0130
0300
0300
0300
0700
0780
0780
0FC0
0BC0
19C0
19E0
11E0
30F0
30F0
70F8
F9FC
ENDCHAR
STARTCHAR uni029E
ENCODING 670
SWIDTH 582 0
DWIDTH 15 0
BBX 15 19 0 -7
BITMAP
F9FE
7C78
3E78
1E78
0F78
0FF8
07F8
03F8
0378
0678
0E78
3C78
7878
0078
0078
0078
0078
007C
0060
ENDCHAR
STARTCHAR uni02BB
ENCODING 699
SWIDTH 252 0
DWIDTH 6 0
BBX 4 8 1 10
BITMAP
10
20
60
60
E0
E0
F0
60
ENDCHAR
STARTCHAR afii57929
ENCODING 700
SWIDTH 252 0
DWIDTH 6 0
BBX 4 8 1 10
BITMAP
60
F0
70
70
60
60
40
80
ENDCHAR
STARTCHAR afii64937
ENCODING 701
SWIDTH 252 0
DWIDTH 6 0
BBX 4 8 1 10
BITMAP
60
F0
E0
E0
60
60
20
10
ENDCHAR
STARTCHAR circumflex
ENCODING 710
SWIDTH 430 0
DWIDTH 11 0
BBX 9 6 1 13
BITMAP
0800
1C00
3E00
7700
4100
8080
ENDCHAR
STARTCHAR caron
ENCODING 711
SWIDTH 430 0
DWIDTH 11 0
BBX 9 6 1 13
BITMAP
8080
4100
7700
3E00
1C00
0800
ENDCHAR
STARTCHAR uni02C8
ENCODING 712
SWIDTH 252 0
DWIDTH 6 0
BBX 4 7 1 11
BITMAP
F0
F0
F0
60
60
60
60
ENDCHAR
STARTCHAR macron
ENCODING 713
SWIDTH 430 0
DWIDTH 11 0
BBX 8 2 1 15
BITMAP
FF
FF
ENDCHAR
STARTCHAR uni02CA
ENCODING 714
SWIDTH 430 0
DWIDTH 11 0
BBX 7 6 3 13
BITMAP
04
0E
1C
38
60
80
ENDCHAR
STARTCHAR uni02CB
ENCODING 715
SWIDTH 430 0
DWIDTH 11 0
BBX 7 6 1 13
BITMAP
40
E0
70
38
0C
02
ENDCHAR
STARTCHAR uni02CD
ENCODING 717
SWIDTH 430 0
DWIDTH 11 0
BBX 8 2 1 -3
BITMAP
FF
FF
ENDCHAR
STARTCHAR uni02CE
ENCODING 718
SWIDTH 430 0
DWIDTH 11 0
BBX 7 6 1 -7
BITMAP
40
E0
70
38
0C
02
ENDCHAR
STARTCHAR uni02CF
ENCODING 719
SWIDTH 430 0
DWIDTH 11 0
BBX 7 6 3 -7
BITMAP
04
0E
1C
38
60
80
ENDCHAR
STARTCHAR breve
ENCODING 728
SWIDTH 430 0
DWIDTH 11 0
BBX 8 4 1 14
BITMAP
81
C3
7E
3C
ENDCHAR
STARTCHAR dotaccent
ENCODING 729
SWIDTH 430 0
DWIDTH 11 0
BBX 4 4 3 14
BITMAP
60
F0
F0
60
ENDCHAR
STARTCHAR ring
ENCODING 730
SWIDTH 430 0
DWIDTH 11 0
BBX 7 5 2 14
BITMAP
38
C6
C6
C6
38
ENDCHAR
STARTCHAR ogonek
ENCODING 731
SWIDTH 430 0
DWIDTH 11 0
BBX 5 6 3 -6
BITMAP
30
60
40
C0
C0
78
ENDCHAR
STARTCHAR tilde
ENCODING 732
SWIDTH 430 0
DWIDTH 11 0
BBX 11 4 0 14
BITMAP
1020
7FC0
7FC0
8100
ENDCHAR
STARTCHAR hungarumlaut
ENCODING 733
SWIDTH 430 0
DWIDTH 11 0
BBX 10 6 1 13
BITMAP
3180
39C0
7180
6300
4200
8600
ENDCHAR
STARTCHAR uni02EE
ENCODING 750
SWIDTH 473 0
DWIDTH 12 0
BBX 10 8 1 10
BITMAP
6180
73C0
73C0
71C0
7180
6180
4300
8200
ENDCHAR
STARTCHAR uni037E
ENCODING 894
SWIDTH 280 0
DWIDTH 7 0
BBX 5 17 1 -4
BITMAP
70
78
F8
70
20
00
00
00
30
78
78
38
38
30
20
40
80
ENDCHAR
STARTCHAR tonos
ENCODING 900
SWIDTH 430 0
DWIDTH 11 0
BBX 7 6 3 13
BITMAP
04
0E
1C
38
60
80
ENDCHAR
STARTCHAR dieresistonos
ENCODING 901
SWIDTH 430 0
DWIDTH 11 0
BBX 10 11 0 14
BITMAP
0080
01C0
0380
0700
0C00
1000
0000
6180
F3C0
F3C0
6180
ENDCHAR
STARTCHAR anoteleia
ENCODING 903
SWIDTH 280 0
DWIDTH 7 0
BBX 5 5 1 4
BITMAP
20
70
F8
70
20
ENDCHAR
STARTCHAR mu
ENCODING 956
SWIDTH 629 0
DWIDTH 16 0
BBX 15 19 1 -6
BITMAP
3838
F8F8
7878
7878
7878
7878
7878
7878
7878
7878
7CF8
7FF8
6E7E
6000
7000
7000
7800
7000
6000
ENDCHAR
STARTCHAR uni1E00
ENCODING 7680
SWIDTH 644 0
DWIDTH 16 0
BBX 17 24 -1 -6
BITMAP
01C000
01E000
03E000
03E000
02F000
06F000
06F000
04F000
047800
0C7800
0C7800
0FFC00
183C00
183C00
301E00
301E00
301E00
FC7F80
000000
00E000
031800
031800
031800
00E000
ENDCHAR
STARTCHAR uni1E01
ENCODING 7681
SWIDTH 544 0
DWIDTH 14 0
BBX 13 19 1 -6
BITMAP
0F80
79C0
F1E0
71E0
21E0
0FE0
39E0
71E0
F1E0
F1E0
F1E0
7FF8
3CE0
0000
0700
18C0
18C0
18C0
0700
ENDCHAR
STARTCHAR uni1E02
ENCODING 7682
SWIDTH 683 0
DWIDTH 17 0
BBX 15 23 1 0
BITMAP
0300
0780
0780
0300
0000
FFE0
3C78
3C3C
3C3C
3C3C
3C38
3C38
3C70
3FE0
3C78
3C3C
3C1E
3C1E
3C1E
3C1E
3C1E
3C3C
FFF0
ENDCHAR
STARTCHAR uni1E03
ENCODING 7683
SWIDTH 605 0
DWIDTH 15 0
BBX 13 24 1 0
BITMAP
1800
3C00
3C00
1800
0000
1800
F800
7800
7800
7800
7800
79C0
7FF0
7CF0
7878
7878
7878
7878
7878
7878
7870
7870
78E0
6FC0
ENDCHAR
STARTCHAR uni1E04
ENCODING 7684
SWIDTH 683 0
DWIDTH 17 0
BBX 15 23 1 -5
BITMAP
FFE0
3C78
3C3C
3C3C
3C3C
3C38
3C38
3C70
3FE0
3C78
3C3C
3C1E
3C1E
3C1E
3C1E
3C1E
3C3C
FFF0
0000
0180
03C0
03C0
0180
ENDCHAR
STARTCHAR uni1E05
ENCODING 7685
SWIDTH 605 0
DWIDTH 15 0
BBX 13 24 1 -5
BITMAP
1800
F800
7800
7800
7800
7800
79C0
7FF0
7CF0
7878
7878
7878
7878
7878
7878
7870
7870
78E0
6FC0
0000
0600
0F00
0F00
0600
ENDCHAR
STARTCHAR uni1E06
ENCODING 7686
SWIDTH 683 0
DWIDTH 17 0
BBX 15 21 1 -3
BITMAP
FFE0
3C78
3C3C
3C3C
3C3C
3C38
3C38
3C70
3FE0
3C78
3C3C
3C1E
3C1E
3C1E
3C1E
3C1E
3C3C
FFF0
0000
0FF0
0FF0
ENDCHAR
STARTCHAR uni1E07
ENCODING 7687
SWIDTH 605 0
DWIDTH 15 0
BBX 13 22 1 -3
BITMAP
1800
F800
7800
7800
7800
7800
79C0
7FF0
7CF0
7878
7878
7878
7878
7878
7878
7870
7870
78E0
6FC0
0000
3FC0
3FC0
ENDCHAR
STARTCHAR uni1E08
ENCODING 7688
SWIDTH 689 0
DWIDTH 17 0
BBX 15 31 1 -6
BITMAP
0020
0070
00E0
01C0
0300
0400
0000
03F8
1E0E
3C06
7806
7802
7000
F000
F000
F000
F000
F000
F000
F002
7802
7806
3C06
0F0E
03F8
00C0
01C0
01F0
0070
0070
03C0
ENDCHAR
STARTCHAR uni1E09
ENCODING 7689
SWIDTH 494 0
DWIDTH 12 0
BBX 11 26 1 -6
BITMAP
0080
01C0
0380
0700
0C00
1000
0000
1F00
39C0
71E0
71C0
F000
F000
F000
F000
F000
7860
78C0
3F80
1E00
0400
0C00
0F00
0700
0700
1C00
ENDCHAR
STARTCHAR uni1E0A
ENCODING 7690
SWIDTH 777 0
DWIDTH 19 0
BBX 17 23 1 0
BITMAP
018000
03C000
03C000
018000
000000
FFF000
3C3C00
3C1E00
3C0F00
3C0F00
3C0780
3C0780
3C0780
3C0780
3C0780
3C0780
3C0780
3C0700
3C0F00
3C0F00
3C1E00
3C3C00
FFE000
ENDCHAR
STARTCHAR uni1E0B
ENCODING 7691
SWIDTH 605 0
DWIDTH 15 0
BBX 14 24 1 0
BITMAP
00C0
01E0
01E0
00C0
0000
0030
01F0
00F0
00F0
00F0
00F0
0FF0
38F0
78F0
70F0
F0F0
F0F0
F0F0
F0F0
F0F0
78F0
78F0
3FF0
1CFC
ENDCHAR
STARTCHAR uni1E0C
ENCODING 7692
SWIDTH 777 0
DWIDTH 19 0
BBX 17 23 1 -5
BITMAP
FFF000
3C3C00
3C1E00
3C0F00
3C0F00
3C0780
3C0780
3C0780
3C0780
3C0780
3C0780
3C0780
3C0700
3C0F00
3C0F00
3C1E00
3C3C00
FFE000
000000
018000
03C000
03C000
018000
ENDCHAR
STARTCHAR uni1E0D
ENCODING 7693
SWIDTH 605 0
DWIDTH 15 0
BBX 14 24 1 -5
BITMAP
0030
01F0
00F0
00F0
00F0
00F0
0FF0
38F0
78F0
70F0
F0F0
F0F0
F0F0
F0F0
F0F0
78F0
78F0
3FF0
1CFC
0000
0300
0780
0780
0300
ENDCHAR
STARTCHAR uni1E0E
ENCODING 7694
SWIDTH 777 0
DWIDTH 19 0
BBX 17 21 1 -3
BITMAP
FFF000
3C3C00
3C1E00
3C0F00
3C0F00
3C0780
3C0780
3C0780
3C0780
3C0780
3C0780
3C0780
3C0700
3C0F00
3C0F00
3C1E00
3C3C00
FFE000
000000
0FF000
0FF000
ENDCHAR
STARTCHAR uni1E0F
ENCODING 7695
SWIDTH 605 0
DWIDTH 15 0
BBX 14 22 1 -3
BITMAP
0030
01F0
00F0
00F0
00F0
00F0
0FF0
38F0
78F0
70F0
F0F0
F0F0
F0F0
F0F0
F0F0
78F0
78F0
3FF0
1CFC
0000
1FE0
1FE0
ENDCHAR
STARTCHAR uni1E10
ENCODING 7696
SWIDTH 777 0
DWIDTH 19 0
BBX 17 24 1 -6
BITMAP
FFF000
3C3C00
3C1E00
3C0F00
3C0F00
3C0780
3C0780
3C0780
3C0780
3C0780
3C0780
3C0780
3C0700
3C0F00
3C0F00
3C1E00
3C3C00
FFE000
018000
018000
03E000
00E000
00E000
038000
ENDCHAR
STARTCHAR uni1E11
ENCODING 7697
SWIDTH 605 0
DWIDTH 15 0
BBX 14 25 1 -6
BITMAP
0030
01F0
00F0
00F0
00F0
00F0
0FF0
38F0
78F0
70F0
F0F0
F0F0
F0F0
F0F0
F0F0
78F0
78F0
3FF0
1CFC
0300
0300
07C0
01C0
01C0
0700
ENDCHAR
STARTCHAR uni1E12
ENCODING 7698
SWIDTH 777 0
DWIDTH 19 0
BBX 17 25 1 -7
BITMAP
FFF000
3C3C00
3C1E00
3C0F00
3C0F00
3C0780
3C0780
3C0780
3C0780
3C0780
3C0780
3C0780
3C0700
3C0F00
3C0F00
3C1E00
3C3C00
FFE000
000000
008000
01C000
03E000
077000
041000
080800
ENDCHAR
STARTCHAR uni1E13
ENCODING 7699
SWIDTH 605 0
DWIDTH 15 0
BBX 14 26 1 -7
BITMAP
0030
01F0
00F0
00F0
00F0
00F0
0FF0
38F0
78F0
70F0
F0F0
F0F0
F0F0
F0F0
F0F0
78F0
78F0
3FF0
1CFC
0000
0100
0380
07C0
0EE0
0820
1010
ENDCHAR
STARTCHAR uni1E14
ENCODING 7700
SWIDTH 629 0
DWIDTH 16 0
BBX 14 28 1 0
BITMAP
1000
3800
1C00
0E00
0300
0080
0000
1FE0
1FE0
0000
FFF8
3C38
3C18
3C18
3C08
3C00
3C20
3C60
3FE0
3C60
3C20
3C00
3C00
3C0C
3C0C
3C0C
3C1C
FFF8
ENDCHAR
STARTCHAR uni1E15
ENCODING 7701
SWIDTH 519 0
DWIDTH 13 0
BBX 12 23 1 0
BITMAP
2000
7000
3800
1C00
0600
0100
0000
3FC0
3FC0
0000
0F00
39C0
70E0
70E0
F0F0
F0F0
FFF0
F000
F000
F830
7C20
3FC0
0F80
ENDCHAR
STARTCHAR uni1E16
ENCODING 7702
SWIDTH 629 0
DWIDTH 16 0
BBX 14 28 1 0
BITMAP
0020
0070
00E0
01C0
0300
0400
0000
1FE0
1FE0
0000
FFF8
3C38
3C18
3C18
3C08
3C00
3C20
3C60
3FE0
3C60
3C20
3C00
3C00
3C0C
3C0C
3C0C
3C1C
FFF8
ENDCHAR
STARTCHAR uni1E17
ENCODING 7703
SWIDTH 519 0
DWIDTH 13 0
BBX 12 23 1 0
BITMAP
0040
00E0
01C0
0380
0600
0800
0000
3FC0
3FC0
0000
0F00
39C0
70E0
70E0
F0F0
F0F0
FFF0
F000
F000
F830
7C20
3FC0
0F80
ENDCHAR
STARTCHAR uni1E18
ENCODING 7704
SWIDTH 629 0
DWIDTH 16 0
BBX 14 25 1 -7
BITMAP
FFF8
3C38
3C18
3C18
3C08
3C00
3C20
3C60
3FE0
3C60
3C20
3C00
3C00
3C0C
3C0C
3C0C
3C1C
FFF8
0000
0200
0700
0F80
1DC0
1040
2020
ENDCHAR
STARTCHAR uni1E19
ENCODING 7705
SWIDTH 519 0
DWIDTH 13 0
BBX 12 20 1 -7
BITMAP
0F00
39C0
70E0
70E0
F0F0
F0F0
FFF0
F000
F000
F830
7C20
3FC0
0F80
0000
0400
0E00
1F00
3B80
2080
4040
ENDCHAR
STARTCHAR uni1E1A
ENCODING 7706
SWIDTH 629 0
DWIDTH 16 0
BBX 14 23 1 -5
BITMAP
FFF8
3C38
3C18
3C18
3C08
3C00
3C20
3C60
3FE0
3C60
3C20
3C00
3C00
3C0C
3C0C
3C0C
3C1C
FFF8
0000
0810
3FE0
3FE0
4080
ENDCHAR
STARTCHAR uni1E1B
ENCODING 7707
SWIDTH 519 0
DWIDTH 13 0
BBX 12 18 1 -5
BITMAP
0F00
39C0
70E0
70E0
F0F0
F0F0
FFF0
F000
F000
F830
7C20
3FC0
0F80
0000
1020
7FC0
7FC0
8100
ENDCHAR
STARTCHAR uni1E1C
ENCODING 7708
SWIDTH 629 0
DWIDTH 16 0
BBX 14 29 1 -6
BITMAP
2040
30C0
1F80
0F00
0000
FFF8
3C38
3C18
3C18
3C08
3C00
3C20
3C60
3FE0
3C60
3C20
3C00
3C00
3C0C
3C0C
3C0C
3C1C
FFF8
0300
0300
07C0
01C0
01C0
0700
ENDCHAR
STARTCHAR uni1E1D
ENCODING 7709
SWIDTH 519 0
DWIDTH 13 0
BBX 12 24 1 -6
BITMAP
2040
30C0
1F80
0F00
0000
0F00
39C0
70E0
70E0
F0F0
F0F0
FFF0
F000
F000
F830
7C20
3FC0
0F80
0600
0600
0F80
0380
0380
0E00
ENDCHAR
STARTCHAR uni1E1E
ENCODING 7710
SWIDTH 593 0
DWIDTH 15 0
BBX 13 23 1 0
BITMAP
0600
0F00
0F00
0600
0000
FFF8
3C38
3C18
3C08
3C00
3C00
3C10
3C10
3C30
3FF0
3C30
3C10
3C00
3C00
3C00
3C00
3C00
FF00
ENDCHAR
STARTCHAR uni1E1F
ENCODING 7711
SWIDTH 342 0
DWIDTH 9 0
BBX 10 24 0 0
BITMAP
0600
0F00
0F00
0600
0000
0780
19C0
19C0
3C80
3C00
3C00
7F00
3C00
3C00
3C00
3C00
3C00
3C00
3C00
3C00
3C00
3C00
3C00
FF00
ENDCHAR
STARTCHAR uni1E20
ENCODING 7712
SWIDTH 726 0
DWIDTH 18 0
BBX 16 21 1 0
BITMAP
0FF0
0FF0
0000
03F8
0E1E
3C06
3806
7802
7000
F000
F000
F000
F000
F07F
F01E
701E
781E
781E
3C1E
1E1E
07F0
ENDCHAR
STARTCHAR uni1E21
ENCODING 7713
SWIDTH 533 0
DWIDTH 13 0
BBX 12 22 1 -6
BITMAP
3FC0
3FC0
0000
1F30
7BF0
F1C0
F1E0
F1E0
F1E0
71C0
3BC0
7F00
E000
FFC0
7FE0
3FF0
60F0
E070
E070
E060
78C0
1F00
ENDCHAR
STARTCHAR uni1E22
ENCODING 7714
SWIDTH 807 0
DWIDTH 20 0
BBX 18 23 1 0
BITMAP
00C000
01E000
01E000
00C000
000000
FF3FC0
3C0F00
3C0F00
3C0F00
3C0F00
3C0F00
3C0F00
3C0F00
3FFF00
3C0F00
3C0F00
3C0F00
3C0F00
3C0F00
3C0F00
3C0F00
3C0F00
FF3FC0
ENDCHAR
STARTCHAR uni1E23
ENCODING 7715
SWIDTH 631 0
DWIDTH 16 0
BBX 16 24 0 0
BITMAP
0C00
1E00
1E00
0C00
0000
0C00
7C00
3C00
3C00
3C00
3C00
3CF0
3FF8
3E3C
3C3C
3C3C
3C3C
3C3C
3C3C
3C3C
3C3C
3C3C
3C3C
FE7F
ENDCHAR
STARTCHAR uni1E24
ENCODING 7716
SWIDTH 807 0
DWIDTH 20 0
BBX 18 23 1 -5
BITMAP
FF3FC0
3C0F00
3C0F00
3C0F00
3C0F00
3C0F00
3C0F00
3C0F00
3FFF00
3C0F00
3C0F00
3C0F00
3C0F00
3C0F00
3C0F00
3C0F00
3C0F00
FF3FC0
000000
00C000
01E000
01E000
00C000
ENDCHAR
STARTCHAR uni1E25
ENCODING 7717
SWIDTH 631 0
DWIDTH 16 0
BBX 16 24 0 -5
BITMAP
0C00
7C00
3C00
3C00
3C00
3C00
3CF0
3FF8
3E3C
3C3C
3C3C
3C3C
3C3C
3C3C
3C3C
3C3C
3C3C
3C3C
FE7F
0000
0180
03C0
03C0
0180
ENDCHAR
STARTCHAR uni1E26
ENCODING 7718
SWIDTH 807 0
DWIDTH 20 0
BBX 18 23 1 0
BITMAP
061800
0F3C00
0F3C00
061800
000000
FF3FC0
3C0F00
3C0F00
3C0F00
3C0F00
3C0F00
3C0F00
3C0F00
3FFF00
3C0F00
3C0F00
3C0F00
3C0F00
3C0F00
3C0F00
3C0F00
3C0F00
FF3FC0
ENDCHAR
STARTCHAR uni1E27
ENCODING 7719
SWIDTH 631 0
DWIDTH 16 0
BBX 16 24 0 0
BITMAP
6180
F3C0
F3C0
6180
0000
0C00
7C00
3C00
3C00
3C00
3C00
3CF0
3FF8
3E3C
3C3C
3C3C
3C3C
3C3C
3C3C
3C3C
3C3C
3C3C
3C3C
FE7F
ENDCHAR
STARTCHAR uni1E28
ENCODING 7720
SWIDTH 807 0
DWIDTH 20 0
BBX 18 24 1 -6
BITMAP
FF3FC0
3C0F00
3C0F00
3C0F00
3C0F00
3C0F00
3C0F00
3C0F00
3FFF00
3C0F00
3C0F00
3C0F00
3C0F00
3C0F00
3C0F00
3C0F00
3C0F00
FF3FC0
00C000
00C000
01F000
007000
007000
01C000
ENDCHAR
STARTCHAR uni1E29
ENCODING 7721
SWIDTH 631 0
DWIDTH 16 0
BBX 16 25 0 -6
BITMAP
0C00
7C00
3C00
3C00
3C00
3C00
3CF0
3FF8
3E3C
3C3C
3C3C
3C3C
3C3C
3C3C
3C3C
3C3C
3C3C
3C3C
FE7F
0180
0180
03E0
00E0
00E0
0380
ENDCHAR
STARTCHAR uni1E2A
ENCODING 7722
SWIDTH 807 0
DWIDTH 20 0
BBX 18 23 1 -5
BITMAP
FF3FC0
3C0F00
3C0F00
3C0F00
3C0F00
3C0F00
3C0F00
3C0F00
3FFF00
3C0F00
3C0F00
3C0F00
3C0F00
3C0F00
3C0F00
3C0F00
3C0F00
FF3FC0
000000
040800
061800
03F000
01E000
ENDCHAR
STARTCHAR uni1E2B
ENCODING 7723
SWIDTH 631 0
DWIDTH 16 0
BBX 16 24 0 -5
BITMAP
0C00
7C00
3C00
3C00
3C00
3C00
3CF0
3FF8
3E3C
3C3C
3C3C
3C3C
3C3C
3C3C
3C3C
3C3C
3C3C
3C3C
FE7F
0000
0810
0C30
07E0
03C0
ENDCHAR
STARTCHAR uni1E2C
ENCODING 7724
SWIDTH 384 0
DWIDTH 10 0
BBX 11 23 -1 -5
BITMAP
3FC0
0F00
0F00
0F00
0F00
0F00
0F00
0F00
0F00
0F00
0F00
0F00
0F00
0F00
0F00
0F00
0F00
3FC0
0000
1020
7FC0
7FC0
8100
ENDCHAR
STARTCHAR uni1E2D
ENCODING 7725
SWIDTH 316 0
DWIDTH 8 0
BBX 11 23 -2 -5
BITMAP
0600
0F00
0F80
0700
0000
0700
1F00
0F00
0F00
0F00
0F00
0F00
0F00
0F00
0F00
0F00
0F00
3FC0
0000
1020
7FC0
7FC0
8100
ENDCHAR
STARTCHAR uni1E2E
ENCODING 7726
SWIDTH 384 0
DWIDTH 10 0
BBX 10 29 0 0
BITMAP
0080
01C0
0380
0700
0C00
1000
0000
6180
F3C0
F3C0
6180
7F80
1E00
1E00
1E00
1E00
1E00
1E00
1E00
1E00
1E00
1E00
1E00
1E00
1E00
1E00
1E00
1E00
7F80
ENDCHAR
STARTCHAR uni1E2F
ENCODING 7727
SWIDTH 316 0
DWIDTH 8 0
BBX 10 25 -1 0
BITMAP
0080
01C0
0380
0700
0C00
1000
0000
6180
F3C0
F3C0
6180
0000
0E00
3E00
1E00
1E00
1E00
1E00
1E00
1E00
1E00
1E00
1E00
1E00
7F80
ENDCHAR
STARTCHAR uni1E30
ENCODING 7728
SWIDTH 707 0
DWIDTH 18 0
BBX 17 25 1 0
BITMAP
001000
003800
007000
00E000
018000
020000
000000
FF1F80
3C0E00
3C1C00
3C3800
3C3000
3C6000
3CC000
3DC000
3FC000
3FE000
3DF000
3DF000
3CF800
3C7C00
3C7C00
3C3E00
3C1F00
FF0780
ENDCHAR
STARTCHAR uni1E31
ENCODING 7729
SWIDTH 582 0
DWIDTH 15 0
BBX 15 26 0 0
BITMAP
0080
01C0
0380
0700
0C00
1000
0000
0C00
7C00
3C00
3C00
3C00
3C00
3C3C
3C78
3CE0
3CC0
3D80
3F80
3FC0
3FE0
3DE0
3CF0
3CF8
3C7C
FF3E
ENDCHAR
STARTCHAR uni1E32
ENCODING 7730
SWIDTH 707 0
DWIDTH 18 0
BBX 17 23 1 -5
BITMAP
FF1F80
3C0E00
3C1C00
3C3800
3C3000
3C6000
3CC000
3DC000
3FC000
3FE000
3DF000
3DF000
3CF800
3C7C00
3C7C00
3C3E00
3C1F00
FF0780
000000
018000
03C000
03C000
018000
ENDCHAR
STARTCHAR uni1E33
ENCODING 7731
SWIDTH 582 0
DWIDTH 15 0
BBX 15 24 0 -5
BITMAP
0C00
7C00
3C00
3C00
3C00
3C00
3C3C
3C78
3CE0
3CC0
3D80
3F80
3FC0
3FE0
3DE0
3CF0
3CF8
3C7C
FF3E
0000
0300
0780
0780
0300
ENDCHAR
STARTCHAR uni1E34
ENCODING 7732
SWIDTH 707 0
DWIDTH 18 0
BBX 17 21 1 -3
BITMAP
FF1F80
3C0E00
3C1C00
3C3800
3C3000
3C6000
3CC000
3DC000
3FC000
3FE000
3DF000
3DF000
3CF800
3C7C00
3C7C00
3C3E00
3C1F00
FF0780
000000
0FF000
0FF000
ENDCHAR
STARTCHAR uni1E35
ENCODING 7733
SWIDTH 582 0
DWIDTH 15 0
BBX 15 22 0 -3
BITMAP
0C00
7C00
3C00
3C00
3C00
3C00
3C3C
3C78
3CE0
3CC0
3D80
3F80
3FC0
3FE0
3DE0
3CF0
3CF8
3C7C
FF3E
0000
1FE0
1FE0
ENDCHAR
STARTCHAR uni1E36
ENCODING 7734
SWIDTH 585 0
DWIDTH 15 0
BBX 14 23 1 -5
BITMAP
FF00
3C00
3C00
3C00
3C00
3C00
3C00
3C00
3C00
3C00
3C00
3C00
3C00
3C04
3C0C
3C0C
3C1C
FFF8
0000
0300
0780
0780
0300
ENDCHAR
STARTCHAR uni1E37
ENCODING 7735
SWIDTH 309 0
DWIDTH 8 0
BBX 8 24 0 -5
BITMAP
0C
7C
3C
3C
3C
3C
3C
3C
3C
3C
3C
3C
3C
3C
3C
3C
3C
3C
FF
00
18
3C
3C
18
ENDCHAR
STARTCHAR uni1E38
ENCODING 7736
SWIDTH 585 0
DWIDTH 15 0
BBX 14 26 1 -5
BITMAP
7F80
7F80
0000
FF00
3C00
3C00
3C00
3C00
3C00
3C00
3C00
3C00
3C00
3C00
3C00
3C00
3C04
3C0C
3C0C
3C1C
FFF8
0000
0300
0780
0780
0300
ENDCHAR
STARTCHAR uni1E39
ENCODING 7737
SWIDTH 309 0
DWIDTH 8 0
BBX 8 27 0 -5
BITMAP
FF
FF
00
0C
7C
3C
3C
3C
3C
3C
3C
3C
3C
3C
3C
3C
3C
3C
3C
3C
3C
FF
00
18
3C
3C
18
ENDCHAR
STARTCHAR uni1E3A
ENCODING 7738
SWIDTH 585 0
DWIDTH 15 0
BBX 14 21 1 -3
BITMAP
FF00
3C00
3C00
3C00
3C00
3C00
3C00
3C00
3C00
3C00
3C00
3C00
3C00
3C04
3C0C
3C0C
3C1C
FFF8
0000
1FE0
1FE0
ENDCHAR
STARTCHAR uni1E3B
ENCODING 7739
SWIDTH 309 0
DWIDTH 8 0
BBX 8 22 0 -3
BITMAP
0C
7C
3C
3C
3C
3C
3C
3C
3C
3C
3C
3C
3C
3C
3C
3C
3C
3C
FF
00
FF
FF
ENDCHAR
STARTCHAR uni1E3C
ENCODING 7740
SWIDTH 585 0
DWIDTH 15 0
BBX 14 25 1 -7
BITMAP
FF00
3C00
3C00
3C00
3C00
3C00
3C00
3C00
3C00
3C00
3C00
3C00
3C00
3C04
3C0C
3C0C
3C1C
FFF8
0000
0200
0700
0F80
1DC0
1040
2020
ENDCHAR
STARTCHAR uni1E3D
ENCODING 7741
SWIDTH 309 0
DWIDTH 8 0
BBX 9 26 0 -7
BITMAP
0C00
7C00
3C00
3C00
3C00
3C00
3C00
3C00
3C00
3C00
3C00
3C00
3C00
3C00
3C00
3C00
3C00
3C00
FF00
0000
0800
1C00
3E00
7700
4100
8080
ENDCHAR
STARTCHAR uni1E3E
ENCODING 7742
SWIDTH 918 0
DWIDTH 23 0
BBX 22 25 0 0
BITMAP
000200
000700
000E00
001C00
003000
004000
000000
FE01FC
3E01F0
3F01F0
3F03F0
3782F0
3786F0
3786F0
33C4F0
33CCF0
33CCF0
31E8F0
31F8F0
31F8F0
30F0F0
30F0F0
3070F0
3060F0
FC63FC
ENDCHAR
STARTCHAR uni1E3F
ENCODING 7743
SWIDTH 948 0
DWIDTH 24 0
BBX 24 20 0 0
BITMAP
000100
000380
000700
000E00
001800
002000
000000
1CF0F0
7FFBF8
3E7E7C
3C3C3C
3C3C3C
3C3C3C
3C3C3C
3C3C3C
3C3C3C
3C3C3C
3C3C3C
3C3C3C
FE7E7F
ENDCHAR
STARTCHAR uni1E40
ENCODING 7744
SWIDTH 918 0
DWIDTH 23 0
BBX 22 23 0 0
BITMAP
003000
007800
007800
003000
000000
FE01FC
3E01F0
3F01F0
3F03F0
3782F0
3786F0
3786F0
33C4F0
33CCF0
33CCF0
31E8F0
31F8F0
31F8F0
30F0F0
30F0F0
3070F0
3060F0
FC63FC
ENDCHAR
STARTCHAR uni1E41
ENCODING 7745
SWIDTH 948 0
DWIDTH 24 0
BBX 24 18 0 0
BITMAP
001800
003C00
003C00
001800
000000
1CF0F0
7FFBF8
3E7E7C
3C3C3C
3C3C3C
3C3C3C
3C3C3C
3C3C3C
3C3C3C
3C3C3C
3C3C3C
3C3C3C
FE7E7F
ENDCHAR
STARTCHAR uni1E42
ENCODING 7746
SWIDTH 918 0
DWIDTH 23 0
BBX 22 23 0 -5
BITMAP
FE01FC
3E01F0
3F01F0
3F03F0
3782F0
3786F0
3786F0
33C4F0
33CCF0
33CCF0
31E8F0
31F8F0
31F8F0
30F0F0
30F0F0
3070F0
3060F0
FC63FC
000000
001800
003C00
003C00
001800
ENDCHAR
STARTCHAR uni1E43
ENCODING 7747
SWIDTH 948 0
DWIDTH 24 0
BBX 24 18 0 -5
BITMAP
1CF0F0
7FFBF8
3E7E7C
3C3C3C
3C3C3C
3C3C3C
3C3C3C
3C3C3C
3C3C3C
3C3C3C
3C3C3C
3C3C3C
FE7E7F
000000
001800
003C00
003C00
001800
ENDCHAR
STARTCHAR uni1E44
ENCODING 7748
SWIDTH 739 0
DWIDTH 18 0
BBX 18 23 0 0
BITMAP
018000
03C000
03C000
018000
000000
FE0FC0
3E0300
3F0300
3F0300
378300
37C300
33C300
33E300
31F300
30F300
30FB00
307B00
303F00
303F00
301F00
301F00
300F00
FC0700
ENDCHAR
STARTCHAR uni1E45
ENCODING 7749
SWIDTH 638 0
DWIDTH 16 0
BBX 16 18 0 0
BITMAP
0180
03C0
03C0
0180
0000
1CF0
7FF8
3E3C
3C3C
3C3C
3C3C
3C3C
3C3C
3C3C
3C3C
3C3C
3C3C
FE7F
ENDCHAR
STARTCHAR uni1E46
ENCODING 7750
SWIDTH 739 0
DWIDTH 18 0
BBX 18 23 0 -5
BITMAP
FE0FC0
3E0300
3F0300
3F0300
378300
37C300
33C300
33E300
31F300
30F300
30FB00
307B00
303F00
303F00
301F00
301F00
300F00
FC0700
000000
00C000
01E000
01E000
00C000
ENDCHAR
STARTCHAR uni1E47
ENCODING 7751
SWIDTH 638 0
DWIDTH 16 0
BBX 16 18 0 -5
BITMAP
1CF0
7FF8
3E3C
3C3C
3C3C
3C3C
3C3C
3C3C
3C3C
3C3C
3C3C
3C3C
FE7F
0000
0180
03C0
03C0
0180
ENDCHAR
STARTCHAR uni1E48
ENCODING 7752
SWIDTH 739 0
DWIDTH 18 0
BBX 18 21 0 -3
BITMAP
FE0FC0
3E0300
3F0300
3F0300
378300
37C300
33C300
33E300
31F300
30F300
30FB00
307B00
303F00
303F00
301F00
301F00
300F00
FC0700
000000
07F800
07F800
ENDCHAR
STARTCHAR uni1E49
ENCODING 7753
SWIDTH 638 0
DWIDTH 16 0
BBX 16 16 0 -3
BITMAP
1CF0
7FF8
3E3C
3C3C
3C3C
3C3C
3C3C
3C3C
3C3C
3C3C
3C3C
3C3C
FE7F
0000
0FF0
0FF0
ENDCHAR
STARTCHAR uni1E4A
ENCODING 7754
SWIDTH 739 0
DWIDTH 18 0
BBX 18 25 0 -7
BITMAP
FE0FC0
3E0300
3F0300
3F0300
378300
37C300
33C300
33E300
31F300
30F300
30FB00
307B00
303F00
303F00
301F00
301F00
300F00
FC0700
000000
004000
00E000
01F000
03B800
020800
040400
ENDCHAR
STARTCHAR uni1E4B
ENCODING 7755
SWIDTH 638 0
DWIDTH 16 0
BBX 16 20 0 -7
BITMAP
1CF0
7FF8
3E3C
3C3C
3C3C
3C3C
3C3C
3C3C
3C3C
3C3C
3C3C
3C3C
FE7F
0000
0080
01C0
03E0
0770
0410
0808
ENDCHAR
STARTCHAR uni1E4C
ENCODING 7756
SWIDTH 768 0
DWIDTH 19 0
BBX 17 29 1 0
BITMAP
001000
003800
007000
00E000
018000
020000
000000
070000
0F8400
087800
003000
03E000
1E3C00
3C1E00
780F00
780F00
F00700
F00780
F00780
F00780
F00780
F00780
F00780
F00700
780F00
780F00
3C1E00
1E3C00
03E000
ENDCHAR
STARTCHAR uni1E4D
ENCODING 7757
SWIDTH 585 0
DWIDTH 15 0
BBX 13 25 1 0
BITMAP
0040
00E0
01C0
0380
0600
0800
0000
1C10
3E20
63E0
01C0
0000
0F80
38E0
78F0
7070
F078
F078
F078
F078
F078
7070
78F0
38E0
0F80
ENDCHAR
STARTCHAR uni1E4E
ENCODING 7758
SWIDTH 768 0
DWIDTH 19 0
BBX 17 27 1 0
BITMAP
061800
0F3C00
0F3C00
061800
000000
070000
0F8400
087800
003000
03E000
1E3C00
3C1E00
780F00
780F00
F00700
F00780
F00780
F00780
F00780
F00780
F00780
F00700
780F00
780F00
3C1E00
1E3C00
03E000
ENDCHAR
STARTCHAR uni1E4F
ENCODING 7759
SWIDTH 585 0
DWIDTH 15 0
BBX 13 23 1 0
BITMAP
1860
3CF0
3CF0
1860
0000
1C10
3E20
63E0
01C0
0000
0F80
38E0
78F0
7070
F078
F078
F078
F078
F078
7070
78F0
38E0
0F80
ENDCHAR
STARTCHAR uni1E50
ENCODING 7760
SWIDTH 768 0
DWIDTH 19 0
BBX 17 28 1 0
BITMAP
040000
0E0000
070000
038000
00C000
002000
000000
07F800
07F800
000000
03E000
1E3C00
3C1E00
780F00
780F00
F00700
F00780
F00780
F00780
F00780
F00780
F00780
F00700
780F00
780F00
3C1E00
1E3C00
03E000
ENDCHAR
STARTCHAR uni1E51
ENCODING 7761
SWIDTH 585 0
DWIDTH 15 0
BBX 13 23 1 0
BITMAP
1000
3800
1C00
0E00
0300
0080
0000
1FE0
1FE0
0000
0F80
38E0
78F0
7070
F078
F078
F078
F078
F078
7070
78F0
38E0
0F80
ENDCHAR
STARTCHAR uni1E52
ENCODING 7762
SWIDTH 768 0
DWIDTH 19 0
BBX 17 28 1 0
BITMAP
001000
003800
007000
00E000
018000
020000
000000
07F800
07F800
000000
03E000
1E3C00
3C1E00
780F00
780F00
F00700
F00780
F00780
F00780
F00780
F00780
F00780
F00700
780F00
780F00
3C1E00
1E3C00
03E000
ENDCHAR
STARTCHAR uni1E53
ENCODING 7763
SWIDTH 585 0
DWIDTH 15 0
BBX 13 23 1 0
BITMAP
0020
0070
00E0
01C0
0300
0400
0000
1FE0
1FE0
0000
0F80
38E0
78F0
7070
F078
F078
F078
F078
F078
7070
78F0
38E0
0F80
ENDCHAR
STARTCHAR uni1E54
ENCODING 7764
SWIDTH 650 0
DWIDTH 16 0
BBX 14 25 1 0
BITMAP
0020
0070
00E0
01C0
0300
0400
0000
FFE0
3C78
3C78
3C3C
3C3C
3C3C
3C3C
3C3C
3C78
3C70
3FE0
3C00
3C00
3C00
3C00
3C00
3C00
FF00
ENDCHAR
STARTCHAR uni1E55
ENCODING 7765
SWIDTH 615 0
DWIDTH 15 0
BBX 15 26 0 -6
BITMAP
0010
0038
0070
00E0
0180
0200
0000
1C70
7DFC
3E3C
3C3E
3C1E
3C1E
3C1E
3C1E
3C1E
3C1C
3C3C
3E38
3FE0
3C00
3C00
3C00
3C00
3C00
FF00
ENDCHAR
STARTCHAR uni1E56
ENCODING 7766
SWIDTH 650 0
DWIDTH 16 0
BBX 14 23 1 0
BITMAP
0300
0780
0780
0300
0000
FFE0
3C78
3C78
3C3C
3C3C
3C3C
3C3C
3C3C
3C78
3C70
3FE0
3C00
3C00
3C00
3C00
3C00
3C00
FF00
ENDCHAR
STARTCHAR uni1E57
ENCODING 7767
SWIDTH 615 0
DWIDTH 15 0
BBX 15 24 0 -6
BITMAP
0180
03C0
03C0
0180
0000
1C70
7DFC
3E3C
3C3E
3C1E
3C1E
3C1E
3C1E
3C1E
3C1C
3C3C
3E38
3FE0
3C00
3C00
3C00
3C00
3C00
FF00
ENDCHAR
STARTCHAR uni1E58
ENCODING 7768
SWIDTH 684 0
DWIDTH 17 0
BBX 16 23 1 0
BITMAP
0180
03C0
03C0
0180
0000
FFE0
3C78
3C7C
3C3C
3C3C
3C3C
3C3C
3C78
3C70
3FC0
3CF0
3C78
3C78
3C78
3C3C
3C3C
3C3C
FF1F
ENDCHAR
STARTCHAR uni1E59
ENCODING 7769
SWIDTH 440 0
DWIDTH 11 0
BBX 11 18 0 0
BITMAP
0600
0F00
0F00
0600
0000
1CC0
7DE0
3FE0
3CC0
3C00
3C00
3C00
3C00
3C00
3C00
3C00
3C00
FF00
ENDCHAR
STARTCHAR uni1E5A
ENCODING 7770
SWIDTH 684 0
DWIDTH 17 0
BBX 16 23 1 -5
BITMAP
FFE0
3C78
3C7C
3C3C
3C3C
3C3C
3C3C
3C78
3C70
3FC0
3CF0
3C78
3C78
3C78
3C3C
3C3C
3C3C
FF1F
0000
0180
03C0
03C0
0180
ENDCHAR
STARTCHAR uni1E5B
ENCODING 7771
SWIDTH 440 0
DWIDTH 11 0
BBX 11 18 0 -5
BITMAP
1CC0
7DE0
3FE0
3CC0
3C00
3C00
3C00
3C00
3C00
3C00
3C00
3C00
FF00
0000
0C00
1E00
1E00
0C00
ENDCHAR
STARTCHAR uni1E5C
ENCODING 7772
SWIDTH 684 0
DWIDTH 17 0
BBX 16 26 1 -5
BITMAP
0FF0
0FF0
0000
FFE0
3C78
3C7C
3C3C
3C3C
3C3C
3C3C
3C78
3C70
3FC0
3CF0
3C78
3C78
3C78
3C3C
3C3C
3C3C
FF1F
0000
0180
03C0
03C0
0180
ENDCHAR
STARTCHAR uni1E5D
ENCODING 7773
SWIDTH 440 0
DWIDTH 11 0
BBX 11 21 0 -5
BITMAP
3FC0
3FC0
0000
1CC0
7DE0
3FE0
3CC0
3C00
3C00
3C00
3C00
3C00
3C00
3C00
3C00
FF00
0000
0C00
1E00
1E00
0C00
ENDCHAR
STARTCHAR uni1E5E
ENCODING 7774
SWIDTH 684 0
DWIDTH 17 0
BBX 16 21 1 -3
BITMAP
FFE0
3C78
3C7C
3C3C
3C3C
3C3C
3C3C
3C78
3C70
3FC0
3CF0
3C78
3C78
3C78
3C3C
3C3C
3C3C
FF1F
0000
0FF0
0FF0
ENDCHAR
STARTCHAR uni1E5F
ENCODING 7775
SWIDTH 440 0
DWIDTH 11 0
BBX 11 16 0 -3
BITMAP
1CC0
7DE0
3FE0
3CC0
3C00
3C00
3C00
3C00
3C00
3C00
3C00
3C00
FF00
0000
7F80
7F80
ENDCHAR
STARTCHAR uni1E60
ENCODING 7776
SWIDTH 561 0
DWIDTH 14 0
BBX 12 23 1 0
BITMAP
0600
0F00
0F00
0600
0000
1FC0
38E0
7060
F020
F020
F800
FC00
7F00
3FC0
1FE0
07E0
01F0
80F0
80F0
C0F0
E0E0
F1C0
3F00
ENDCHAR
STARTCHAR uni1E61
ENCODING 7777
SWIDTH 446 0
DWIDTH 11 0
BBX 9 18 1 0
BITMAP
1800
3C00
3C00
1800
0000
3F00
6380
E180
F080
F800
7E00
3F00
1F00
8780
8380
C380
E300
7E00
ENDCHAR
STARTCHAR uni1E62
ENCODING 7778
SWIDTH 561 0
DWIDTH 14 0
BBX 12 23 1 -5
BITMAP
1FC0
38E0
7060
F020
F020
F800
FC00
7F00
3FC0
1FE0
07E0
01F0
80F0
80F0
C0F0
E0E0
F1C0
3F00
0000
0600
0F00
0F00
0600
ENDCHAR
STARTCHAR uni1E63
ENCODING 7779
SWIDTH 446 0
DWIDTH 11 0
BBX 9 18 1 -5
BITMAP
3F00
6380
E180
F080
F800
7E00
3F00
1F00
8780
8380
C380
E300
7E00
0000
0C00
1E00
1E00
0C00
ENDCHAR
STARTCHAR uni1E64
ENCODING 7780
SWIDTH 561 0
DWIDTH 14 0
BBX 12 30 1 0
BITMAP
0300
0780
0780
0300
0000
0080
01C0
0380
0700
0C00
1000
0000
1FC0
38E0
7060
F020
F020
F800
FC00
7F00
3FC0
1FE0
07E0
01F0
80F0
80F0
C0F0
E0E0
F1C0
3F00
ENDCHAR
STARTCHAR uni1E65
ENCODING 7781
SWIDTH 446 0
DWIDTH 11 0
BBX 9 25 1 0
BITMAP
0C00
1E00
1E00
0C00
0000
0100
0380
0700
0E00
1800
2000
0000
3F00
6380
E180
F080
F800
7E00
3F00
1F00
8780
8380
C380
E300
7E00
ENDCHAR
STARTCHAR uni1E66
ENCODING 7782
SWIDTH 561 0
DWIDTH 14 0
BBX 12 28 1 0
BITMAP
0600
0F00
0F00
0600
0000
4040
31C0
1F80
0F00
0400
1FC0
38E0
7060
F020
F020
F800
FC00
7F00
3FC0
1FE0
07E0
01F0
80F0
80F0
C0F0
E0E0
F1C0
3F00
ENDCHAR
STARTCHAR uni1E67
ENCODING 7783
SWIDTH 446 0
DWIDTH 11 0
BBX 9 24 1 0
BITMAP
1800
3C00
3C00
1800
0000
8080
C100
7300
3E00
1C00
0800
3F00
6380
E180
F080
F800
7E00
3F00
1F00
8780
8380
C380
E300
7E00
ENDCHAR
STARTCHAR uni1E68
ENCODING 7784
SWIDTH 561 0
DWIDTH 14 0
BBX 12 28 1 -5
BITMAP
0C00
1E00
1E00
0C00
0000
1FC0
38E0
7060
F020
F020
F800
FC00
7F00
3FC0
1FE0
07E0
01F0
80F0
80F0
C0F0
E0E0
F1C0
3F00
0000
0600
0F00
0F00
0600
ENDCHAR
STARTCHAR uni1E69
ENCODING 7785
SWIDTH 446 0
DWIDTH 11 0
BBX 9 23 1 -5
BITMAP
1800
3C00
3C00
1800
0000
3F00
6380
E180
F080
F800
7E00
3F00
1F00
8780
8380
C380
E300
7E00
0000
0C00
1E00
1E00
0C00
ENDCHAR
STARTCHAR uni1E6A
ENCODING 7786
SWIDTH 624 0
DWIDTH 16 0
BBX 14 23 0 0
BITMAP
0300
0780
0780
0300
0000
FFFC
C78C
C78C
8784
8784
0780
0780
0780
0780
0780
0780
0780
0780
0780
0780
0780
0780
1FE0
ENDCHAR
STARTCHAR uni1E6B
ENCODING 7787
SWIDTH 370 0
DWIDTH 9 0
BBX 8 21 1 0
BITMAP
18
3C
3C
18
00
18
38
38
FE
78
78
78
78
78
78
78
78
78
78
3F
1C
ENDCHAR
STARTCHAR uni1E6C
ENCODING 7788
SWIDTH 624 0
DWIDTH 16 0
BBX 14 23 0 -5
BITMAP
FFFC
C78C
C78C
8784
8784
0780
0780
0780
0780
0780
0780
0780
0780
0780
0780
0780
0780
1FE0
0000
0300
0780
0780
0300
ENDCHAR
STARTCHAR uni1E6D
ENCODING 7789
SWIDTH 370 0
DWIDTH 9 0
BBX 8 21 1 -5
BITMAP
18
38
38
FE
78
78
78
78
78
78
78
78
78
78
3F
1C
00
18
3C
3C
18
ENDCHAR
STARTCHAR uni1E6E
ENCODING 7790
SWIDTH 624 0
DWIDTH 16 0
BBX 14 21 0 -3
BITMAP
FFFC
C78C
C78C
8784
8784
0780
0780
0780
0780
0780
0780
0780
0780
0780
0780
0780
0780
1FE0
0000
1FE0
1FE0
ENDCHAR
STARTCHAR uni1E6F
ENCODING 7791
SWIDTH 370 0
DWIDTH 9 0
BBX 8 19 1 -3
BITMAP
18
38
38
FE
78
78
78
78
78
78
78
78
78
78
3F
1C
00
FF
FF
ENDCHAR
STARTCHAR uni1E70
ENCODING 7792
SWIDTH 624 0
DWIDTH 16 0
BBX 14 25 0 -7
BITMAP
FFFC
C78C
C78C
8784
8784
0780
0780
0780
0780
0780
0780
0780
0780
0780
0780
0780
0780
1FE0
0000
0100
0380
07C0
0EE0
0820
1010
ENDCHAR
STARTCHAR uni1E71
ENCODING 7793
SWIDTH 370 0
DWIDTH 9 0
BBX 9 23 0 -7
BITMAP
0C00
1C00
1C00
7F00
3C00
3C00
3C00
3C00
3C00
3C00
3C00
3C00
3C00
3C00
1F80
0E00
0000
0800
1C00
3E00
7700
4100
8080
ENDCHAR
STARTCHAR uni1E72
ENCODING 7794
SWIDTH 786 0
DWIDTH 20 0
BBX 18 23 1 -5
BITMAP
FF3FC0
3C0F00
3C0F00
3C0F00
3C0F00
3C0F00
3C0F00
3C0F00
3C0F00
3C0F00
3C0F00
3C0F00
3C0F00
3C0F00
3C0F00
1E1E00
0E1C00
03F000
000000
061800
0F3C00
0F3C00
061800
ENDCHAR
STARTCHAR uni1E73
ENCODING 7795
SWIDTH 629 0
DWIDTH 16 0
BBX 15 18 1 -5
BITMAP
3838
F8F8
7878
7878
7878
7878
7878
7878
7878
7878
7CF8
3FF8
1E7E
0000
0C30
1E78
1E78
0C30
ENDCHAR
STARTCHAR uni1E74
ENCODING 7796
SWIDTH 786 0
DWIDTH 20 0
BBX 18 23 1 -5
BITMAP
FF3FC0
3C0F00
3C0F00
3C0F00
3C0F00
3C0F00
3C0F00
3C0F00
3C0F00
3C0F00
3C0F00
3C0F00
3C0F00
3C0F00
3C0F00
1E1E00
0E1C00
03F000
000000
020400
0FF800
0FF800
102000
ENDCHAR
STARTCHAR uni1E75
ENCODING 7797
SWIDTH 629 0
DWIDTH 16 0
BBX 15 18 1 -5
BITMAP
3838
F8F8
7878
7878
7878
7878
7878
7878
7878
7878
7CF8
3FF8
1E7E
0000
0408
1FF0
1FF0
2040
ENDCHAR
STARTCHAR uni1E76
ENCODING 7798
SWIDTH 786 0
DWIDTH 20 0
BBX 18 25 1 -7
BITMAP
FF3FC0
3C0F00
3C0F00
3C0F00
3C0F00
3C0F00
3C0F00
3C0F00
3C0F00
3C0F00
3C0F00
3C0F00
3C0F00
3C0F00
3C0F00
1E1E00
0E1C00
03F000
000000
004000
00E000
01F000
03B800
020800
040400
ENDCHAR
STARTCHAR uni1E77
ENCODING 7799
SWIDTH 629 0
DWIDTH 16 0
BBX 15 20 1 -7
BITMAP
3838
F8F8
7878
7878
7878
7878
7878
7878
7878
7878
7CF8
3FF8
1E7E
0000
0100
0380
07C0
0EE0
0820
1010
ENDCHAR
STARTCHAR uni1E78
ENCODING 7800
SWIDTH 786 0
DWIDTH 20 0
BBX 18 30 1 0
BITMAP
000800
001C00
003800
007000
00C000
010000
000000
010200
07FC00
07FC00
081000
000000
FF3FC0
3C0F00
3C0F00
3C0F00
3C0F00
3C0F00
3C0F00
3C0F00
3C0F00
3C0F00
3C0F00
3C0F00
3C0F00
3C0F00
3C0F00
1E1E00
0E1C00
03F000
ENDCHAR
STARTCHAR uni1E79
ENCODING 7801
SWIDTH 629 0
DWIDTH 16 0
BBX 15 25 1 0
BITMAP
0020
0070
00E0
01C0
0300
0400
0000
0408
1FF0
1FF0
2040
0000
3838
F8F8
7878
7878
7878
7878
7878
7878
7878
7878
7CF8
3FF8
1E7E
ENDCHAR
STARTCHAR uni1E7A
ENCODING 7802
SWIDTH 786 0
DWIDTH 20 0
BBX 18 26 1 0
BITMAP
061800
0F3C00
0F3C00
061800
000000
07F800
07F800
000000
FF3FC0
3C0F00
3C0F00
3C0F00
3C0F00
3C0F00
3C0F00
3C0F00
3C0F00
3C0F00
3C0F00
3C0F00
3C0F00
3C0F00
3C0F00
1E1E00
0E1C00
03F000
ENDCHAR
STARTCHAR uni1E7B
ENCODING 7803
SWIDTH 629 0
DWIDTH 16 0
BBX 15 21 1 0
BITMAP
1860
3CF0
3CF0
1860
0000
1FE0
1FE0
0000
3838
F8F8
7878
7878
7878
7878
7878
7878
7878
7878
7CF8
3FF8
1E7E
ENDCHAR
STARTCHAR uni1E7C
ENCODING 7804
SWIDTH 645 0
DWIDTH 16 0
BBX 17 23 0 0
BITMAP
020400
0FF800
0FF800
102000
000000
FE1F80
3C0600
3C0600
3C0600
1E0C00
1E0C00
1E0C00
0F0800
0F1800
0F1800
071000
07B000
07B000
07A000
03E000
03E000
03C000
01C000
ENDCHAR
STARTCHAR uni1E7D
ENCODING 7805
SWIDTH 520 0
DWIDTH 13 0
BBX 14 18 0 0
BITMAP
0810
3FE0
3FE0
4080
0000
FE7C
7838
3C30
3C30
3C20
1E60
1E60
1E40
0EC0
0FC0
0780
0780
0700
ENDCHAR
STARTCHAR uni1E7E
ENCODING 7806
SWIDTH 645 0
DWIDTH 16 0
BBX 17 23 0 -5
BITMAP
FE1F80
3C0600
3C0600
3C0600
1E0C00
1E0C00
1E0C00
0F0800
0F1800
0F1800
071000
07B000
07B000
07A000
03E000
03E000
03C000
01C000
000000
018000
03C000
03C000
018000
ENDCHAR
STARTCHAR uni1E7F
ENCODING 7807
SWIDTH 520 0
DWIDTH 13 0
BBX 14 18 0 -5
BITMAP
FE7C
7838
3C30
3C30
3C20
1E60
1E60
1E40
0EC0
0FC0
0780
0780
0700
0000
0300
0780
0780
0300
ENDCHAR
STARTCHAR Wgrave
ENCODING 7808
SWIDTH 933 0
DWIDTH 23 0
BBX 24 25 0 0
BITMAP
010000
038000
01C000
00E000
003000
000800
000000
FE003F
3C1C0C
3C1C0C
3C1E0C
3C1E08
1E3E18
1E3E18
1E3F18
0E2710
0E6730
0E6730
0F67B0
0743A0
07C3A0
07C3E0
07C3E0
0381C0
0381C0
ENDCHAR
STARTCHAR wgrave
ENCODING 7809
SWIDTH 774 0
DWIDTH 19 0
BBX 20 20 0 0
BITMAP
020000
070000
038000
01C000
006000
001000
000000
FC71F0
7870E0
3878C0
3C78C0
3CF880
1CFC80
1CBD80
1E9D80
0F9D00
0F1F00
0F0F00
0F0E00
070E00
ENDCHAR
STARTCHAR Wacute
ENCODING 7810
SWIDTH 933 0
DWIDTH 23 0
BBX 24 25 0 0
BITMAP
000200
000700
000E00
001C00
003000
004000
000000
FE003F
3C1C0C
3C1C0C
3C1E0C
3C1E08
1E3E18
1E3E18
1E3F18
0E2710
0E6730
0E6730
0F67B0
0743A0
07C3A0
07C3E0
07C3E0
0381C0
0381C0
ENDCHAR
STARTCHAR wacute
ENCODING 7811
SWIDTH 774 0
DWIDTH 19 0
BBX 20 20 0 0
BITMAP
000400
000E00
001C00
003800
006000
008000
000000
FC71F0
7870E0
3878C0
3C78C0
3CF880
1CFC80
1CBD80
1E9D80
0F9D00
0F1F00
0F0F00
0F0E00
070E00
ENDCHAR
STARTCHAR Wdieresis
ENCODING 7812
SWIDTH 933 0
DWIDTH 23 0
BBX 24 23 0 0
BITMAP
018600
03CF00
03CF00
018600
000000
FE003F
3C1C0C
3C1C0C
3C1E0C
3C1E08
1E3E18
1E3E18
1E3F18
0E2710
0E6730
0E6730
0F67B0
0743A0
07C3A0
07C3E0
07C3E0
0381C0
0381C0
ENDCHAR
STARTCHAR wdieresis
ENCODING 7813
SWIDTH 774 0
DWIDTH 19 0
BBX 20 18 0 0
BITMAP
030C00
079E00
079E00
030C00
000000
FC71F0
7870E0
3878C0
3C78C0
3CF880
1CFC80
1CBD80
1E9D80
0F9D00
0F1F00
0F0F00
0F0E00
070E00
ENDCHAR
STARTCHAR uni1E86
ENCODING 7814
SWIDTH 933 0
DWIDTH 23 0
BBX 24 23 0 0
BITMAP
003000
007800
007800
003000
000000
FE003F
3C1C0C
3C1C0C
3C1E0C
3C1E08
1E3E18
1E3E18
1E3F18
0E2710
0E6730
0E6730
0F67B0
0743A0
07C3A0
07C3E0
07C3E0
0381C0
0381C0
ENDCHAR
STARTCHAR uni1E87
ENCODING 7815
SWIDTH 774 0
DWIDTH 19 0
BBX 20 18 0 0
BITMAP
006000
00F000
00F000
006000
000000
FC71F0
7870E0
3878C0
3C78C0
3CF880
1CFC80
1CBD80
1E9D80
0F9D00
0F1F00
0F0F00
0F0E00
070E00
ENDCHAR
STARTCHAR uni1E88
ENCODING 7816
SWIDTH 933 0
DWIDTH 23 0
BBX 24 23 0 -5
BITMAP
FE003F
3C1C0C
3C1C0C
3C1E0C
3C1E08
1E3E18
1E3E18
1E3F18
0E2710
0E6730
0E6730
0F67B0
0743A0
07C3A0
07C3E0
07C3E0
0381C0
0381C0
000000
001800
003C00
003C00
001800
ENDCHAR
STARTCHAR uni1E89
ENCODING 7817
SWIDTH 774 0
DWIDTH 19 0
BBX 20 18 0 -5
BITMAP
FC71F0
7870E0
3878C0
3C78C0
3CF880
1CFC80
1CBD80
1E9D80
0F9D00
0F1F00
0F0F00
0F0E00
070E00
000000
006000
00F000
00F000
006000
ENDCHAR
STARTCHAR uni1E8A
ENCODING 7818
SWIDTH 634 0
DWIDTH 16 0
BBX 18 23 -1 0
BITMAP
00C000
01E000
01E000
00C000
000000
7F1F80
1E0600
1E0C00
0F0C00
0F9800
07F000
03F000
03E000
01E000
01F000
03F800
037800
077C00
063C00
0C3E00
1C1E00
3C1F00
FE3FC0
ENDCHAR
STARTCHAR uni1E8B
ENCODING 7819
SWIDTH 522 0
DWIDTH 13 0
BBX 15 18 -1 0
BITMAP
0300
0780
0780
0300
0000
7E7C
3C30
1E60
0F60
0FC0
0780
07C0
07C0
07E0
0CF0
18F8
3878
FCFE
ENDCHAR
STARTCHAR uni1E8C
ENCODING 7820
SWIDTH 634 0
DWIDTH 16 0
BBX 18 23 -1 0
BITMAP
061800
0F3C00
0F3C00
061800
000000
7F1F80
1E0600
1E0C00
0F0C00
0F9800
07F000
03F000
03E000
01E000
01F000
03F800
037800
077C00
063C00
0C3E00
1C1E00
3C1F00
FE3FC0
ENDCHAR
STARTCHAR uni1E8D
ENCODING 7821
SWIDTH 522 0
DWIDTH 13 0
BBX 15 18 -1 0
BITMAP
1860
3CF0
3CF0
1860
0000
7E7C
3C30
1E60
0F60
0FC0
0780
07C0
07C0
07E0
0CF0
18F8
3878
FCFE
ENDCHAR
STARTCHAR uni1E8E
ENCODING 7822
SWIDTH 617 0
DWIDTH 15 0
BBX 16 23 0 0
BITMAP
0180
03C0
03C0
0180
0000
FF3F
3C0C
3C0C
1E18
1E18
0F10
0F30
0F20
07E0
07C0
03C0
03C0
03C0
03C0
03C0
03C0
03C0
0FF0
ENDCHAR
STARTCHAR uni1E8F
ENCODING 7823
SWIDTH 524 0
DWIDTH 13 0
BBX 14 24 0 -6
BITMAP
0300
0780
0780
0300
0000
FE7C
7C38
3C30
3C30
1E20
1E60
0E60
0F40
0FC0
0780
0780
0380
0300
0300
0300
3200
3C00
7C00
3800
ENDCHAR
STARTCHAR uni1E90
ENCODING 7824
SWIDTH 614 0
DWIDTH 15 0
BBX 15 25 0 0
BITMAP
0080
01C0
03E0
0770
0410
0808
0000
7FFE
707C
607C
40F8
41F0
01F0
03E0
03C0
07C0
0F80
0F80
1F00
3E00
3E06
7C06
780E
F81C
FFFC
ENDCHAR
STARTCHAR uni1E91
ENCODING 7825
SWIDTH 483 0
DWIDTH 12 0
BBX 12 20 0 0
BITMAP
0200
0700
0F80
1DC0
1040
2020
0000
7FF0
61E0
63E0
47C0
0780
0F80
0F00
1F00
3E00
3C30
7C30
F870
FFF0
ENDCHAR
STARTCHAR uni1E92
ENCODING 7826
SWIDTH 614 0
DWIDTH 15 0
BBX 15 23 0 -5
BITMAP
7FFE
707C
607C
40F8
41F0
01F0
03E0
03C0
07C0
0F80
0F80
1F00
3E00
3E06
7C06
780E
F81C
FFFC
0000
0300
0780
0780
0300
ENDCHAR
STARTCHAR uni1E93
ENCODING 7827
SWIDTH 483 0
DWIDTH 12 0
BBX 12 18 0 -5
BITMAP
7FF0
61E0
63E0
47C0
0780
0F80
0F00
1F00
3E00
3C30
7C30
F870
FFF0
0000
0600
0F00
0F00
0600
ENDCHAR
STARTCHAR uni1E94
ENCODING 7828
SWIDTH 614 0
DWIDTH 15 0
BBX 15 21 0 -3
BITMAP
7FFE
707C
607C
40F8
41F0
01F0
03E0
03C0
07C0
0F80
0F80
1F00
3E00
3E06
7C06
780E
F81C
FFFC
0000
1FE0
1FE0
ENDCHAR
STARTCHAR uni1E95
ENCODING 7829
SWIDTH 483 0
DWIDTH 12 0
BBX 12 16 0 -3
BITMAP
7FF0
61E0
63E0
47C0
0780
0F80
0F00
1F00
3E00
3C30
7C30
F870
FFF0
0000
3FC0
3FC0
ENDCHAR
STARTCHAR uni1E96
ENCODING 7830
SWIDTH 631 0
DWIDTH 16 0
BBX 16 22 0 -3
BITMAP
0C00
7C00
3C00
3C00
3C00
3C00
3CF0
3FF8
3E3C
3C3C
3C3C
3C3C
3C3C
3C3C
3C3C
3C3C
3C3C
3C3C
FE7F
0000
0FF0
0FF0
ENDCHAR
STARTCHAR uni1E97
ENCODING 7831
SWIDTH 370 0
DWIDTH 9 0
BBX 10 21 0 0
BITMAP
6180
F3C0
F3C0
6180
0000
0C00
1C00
1C00
7F00
3C00
3C00
3C00
3C00
3C00
3C00
3C00
3C00
3C00
3C00
1F80
0E00
ENDCHAR
STARTCHAR uni1E98
ENCODING 7832
SWIDTH 774 0
DWIDTH 19 0
BBX 20 19 0 0
BITMAP
00E000
031800
031800
031800
00E000
000000
FC71F0
7870E0
3878C0
3C78C0
3CF880
1CFC80
1CBD80
1E9D80
0F9D00
0F1F00
0F0F00
0F0E00
070E00
ENDCHAR
STARTCHAR uni1E99
ENCODING 7833
SWIDTH 524 0
DWIDTH 13 0
BBX 14 25 0 -6
BITMAP
0700
18C0
18C0
18C0
0700
0000
FE7C
7C38
3C30
3C30
1E20
1E60
0E60
0F40
0FC0
0780
0780
0380
0300
0300
0300
3200
3C00
7C00
3800
ENDCHAR
STARTCHAR uni1EA0
ENCODING 7840
SWIDTH 644 0
DWIDTH 16 0
BBX 17 23 -1 -5
BITMAP
01C000
01E000
03E000
03E000
02F000
06F000
06F000
04F000
047800
0C7800
0C7800
0FFC00
183C00
183C00
301E00
301E00
301E00
FC7F80
000000
00C000
01E000
01E000
00C000
ENDCHAR
STARTCHAR uni1EA1
ENCODING 7841
SWIDTH 544 0
DWIDTH 14 0
BBX 13 18 1 -5
BITMAP
0F80
79C0
F1E0
71E0
21E0
0FE0
39E0
71E0
F1E0
F1E0
F1E0
7FF8
3CE0
0000
0600
0F00
0F00
0600
ENDCHAR
STARTCHAR uni1EA4
ENCODING 7844
SWIDTH 644 0
DWIDTH 16 0
BBX 17 30 -1 0
BITMAP
001000
003800
007000
00E000
018000
020000
000000
008000
01E000
03F000
0E1800
000000
01C000
01E000
03E000
03E000
02F000
06F000
06F000
04F000
047800
0C7800
0C7800
0FFC00
183C00
183C00
301E00
301E00
301E00
FC7F80
ENDCHAR
STARTCHAR uni1EA5
ENCODING 7845
SWIDTH 544 0
DWIDTH 14 0
BBX 13 26 1 0
BITMAP
0040
00E0
01C0
0380
0600
0800
0000
0400
0F00
1F00
1980
20E0
4040
0F80
79C0
F1E0
71E0
21E0
0FE0
39E0
71E0
F1E0
F1E0
F1E0
7FF8
3CE0
ENDCHAR
STARTCHAR uni1EA6
ENCODING 7846
SWIDTH 644 0
DWIDTH 16 0
BBX 17 30 -1 0
BITMAP
040000
0E0000
070000
038000
00C000
002000
000000
008000
01E000
03F000
0E1800
000000
01C000
01E000
03E000
03E000
02F000
06F000
06F000
04F000
047800
0C7800
0C7800
0FFC00
183C00
183C00
301E00
301E00
301E00
FC7F80
ENDCHAR
STARTCHAR uni1EA7
ENCODING 7847
SWIDTH 544 0
DWIDTH 14 0
BBX 13 26 1 0
BITMAP
2000
7000
3800
1C00
0600
0100
0000
0400
0F00
1F00
1980
20E0
4040
0F80
79C0
F1E0
71E0
21E0
0FE0
39E0
71E0
F1E0
F1E0
F1E0
7FF8
3CE0
ENDCHAR
STARTCHAR uni1EAA
ENCODING 7850
SWIDTH 644 0
DWIDTH 16 0
BBX 17 28 -1 0
BITMAP
020400
0FF800
0FF800
102000
000000
008000
01E000
03F000
0E1800
000000
01C000
01E000
03E000
03E000
02F000
06F000
06F000
04F000
047800
0C7800
0C7800
0FFC00
183C00
183C00
301E00
301E00
301E00
FC7F80
ENDCHAR
STARTCHAR uni1EAB
ENCODING 7851
SWIDTH 544 0
DWIDTH 14 0
BBX 13 24 1 0
BITMAP
0810
3FE0
3FE0
4080
0000
0400
0F00
1F00
1980
20E0
4040
0F80
79C0
F1E0
71E0
21E0
0FE0
39E0
71E0
F1E0
F1E0
F1E0
7FF8
3CE0
ENDCHAR
STARTCHAR uni1EAC
ENCODING 7852
SWIDTH 644 0
DWIDTH 16 0
BBX 17 30 -1 -5
BITMAP
008000
01C000
03E000
077000
041000
080800
000000
01C000
01E000
03E000
03E000
02F000
06F000
06F000
04F000
047800
0C7800
0C7800
0FFC00
183C00
183C00
301E00
301E00
301E00
FC7F80
000000
00C000
01E000
01E000
00C000
ENDCHAR
STARTCHAR uni1EAD
ENCODING 7853
SWIDTH 544 0
DWIDTH 14 0
BBX 13 25 1 -5
BITMAP
0200
0700
0F80
1DC0
1040
2020
0000
0F80
79C0
F1E0
71E0
21E0
0FE0
39E0
71E0
F1E0
F1E0
F1E0
7FF8
3CE0
0000
0600
0F00
0F00
0600
ENDCHAR
STARTCHAR uni1EAE
ENCODING 7854
SWIDTH 644 0
DWIDTH 16 0
BBX 17 30 -1 0
BITMAP
000800
001C00
003800
007000
00C000
010000
000000
040800
061800
03F000
01E000
000000
01C000
01E000
03E000
03E000
02F000
06F000
06F000
04F000
047800
0C7800
0C7800
0FFC00
183C00
183C00
301E00
301E00
301E00
FC7F80
ENDCHAR
STARTCHAR uni1EAF
ENCODING 7855
SWIDTH 544 0
DWIDTH 14 0
BBX 13 25 1 0
BITMAP
0040
00E0
01C0
0380
0600
0800
0000
2040
30C0
1F80
0F00
0000
0F80
79C0
F1E0
71E0
21E0
0FE0
39E0
71E0
F1E0
F1E0
F1E0
7FF8
3CE0
ENDCHAR
STARTCHAR uni1EB0
ENCODING 7856
SWIDTH 644 0
DWIDTH 16 0
BBX 17 30 -1 0
BITMAP
040000
0E0000
070000
038000
00C000
002000
000000
040800
061800
03F000
01E000
000000
01C000
01E000
03E000
03E000
02F000
06F000
06F000
04F000
047800
0C7800
0C7800
0FFC00
183C00
183C00
301E00
301E00
301E00
FC7F80
ENDCHAR
STARTCHAR uni1EB1
ENCODING 7857
SWIDTH 544 0
DWIDTH 14 0
BBX 13 25 1 0
BITMAP
2000
7000
3800
1C00
0600
0100
0000
2040
30C0
1F80
0F00
0000
0F80
79C0
F1E0
71E0
21E0
0FE0
39E0
71E0
F1E0
F1E0
F1E0
7FF8
3CE0
ENDCHAR
STARTCHAR uni1EB4
ENCODING 7860
SWIDTH 644 0
DWIDTH 16 0
BBX 17 28 -1 0
BITMAP
020400
0FF800
0FF800
102000
000000
040800
061800
03F000
01E000
000000
01C000
01E000
03E000
03E000
02F000
06F000
06F000
04F000
047800
0C7800
0C7800
0FFC00
183C00
183C00
301E00
301E00
301E00
FC7F80
ENDCHAR
STARTCHAR uni1EB5
ENCODING 7861
SWIDTH 544 0
DWIDTH 14 0
BBX 13 23 1 0
BITMAP
0810
3FE0
3FE0
4080
0000
2040
30C0
1F80
0F00
0000
0F80
79C0
F1E0
71E0
21E0
0FE0
39E0
71E0
F1E0
F1E0
F1E0
7FF8
3CE0
ENDCHAR
STARTCHAR uni1EB6
ENCODING 7862
SWIDTH 644 0
DWIDTH 16 0
BBX 17 28 -1 -5
BITMAP
040800
061800
03F000
01E000
000000
01C000
01E000
03E000
03E000
02F000
06F000
06F000
04F000
047800
0C7800
0C7800
0FFC00
183C00
183C00
301E00
301E00
301E00
FC7F80
000000
00C000
01E000
01E000
00C000
ENDCHAR
STARTCHAR uni1EB7
ENCODING 7863
SWIDTH 544 0
DWIDTH 14 0
BBX 13 23 1 -5
BITMAP
2040
30C0
1F80
0F00
0000
0F80
79C0
F1E0
71E0
21E0
0FE0
39E0
71E0
F1E0
F1E0
F1E0
7FF8
3CE0
0000
0600
0F00
0F00
0600
ENDCHAR
STARTCHAR uni1EB8
ENCODING 7864
SWIDTH 629 0
DWIDTH 16 0
BBX 14 23 1 -5
BITMAP
FFF8
3C38
3C18
3C18
3C08
3C00
3C20
3C60
3FE0
3C60
3C20
3C00
3C00
3C0C
3C0C
3C0C
3C1C
FFF8
0000
0300
0780
0780
0300
ENDCHAR
STARTCHAR uni1EB9
ENCODING 7865
SWIDTH 519 0
DWIDTH 13 0
BBX 12 18 1 -5
BITMAP
0F00
39C0
70E0
70E0
F0F0
F0F0
FFF0
F000
F000
F830
7C20
3FC0
0F80
0000
0600
0F00
0F00
0600
ENDCHAR
STARTCHAR uni1EBC
ENCODING 7868
SWIDTH 629 0
DWIDTH 16 0
BBX 14 23 1 0
BITMAP
0810
3FE0
3FE0
4080
0000
FFF8
3C38
3C18
3C18
3C08
3C00
3C20
3C60
3FE0
3C60
3C20
3C00
3C00
3C0C
3C0C
3C0C
3C1C
FFF8
ENDCHAR
STARTCHAR uni1EBD
ENCODING 7869
SWIDTH 519 0
DWIDTH 13 0
BBX 12 18 1 0
BITMAP
0810
3FE0
3FE0
4080
0000
0F00
39C0
70E0
70E0
F0F0
F0F0
FFF0
F000
F000
F830
7C20
3FC0
0F80
ENDCHAR
STARTCHAR uni1EBE
ENCODING 7870
SWIDTH 629 0
DWIDTH 16 0
BBX 14 30 1 0
BITMAP
0020
0070
00E0
01C0
0300
0400
0000
0100
03C0
0FE0
1C30
0000
FFF8
3C38
3C18
3C18
3C08
3C00
3C20
3C60
3FE0
3C60
3C20
3C00
3C00
3C0C
3C0C
3C0C
3C1C
FFF8
ENDCHAR
STARTCHAR uni1EBF
ENCODING 7871
SWIDTH 519 0
DWIDTH 13 0
BBX 12 26 1 0
BITMAP
0040
00E0
01C0
0380
0600
0800
0000
0200
0F00
0F80
19C0
7040
2020
0F00
39C0
70E0
70E0
F0F0
F0F0
FFF0
F000
F000
F830
7C20
3FC0
0F80
ENDCHAR
STARTCHAR uni1EC0
ENCODING 7872
SWIDTH 629 0
DWIDTH 16 0
BBX 14 30 1 0
BITMAP
1000
3800
1C00
0E00
0300
0080
0000
0100
03C0
0FE0
1C30
0000
FFF8
3C38
3C18
3C18
3C08
3C00
3C20
3C60
3FE0
3C60
3C20
3C00
3C00
3C0C
3C0C
3C0C
3C1C
FFF8
ENDCHAR
STARTCHAR uni1EC1
ENCODING 7873
SWIDTH 519 0
DWIDTH 13 0
BBX 12 26 1 0
BITMAP
2000
7000
3800
1C00
0600
0100
0000
0200
0F00
0F80
19C0
7040
2020
0F00
39C0
70E0
70E0
F0F0
F0F0
FFF0
F000
F000
F830
7C20
3FC0
0F80
ENDCHAR
STARTCHAR uni1EC4
ENCODING 7876
SWIDTH 629 0
DWIDTH 16 0
BBX 14 28 1 0
BITMAP
0408
1FF0
1FF0
2040
0000
0100
03C0
0FE0
1C30
0000
FFF8
3C38
3C18
3C18
3C08
3C00
3C20
3C60
3FE0
3C60
3C20
3C00
3C00
3C0C
3C0C
3C0C
3C1C
FFF8
ENDCHAR
STARTCHAR uni1EC5
ENCODING 7877
SWIDTH 519 0
DWIDTH 13 0
BBX 12 24 1 0
BITMAP
0810
3FE0
3FE0
4080
0000
0200
0F00
0F80
19C0
7040
2020
0F00
39C0
70E0
70E0
F0F0
F0F0
FFF0
F000
F000
F830
7C20
3FC0
0F80
ENDCHAR
STARTCHAR uni1EC6
ENCODING 7878
SWIDTH 629 0
DWIDTH 16 0
BBX 14 30 1 -5
BITMAP
0200
0700
0F80
1DC0
1040
2020
0000
FFF8
3C38
3C18
3C18
3C08
3C00
3C20
3C60
3FE0
3C60
3C20
3C00
3C00
3C0C
3C0C
3C0C
3C1C
FFF8
0000
0300
0780
0780
0300
ENDCHAR
STARTCHAR uni1EC7
ENCODING 7879
SWIDTH 519 0
DWIDTH 13 0
BBX 12 25 1 -5
BITMAP
0200
0700
0F80
1DC0
1040
2020
0000
0F00
39C0
70E0
70E0
F0F0
F0F0
FFF0
F000
F000
F830
7C20
3FC0
0F80
0000
0600
0F00
0F00
0600
ENDCHAR
STARTCHAR uni1ECA
ENCODING 7882
SWIDTH 384 0
DWIDTH 10 0
BBX 8 23 1 -5
BITMAP
FF
3C
3C
3C
3C
3C
3C
3C
3C
3C
3C
3C
3C
3C
3C
3C
3C
FF
00
18
3C
3C
18
ENDCHAR
STARTCHAR uni1ECB
ENCODING 7883
SWIDTH 316 0
DWIDTH 8 0
BBX 8 23 0 -5
BITMAP
18
3C
3E
1C
00
1C
7C
3C
3C
3C
3C
3C
3C
3C
3C
3C
3C
FF
00
18
3C
3C
18
ENDCHAR
STARTCHAR uni1ECC
ENCODING 7884
SWIDTH 768 0
DWIDTH 19 0
BBX 17 23 1 -5
BITMAP
03E000
1E3C00
3C1E00
780F00
780F00
F00700
F00780
F00780
F00780
F00780
F00780
F00780
F00700
780F00
780F00
3C1E00
1E3C00
03E000
000000
00C000
01E000
01E000
00C000
ENDCHAR
STARTCHAR uni1ECD
ENCODING 7885
SWIDTH 585 0
DWIDTH 15 0
BBX 13 18 1 -5
BITMAP
0F80
38E0
78F0
7070
F078
F078
F078
F078
F078
7070
78F0
38E0
0F80
0000
0300
0780
0780
0300
ENDCHAR
STARTCHAR uni1ED0
ENCODING 7888
SWIDTH 768 0
DWIDTH 19 0
BBX 17 30 1 0
BITMAP
001000
003800
007000
00E000
018000
020000
000000
008000
03E000
07F000
0E3800
100400
03E000
1E3C00
3C1E00
780F00
780F00
F00700
F00780
F00780
F00780
F00780
F00780
F00780
F00700
780F00
780F00
3C1E00
1E3C00
03E000
ENDCHAR
STARTCHAR uni1ED1
ENCODING 7889
SWIDTH 585 0
DWIDTH 15 0
BBX 13 26 1 0
BITMAP
0040
00E0
01C0
0380
0600
0800
0000
0200
0700
0F80
18C0
3060
2020
0F80
38E0
78F0
7070
F078
F078
F078
F078
F078
7070
78F0
38E0
0F80
ENDCHAR
STARTCHAR uni1ED2
ENCODING 7890
SWIDTH 768 0
DWIDTH 19 0
BBX 17 30 1 0
BITMAP
040000
0E0000
070000
038000
00C000
002000
000000
008000
03E000
07F000
0E3800
100400
03E000
1E3C00
3C1E00
780F00
780F00
F00700
F00780
F00780
F00780
F00780
F00780
F00780
F00700
780F00
780F00
3C1E00
1E3C00
03E000
ENDCHAR
STARTCHAR uni1ED3
ENCODING 7891
SWIDTH 585 0
DWIDTH 15 0
BBX 13 26 1 0
BITMAP
1000
3800
1C00
0E00
0300
0080
0000
0200
0700
0F80
18C0
3060
2020
0F80
38E0
78F0
7070
F078
F078
F078
F078
F078
7070
78F0
38E0
0F80
ENDCHAR
STARTCHAR uni1ED6
ENCODING 7894
SWIDTH 768 0
DWIDTH 19 0
BBX 17 28 1 0
BITMAP
020400
0FF800
0FF800
102000
000000
008000
03E000
07F000
0E3800
100400
03E000
1E3C00
3C1E00
780F00
780F00
F00700
F00780
F00780
F00780
F00780
F00780
F00780
F00700
780F00
780F00
3C1E00
1E3C00
03E000
ENDCHAR
STARTCHAR uni1ED7
ENCODING 7895
SWIDTH 585 0
DWIDTH 15 0
BBX 13 24 1 0
BITMAP
0810
3FE0
3FE0
4080
0000
0200
0700
0F80
18C0
3060
2020
0F80
38E0
78F0
7070
F078
F078
F078
F078
F078
7070
78F0
38E0
0F80
ENDCHAR
STARTCHAR uni1ED8
ENCODING 7896
SWIDTH 768 0
DWIDTH 19 0
BBX 17 30 1 -5
BITMAP
008000
01C000
03E000
077000
041000
080800
000000
03E000
1E3C00
3C1E00
780F00
780F00
F00700
F00780
F00780
F00780
F00780
F00780
F00780
F00700
780F00
780F00
3C1E00
1E3C00
03E000
000000
00C000
01E000
01E000
00C000
ENDCHAR
STARTCHAR uni1ED9
ENCODING 7897
SWIDTH 585 0
DWIDTH 15 0
BBX 13 25 1 -5
BITMAP
0200
0700
0F80
1DC0
1040
2020
0000
0F80
38E0
78F0
7070
F078
F078
F078
F078
F078
7070
78F0
38E0
0F80
0000
0300
0780
0780
0300
ENDCHAR
STARTCHAR uni1EDA
ENCODING 7898
SWIDTH 768 0
DWIDTH 19 0
BBX 19 25 1 0
BITMAP
000400
000E00
001C00
003800
006000
008000
000000
03E0C0
1E3DE0
3C1EE0
780FE0
780FC0
F007C0
F00780
F00780
F00780
F00780
F00780
F00780
F00700
780F00
780F00
3C1E00
1E3C00
03E000
ENDCHAR
STARTCHAR uni1EDB
ENCODING 7899
SWIDTH 585 0
DWIDTH 15 0
BBX 16 20 1 0
BITMAP
0008
001C
0038
0070
00C0
0100
0000
0F86
38EF
78F7
7077
F07E
F07E
F07C
F078
F078
7070
78F0
38E0
0F80
ENDCHAR
STARTCHAR uni1EDC
ENCODING 7900
SWIDTH 768 0
DWIDTH 19 0
BBX 19 25 1 0
BITMAP
010000
038000
01C000
00E000
003000
000800
000000
03E0C0
1E3DE0
3C1EE0
780FE0
780FC0
F007C0
F00780
F00780
F00780
F00780
F00780
F00780
F00700
780F00
780F00
3C1E00
1E3C00
03E000
ENDCHAR
STARTCHAR uni1EDD
ENCODING 7901
SWIDTH 585 0
DWIDTH 15 0
BBX 16 20 1 0
BITMAP
0400
0E00
0700
0380
00C0
0020
0000
0F86
38EF
78F7
7077
F07E
F07E
F07C
F078
F078
7070
78F0
38E0
0F80
ENDCHAR
STARTCHAR uni1EE0
ENCODING 7904
SWIDTH 768 0
DWIDTH 19 0
BBX 19 23 1 0
BITMAP
008100
03FE00
03FE00
040800
000000
03E0C0
1E3DE0
3C1EE0
780FE0
780FC0
F007C0
F00780
F00780
F00780
F00780
F00780
F00780
F00700
780F00
780F00
3C1E00
1E3C00
03E000
ENDCHAR
STARTCHAR uni1EE1
ENCODING 7905
SWIDTH 585 0
DWIDTH 15 0
BBX 16 18 1 0
BITMAP
0204
0FF8
0FF8
1020
0000
0F86
38EF
78F7
7077
F07E
F07E
F07C
F078
F078
7070
78F0
38E0
0F80
ENDCHAR
STARTCHAR uni1EE2
ENCODING 7906
SWIDTH 768 0
DWIDTH 19 0
BBX 19 23 1 -5
BITMAP
03E0C0
1E3DE0
3C1EE0
780FE0
780FC0
F007C0
F00780
F00780
F00780
F00780
F00780
F00780
F00700
780F00
780F00
3C1E00
1E3C00
03E000
000000
00C000
01E000
01E000
00C000
ENDCHAR
STARTCHAR uni1EE3
ENCODING 7907
SWIDTH 585 0
DWIDTH 15 0
BBX 16 18 1 -5
BITMAP
0F86
38EF
78F7
7077
F07E
F07E
F07C
F078
F078
7070
78F0
38E0
0F80
0000
0300
0780
0780
0300
ENDCHAR
STARTCHAR uni1EE4
ENCODING 7908
SWIDTH 786 0
DWIDTH 20 0
BBX 18 23 1 -5
BITMAP
FF3FC0
3C0F00
3C0F00
3C0F00
3C0F00
3C0F00
3C0F00
3C0F00
3C0F00
3C0F00
3C0F00
3C0F00
3C0F00
3C0F00
3C0F00
1E1E00
0E1C00
03F000
000000
00C000
01E000
01E000
00C000
ENDCHAR
STARTCHAR uni1EE5
ENCODING 7909
SWIDTH 629 0
DWIDTH 16 0
BBX 15 18 1 -5
BITMAP
3838
F8F8
7878
7878
7878
7878
7878
7878
7878
7878
7CF8
3FF8
1E7E
0000
0180
03C0
03C0
0180
ENDCHAR
STARTCHAR uni1EE8
ENCODING 7912
SWIDTH 786 0
DWIDTH 20 0
BBX 20 25 1 0
BITMAP
000400
000E00
001C00
003800
006000
008000
000000
FF3FE0
3C0FF0
3C0F70
3C0F70
3C0F60
3C0F60
3C0F40
3C0F80
3C0F00
3C0F00
3C0F00
3C0F00
3C0F00
3C0F00
3C0F00
1E1E00
0E1C00
03F000
ENDCHAR
STARTCHAR uni1EE9
ENCODING 7913
SWIDTH 629 0
DWIDTH 16 0
BBX 18 20 1 0
BITMAP
000800
001C00
003800
007000
00C000
010000
000000
383980
F8FBC0
7879C0
7879C0
787980
787980
787900
787A00
787800
787800
7CF800
3FF800
1E7E00
ENDCHAR
STARTCHAR uni1EEA
ENCODING 7914
SWIDTH 786 0
DWIDTH 20 0
BBX 20 25 1 0
BITMAP
010000
038000
01C000
00E000
003000
000800
000000
FF3FE0
3C0FF0
3C0F70
3C0F70
3C0F60
3C0F60
3C0F40
3C0F80
3C0F00
3C0F00
3C0F00
3C0F00
3C0F00
3C0F00
3C0F00
1E1E00
0E1C00
03F000
ENDCHAR
STARTCHAR uni1EEB
ENCODING 7915
SWIDTH 629 0
DWIDTH 16 0
BBX 18 20 1 0
BITMAP
040000
0E0000
070000
038000
00C000
002000
000000
383980
F8FBC0
7879C0
7879C0
787980
787980
787900
787A00
787800
787800
7CF800
3FF800
1E7E00
ENDCHAR
STARTCHAR uni1EEE
ENCODING 7918
SWIDTH 786 0
DWIDTH 20 0
BBX 20 23 1 0
BITMAP
008100
03FE00
03FE00
040800
000000
FF3FE0
3C0FF0
3C0F70
3C0F70
3C0F60
3C0F60
3C0F40
3C0F80
3C0F00
3C0F00
3C0F00
3C0F00
3C0F00
3C0F00
3C0F00
1E1E00
0E1C00
03F000
ENDCHAR
STARTCHAR uni1EEF
ENCODING 7919
SWIDTH 629 0
DWIDTH 16 0
BBX 18 18 1 0
BITMAP
010200
07FC00
07FC00
081000
000000
383980
F8FBC0
7879C0
7879C0
787980
787980
787900
787A00
787800
787800
7CF800
3FF800
1E7E00
ENDCHAR
STARTCHAR uni1EF0
ENCODING 7920
SWIDTH 786 0
DWIDTH 20 0
BBX 20 23 1 -5
BITMAP
FF3FE0
3C0FF0
3C0F70
3C0F70
3C0F60
3C0F60
3C0F40
3C0F80
3C0F00
3C0F00
3C0F00
3C0F00
3C0F00
3C0F00
3C0F00
1E1E00
0E1C00
03F000
000000
00C000
01E000
01E000
00C000
ENDCHAR
STARTCHAR uni1EF1
ENCODING 7921
SWIDTH 629 0
DWIDTH 16 0
BBX 18 18 1 -5
BITMAP
383980
F8FBC0
7879C0
7879C0
787980
787980
787900
787A00
787800
787800
7CF800
3FF800
1E7E00
000000
018000
03C000
03C000
018000
ENDCHAR
STARTCHAR Ygrave
ENCODING 7922
SWIDTH 617 0
DWIDTH 15 0
BBX 16 25 0 0
BITMAP
0800
1C00
0E00
0700
0180
0040
0000
FF3F
3C0C
3C0C
1E18
1E18
0F10
0F30
0F20
07E0
07C0
03C0
03C0
03C0
03C0
03C0
03C0
03C0
0FF0
ENDCHAR
STARTCHAR ygrave
ENCODING 7923
SWIDTH 524 0
DWIDTH 13 0
BBX 14 26 0 -6
BITMAP
1000
3800
1C00
0E00
0300
0080
0000
FE7C
7C38
3C30
3C30
1E20
1E60
0E60
0F40
0FC0
0780
0780
0380
0300
0300
0300
3200
3C00
7C00
3800
ENDCHAR
STARTCHAR uni1EF4
ENCODING 7924
SWIDTH 617 0
DWIDTH 15 0
BBX 16 23 0 -5
BITMAP
FF3F
3C0C
3C0C
1E18
1E18
0F10
0F30
0F20
07E0
07C0
03C0
03C0
03C0
03C0
03C0
03C0
03C0
0FF0
0000
0180
03C0
03C0
0180
ENDCHAR
STARTCHAR uni1EF5
ENCODING 7925
SWIDTH 524 0
DWIDTH 13 0
BBX 14 24 0 -11
BITMAP
FE7C
7C38
3C30
3C30
1E20
1E60
0E60
0F40
0FC0
0780
0780
0380
0300
0300
0300
3200
3C00
7C00
3800
0000
0C00
1E00
1E00
0C00
ENDCHAR
STARTCHAR uni1EF8
ENCODING 7928
SWIDTH 617 0
DWIDTH 15 0
BBX 16 23 0 0
BITMAP
0408
1FF0
1FF0
2040
0000
FF3F
3C0C
3C0C
1E18
1E18
0F10
0F30
0F20
07E0
07C0
03C0
03C0
03C0
03C0
03C0
03C0
03C0
0FF0
ENDCHAR
STARTCHAR uni1EF9
ENCODING 7929
SWIDTH 524 0
DWIDTH 13 0
BBX 14 24 0 -6
BITMAP
0810
3FE0
3FE0
4080
0000
FE7C
7C38
3C30
3C30
1E20
1E60
0E60
0F40
0FC0
0780
0780
0380
0300
0300
0300
3200
3C00
7C00
3800
ENDCHAR
STARTCHAR uni2000
ENCODING 8192
SWIDTH 500 0
DWIDTH 13 0
BBX 1 1 0 0
BITMAP
00
ENDCHAR
STARTCHAR uni2001
ENCODING 8193
SWIDTH 1000 0
DWIDTH 25 0
BBX 1 1 0 0
BITMAP
00
ENDCHAR
STARTCHAR uni2002
ENCODING 8194
SWIDTH 500 0
DWIDTH 13 0
BBX 1 1 0 0
BITMAP
00
ENDCHAR
STARTCHAR uni2003
ENCODING 8195
SWIDTH 1000 0
DWIDTH 25 0
BBX 1 1 0 0
BITMAP
00
ENDCHAR
STARTCHAR uni2004
ENCODING 8196
SWIDTH 333 0
DWIDTH 8 0
BBX 1 1 0 0
BITMAP
00
ENDCHAR
STARTCHAR uni2005
ENCODING 8197
SWIDTH 250 0
DWIDTH 6 0
BBX 1 1 0 0
BITMAP
00
ENDCHAR
STARTCHAR uni2006
ENCODING 8198
SWIDTH 167 0
DWIDTH 4 0
BBX 1 1 0 0
BITMAP
00
ENDCHAR
STARTCHAR uni2007
ENCODING 8199
SWIDTH 560 0
DWIDTH 14 0
BBX 1 1 0 0
BITMAP
00
ENDCHAR
STARTCHAR uni2008
ENCODING 8200
SWIDTH 280 0
DWIDTH 7 0
BBX 1 1 0 0
BITMAP
00
ENDCHAR
STARTCHAR uni2009
ENCODING 8201
SWIDTH 200 0
DWIDTH 5 0
BBX 1 1 0 0
BITMAP
00
ENDCHAR
STARTCHAR uni200A
ENCODING 8202
SWIDTH 100 0
DWIDTH 3 0
BBX 1 1 0 0
BITMAP
00
ENDCHAR
STARTCHAR uni200B
ENCODING 8203
SWIDTH 0 0
DWIDTH 0 0
BBX 1 1 0 0
BITMAP
00
ENDCHAR
STARTCHAR uni2010
ENCODING 8208
SWIDTH 392 0
DWIDTH 10 0
BBX 7 2 1 5
BITMAP
FE
FE
ENDCHAR
STARTCHAR uni2011
ENCODING 8209
SWIDTH 392 0
DWIDTH 10 0
BBX 7 2 1 5
BITMAP
FE
FE
ENDCHAR
STARTCHAR figuredash
ENCODING 8210
SWIDTH 500 0
DWIDTH 12 0
BBX 12 2 0 5
BITMAP
FFF0
FFF0
ENDCHAR
STARTCHAR endash
ENCODING 8211
SWIDTH 500 0
DWIDTH 12 0
BBX 12 2 0 5
BITMAP
FFF0
FFF0
ENDCHAR
STARTCHAR emdash
ENCODING 8212
SWIDTH 1000 0
DWIDTH 25 0
BBX 25 2 0 5
BITMAP
FFFFFF80
FFFFFF80
ENDCHAR
STARTCHAR afii00208
ENCODING 8213
SWIDTH 1000 0
DWIDTH 25 0
BBX 25 2 0 5
BITMAP
FFFFFF80
FFFFFF80
ENDCHAR
STARTCHAR quoteleft
ENCODING 8216
SWIDTH 252 0
DWIDTH 6 0
BBX 4 8 1 10
BITMAP
10
20
60
60
E0
E0
F0
60
ENDCHAR
STARTCHAR quoteright
ENCODING 8217
SWIDTH 252 0
DWIDTH 6 0
BBX 4 8 1 10
BITMAP
60
F0
70
70
60
60
40
80
ENDCHAR
STARTCHAR quotesinglbase
ENCODING 8218
SWIDTH 252 0
DWIDTH 6 0
BBX 4 8 1 -4
BITMAP
60
F0
70
70
60
60
40
80
ENDCHAR
STARTCHAR quotereversed
ENCODING 8219
SWIDTH 252 0
DWIDTH 6 0
BBX 4 8 1 10
BITMAP
60
F0
E0
E0
60
60
20
10
ENDCHAR
STARTCHAR quotedblleft
ENCODING 8220
SWIDTH 473 0
DWIDTH 12 0
BBX 10 8 1 10
BITMAP
1040
3080
6180
6380
E380
F380
F380
6180
ENDCHAR
STARTCHAR quotedblright
ENCODING 8221
SWIDTH 473 0
DWIDTH 12 0
BBX 10 8 1 10
BITMAP
6180
73C0
73C0
71C0
7180
6180
4300
8200
ENDCHAR
STARTCHAR quotedblbase
ENCODING 8222
SWIDTH 473 0
DWIDTH 12 0
BBX 10 8 1 -4
BITMAP
6180
73C0
73C0
71C0
7180
6180
4300
8200
ENDCHAR
STARTCHAR uni201F
ENCODING 8223
SWIDTH 473 0
DWIDTH 12 0
BBX 10 8 1 10
BITMAP
6180
F380
F380
E380
6380
6180
3080
1040
ENDCHAR
STARTCHAR dagger
ENCODING 8224
SWIDTH 510 0
DWIDTH 13 0
BBX 11 20 1 -2
BITMAP
0400
0E00
0E00
0E00
0400
E4E0
FFE0
0E00
0E00
0E00
0E00
0E00
0E00
0E00
0400
0400
0400
0400
0400
0400
ENDCHAR
STARTCHAR daggerdbl
ENCODING 8225
SWIDTH 486 0
DWIDTH 12 0
BBX 11 21 1 -3
BITMAP
0E00
0E00
0E00
0E00
0400
7FE0
7FC0
0400
0E00
0E00
0E00
0E00
0400
FFC0
7FC0
0400
0E00
0E00
0E00
0E00
0400
ENDCHAR
STARTCHAR bullet
ENCODING 8226
SWIDTH 455 0
DWIDTH 11 0
BBX 9 9 1 4
BITMAP
1C00
7F00
7F00
FF80
FF80
FF80
7F00
7F00
1C00
ENDCHAR
STARTCHAR ellipsis
ENCODING 8230
SWIDTH 1000 0
DWIDTH 25 0
BBX 21 5 2 0
BITMAP
202020
707070
F8F8F8
707070
202020
ENDCHAR
STARTCHAR perthousand
ENCODING 8240
SWIDTH 1289 0
DWIDTH 32 0
BBX 30 18 1 0
BITMAP
00010000
3C030000
77FE0000
E3860000
E38C0000
E3880000
E3980000
E3B00000
77300000
3E67C1F0
004EE3B8
00DC771C
019C771C
019C771C
031C771C
021C771C
060EE3B8
0C07C1F0
ENDCHAR
STARTCHAR guilsinglleft
ENCODING 8249
SWIDTH 287 0
DWIDTH 7 0
BBX 5 11 1 1
BITMAP
08
18
30
30
60
E0
60
30
30
18
08
ENDCHAR
STARTCHAR guilsinglright
ENCODING 8250
SWIDTH 287 0
DWIDTH 7 0
BBX 5 11 1 1
BITMAP
80
C0
60
60
30
38
30
60
60
C0
80
ENDCHAR
STARTCHAR fraction
ENCODING 8260
SWIDTH 100 0
DWIDTH 2 0
BBX 10 18 -4 0
BITMAP
0080
00C0
0180
0180
0300
0300
0200
0600
0400
0C00
0800
1800
1000
3000
2000
6000
4000
C000
ENDCHAR
STARTCHAR oneinferior
ENCODING 8321
SWIDTH 402 0
DWIDTH 10 0
BBX 7 10 1 -6
BITMAP
38
F8
38
38
38
38
38
38
38
FE
ENDCHAR
STARTCHAR twoinferior
ENCODING 8322
SWIDTH 402 0
DWIDTH 10 0
BBX 9 10 1 -6
BITMAP
3C00
6700
E700
6700
0E00
1C00
3800
6080
FF00
FF00
ENDCHAR
STARTCHAR threeinferior
ENCODING 8323
SWIDTH 402 0
DWIDTH 10 0
BBX 8 10 1 -6
BITMAP
3E
E7
67
06
3C
07
47
E7
E6
7C
ENDCHAR
STARTCHAR uni20A5
ENCODING 8357
SWIDTH 948 0
DWIDTH 24 0
BBX 24 18 0 -2
BITMAP
000700
000600
000600
1CFEF0
7FFFF8
3E7E7C
3C3C3C
3C3C3C
3C3C3C
3C3C3C
3C3C3C
3C3C3C
3C3C3C
3C7C3C
3C7C3C
FE7E7F
006000
00E000
ENDCHAR
STARTCHAR uni20A6
ENCODING 8358
SWIDTH 739 0
DWIDTH 18 0
BBX 18 18 0 0
BITMAP
FE0FC0
3E0300
3F0300
3F0300
378300
3FFF00
3FFF00
33E300
31F300
30F300
3FFF00
3FFF00
303F00
303F00
301F00
301F00
300F00
FC0700
ENDCHAR
STARTCHAR uni20A9
ENCODING 8361
SWIDTH 933 0
DWIDTH 23 0
BBX 24 18 0 0
BITMAP
FE003F
3C1C0C
3C1C0C
3C1E0C
3C1E08
1FFFD8
1FFFD8
1E3F18
0E2710
0E6730
0FFFF0
0FFFF0
0743A0
07C3A0
07C3E0
07C3E0
0381C0
0381C0
ENDCHAR
STARTCHAR Euro
ENCODING 8364
SWIDTH 689 0
DWIDTH 17 0
BBX 18 18 -2 0
BITMAP
007F00
03C3C0
0780C0
0F00C0
0F0040
FFF000
FFF000
1E0000
1E0000
1E0000
FFF000
FFF000
1E0040
0F0040
0F00C0
0780C0
03E3C0
007F00
ENDCHAR
STARTCHAR uni20AD
ENCODING 8365
SWIDTH 707 0
DWIDTH 18 0
BBX 17 18 1 0
BITMAP
FF1F80
3C0E00
3C1C00
3C3800
3C3000
3C6000
3CC000
3DC000
FFFF80
3FE000
3DF000
3DF000
3CF800
3C7C00
3C7C00
3C3E00
3C1F00
FF0780
ENDCHAR
STARTCHAR uni2103
ENCODING 8451
SWIDTH 1065 0
DWIDTH 27 0
BBX 25 18 1 0
BITMAP
0000FE00
3C078780
660F0180
C31E0180
C31E0080
C31C0000
C33C0000
663C0000
3C3C0000
003C0000
003C0000
003C0000
003C0080
001E0080
001E0180
000F0180
0007C780
0000FE00
ENDCHAR
STARTCHAR uni2109
ENCODING 8457
SWIDTH 969 0
DWIDTH 25 0
BBX 23 18 1 0
BITMAP
003FFE
3C0F0E
660F06
C30F02
C30F00
C30F00
C30F04
660F04
3C0F0C
000FFC
000F0C
000F04
000F00
000F00
000F00
000F00
000F00
003FC0
ENDCHAR
STARTCHAR trademark
ENCODING 8482
SWIDTH 1090 0
DWIDTH 27 0
BBX 25 11 1 7
BITMAP
FFDE0F80
9CCF0F00
9C4F1F00
1C0B9700
1C0B9700
1C0BB700
1C09E700
1C09E700
1C08E700
1C08C700
3F1ECF80
ENDCHAR
STARTCHAR uni212A
ENCODING 8490
SWIDTH 707 0
DWIDTH 18 0
BBX 17 18 1 0
BITMAP
FF1F80
3C0E00
3C1C00
3C3800
3C3000
3C6000
3CC000
3DC000
3FC000
3FE000
3DF000
3DF000
3CF800
3C7C00
3C7C00
3C3E00
3C1F00
FF0780
ENDCHAR
STARTCHAR uni212B
ENCODING 8491
SWIDTH 644 0
DWIDTH 16 0
BBX 18 22 -1 0
BITMAP
01E000
033000
033000
033000
01E000
01E000
01E000
01F000
03F000
03F000
027800
067800
067800
047C00
0C3C00
0FFC00
181E00
181E00
100F00
300F00
300F00
FC3FC0
ENDCHAR
STARTCHAR uni2132
ENCODING 8498
SWIDTH 593 0
DWIDTH 15 0
BBX 13 18 1 0
BITMAP
07F8
01E0
01E0
01E0
01E0
01E0
41E0
61E0
7FE0
61E0
41E0
41E0
01E0
01E0
81E0
C1E0
E1E0
FFF8
ENDCHAR
STARTCHAR universal
ENCODING 8704
SWIDTH 644 0
DWIDTH 16 0
BBX 17 18 -1 0
BITMAP
FC7F80
301E00
301E00
301E00
183C00
183C00
0FFC00
0C7800
0C7800
047800
04F000
06F000
06F000
02F000
03E000
03E000
01E000
01C000
ENDCHAR
STARTCHAR existential
ENCODING 8707
SWIDTH 629 0
DWIDTH 16 0
BBX 14 18 1 0
BITMAP
7FFC
70F0
60F0
60F0
40F0
00F0
10F0
18F0
1FF0
18F0
10F0
00F0
00F0
C0F0
C0F0
C0F0
E0F0
7FFC
ENDCHAR
STARTCHAR uni2204
ENCODING 8708
SWIDTH 629 0
DWIDTH 16 0
BBX 14 18 1 0
BITMAP
7FFC
70F0
60F0
61F0
41F0
01F0
13F0
1BF0
1FF0
1BF0
17F0
07F0
06F0
CEF0
CEF0
CCF0
ECF0
7FFC
ENDCHAR
STARTCHAR minus
ENCODING 8722
SWIDTH 600 0
DWIDTH 15 0
BBX 12 2 1 5
BITMAP
FFF0
FFF0
ENDCHAR
STARTCHAR fraction
ENCODING 8725
SWIDTH 100 0
DWIDTH 2 0
BBX 10 18 -4 0
BITMAP
0080
00C0
0180
0180
0300
0300
0200
0600
0400
0C00
0800
1800
1000
3000
2000
6000
4000
C000
ENDCHAR
STARTCHAR periodcentered
ENCODING 8729
SWIDTH 280 0
DWIDTH 7 0
BBX 5 5 1 4
BITMAP
20
70
F8
70
20
ENDCHAR
STARTCHAR uni2236
ENCODING 8758
SWIDTH 280 0
DWIDTH 7 0
BBX 5 13 1 0
BITMAP
20
70
F8
70
20
00
00
00
20
70
F8
70
20
ENDCHAR
STARTCHAR uni2259
ENCODING 8793
SWIDTH 600 0
DWIDTH 15 0
BBX 12 14 1 3
BITMAP
0200
0700
0F80
1DC0
1040
2020
0000
FFF0
FFF0
0000
0000
0000
FFF0
FFF0
ENDCHAR
STARTCHAR uni225A
ENCODING 8794
SWIDTH 600 0
DWIDTH 15 0
BBX 12 14 1 3
BITMAP
2020
1040
1DC0
0F80
0700
0200
0000
FFF0
FFF0
0000
0000
0000
FFF0
FFF0
ENDCHAR
STARTCHAR notequal
ENCODING 8800
SWIDTH 600 0
DWIDTH 15 0
BBX 12 18 1 -2
BITMAP
01C0
0180
0180
0380
0380
0300
FFF0
FFF0
0600
0600
0E00
FFF0
FFF0
1C00
1C00
1800
1800
3800
ENDCHAR
STARTCHAR equivalence
ENCODING 8801
SWIDTH 600 0
DWIDTH 15 0
BBX 12 5 0 4
BITMAP
FFF0
0000
FFF0
0000
FFF0
ENDCHAR
STARTCHAR uni2262
ENCODING 8802
SWIDTH 600 0
DWIDTH 15 0
BBX 12 18 0 -2
BITMAP
01C0
0180
0180
0380
0380
0300
0700
FFF0
0600
FFF0
0E00
FFF0
0C00
1C00
1C00
1800
1800
3800
ENDCHAR
STARTCHAR lessequal
ENCODING 8804
SWIDTH 600 0
DWIDTH 15 0
BBX 12 15 1 -2
BITMAP
0010
0070
01F0
0FC0
3F00
F800
E000
F800
3E00
07C0
01F0
0070
0010
0000
FFF0
ENDCHAR
STARTCHAR greaterequal
ENCODING 8805
SWIDTH 600 0
DWIDTH 15 0
BBX 12 15 1 -2
BITMAP
8000
E000
F800
3F00
0FC0
01F0
0070
01F0
07C0
3E00
F800
E000
8000
0000
FFF0
ENDCHAR
STARTCHAR uni226E
ENCODING 8814
SWIDTH 600 0
DWIDTH 15 0
BBX 12 18 1 -2
BITMAP
01C0
0180
0180
0390
03F0
03F0
0FC0
3F00
FE00
E600
FE00
3E00
0FC0
1DF0
1C70
1810
1800
3800
ENDCHAR
STARTCHAR uni226F
ENCODING 8815
SWIDTH 600 0
DWIDTH 15 0
BBX 12 18 1 -2
BITMAP
01C0
0180
0180
8380
E380
FB00
3F00
0FC0
07F0
0670
0FF0
0FC0
3E00
FC00
FC00
9800
1800
3800
ENDCHAR
STARTCHAR uni2270
ENCODING 8816
SWIDTH 600 0
DWIDTH 15 0
BBX 12 18 1 -3
BITMAP
01C0
0180
0190
03F0
03F0
0FC0
3F00
FF00
E600
FE00
3E00
0FC0
0DF0
1C70
1C10
1800
FFF0
3800
ENDCHAR
STARTCHAR uni2271
ENCODING 8817
SWIDTH 600 0
DWIDTH 15 0
BBX 12 18 1 -3
BITMAP
01C0
0180
8180
E380
FB80
3F00
0FC0
07F0
0670
07F0
0FC0
3E00
FC00
FC00
9C00
1800
FFF0
3800
ENDCHAR
STARTCHAR fi
ENCODING -1
SWIDTH 639 0
DWIDTH 16 0
BBX 16 19 0 0
BITMAP
07E0
0E78
1C3C
3C38
3C00
3C00
7FFC
3C3C
3C3C
3C3C
3C3C
3C3C
3C3C
3C3C
3C3C
3C3C
3C3C
3C3C
FE7F
ENDCHAR
STARTCHAR fl
ENCODING -1
SWIDTH 639 0
DWIDTH 16 0
BBX 16 19 0 0
BITMAP
07EC
0E7C
1C3C
3C3C
3C3C
3C3C
7F3C
3C3C
3C3C
3C3C
3C3C
3C3C
3C3C
3C3C
3C3C
3C3C
3C3C
3C3C
FE7F
ENDCHAR
ENDFONT
